{
.appVersion = "1057";
DisplayStrings = (
"HHAHOOAOH\012nnsnoaon\012/dotaccentcomb n.n:n,n;\012n-n_n~n\012H!H?H\U00BFH\U00A1H'H\"H^H|H#H\012H(H)H[H]H{H}H/backslash H//H\012H+H/minus H=H<H>H\012H0H1H2H3H4H5H6H7H8H9H%H",
"\U00C0\U00C1\U00C2\U00C3/Amacron/Abreve \U00C4\U00C5/Aogonek/Aringacute \U00C6/AEacute C/Cacute/Ccircumflex/Cdotaccent/Ccaron \U00C7D/Dcaron/Dcroat E\U00CA\U00C8\U00C9\U00CA/Emacron/Ebreve/Edotaccent \U00CB/Ecaron/Eogonek G/Gcircumflex/Gbreve/Gdotaccent/Gcommaaccent H/Hcircumflex/Hbar I\U00CC\U00CD\U00CE/Itilde/Imacron/Ibreve/Idotaccent \U00CF/Iogonek/IJ/Iacute_J.NLD/Jacute J/Jcircumflex/commaaccent K/Kcommaaccent L/Lacute/Lcommaaccent/Lcaron/Ldot/Lslash N/Nacute \U00D1/Ncaron/Eng/Ncommaaccent O\U00D2\U00D3\U00D4\U00D5/Omacron/Obreve \U00D6/Ohungarumlaut \U00D8/Oslashacute/OE R/Racute/Rcaron/Rcommaaccent S/Sacute/Scircumflex/Scaron/Scommaaccent/Scedilla/Germandbls T/Tcaron/Tcommaaccent/Tcedilla/Tbar U\U00D9\U00DA\U00DB/Utilde/Umacron/Ubreve \U00DC/Uring/Uhungarumlaut \U00C1/Uogonek W/Wgrave/Wacute/Wcircumflex/Wdieresis Y/Ygrave \U00DD/Ycircumflex/Ydieresis Z/Zacute/Zdotaccent/Zcaron \U00D0\U00DE/Schwa",

glyphs = (
{
color = 6;
glyphname = .notdef;
lastChange = "2017-10-26 15:33:44 +0000";
layers = (
{
layerId = "C0254B35-3FF0-4514-8990-BC8C3A6FFAB6";
paths = (
{
closed = 1;
nodes = (
"90 690 LINE",
"90 0 LINE",
"654 0 LINE",
"654 690 LINE"
);
},
{
closed = 1;
nodes = (
"573 48 LINE",
"171 48 LINE",
"373 304 LINE"
);
},
{
closed = 1;
nodes = (
"341 343 LINE",
"143 89 LINE",
"143 599 LINE"
);
},
{
closed = 1;
nodes = (
"601 89 LINE",
"401 346 LINE",
"601 599 LINE"
);
},
{
closed = 1;
nodes = (
"370 386 LINE",
"171 642 LINE",
"573 642 LINE"
);
}
);
width = 744;
},
{
background = {
paths = (
{
closed = 1;
nodes = (
"70 690 LINE",
"70 0 LINE",
"634 0 LINE",
"634 690 LINE"
);
},
{
closed = 1;
nodes = (
"553 48 LINE",
"151 48 LINE",
"353 304 LINE"
);
},
{
closed = 1;
nodes = (
"321 343 LINE",
"123 89 LINE",
"123 599 LINE"
);
},
{
closed = 1;
nodes = (
"581 89 LINE",
"381 346 LINE",
"581 599 LINE"
);
},
{
closed = 1;
nodes = (
"350 386 LINE",
"151 642 LINE",
"553 642 LINE"
);
}
);
};
layerId = "161FAF72-C4C5-4DCB-BDD5-17E2433CDCDE";
paths = (
{
closed = 1;
nodes = (
"146 690 LINE",
"24 0 LINE",
"578 0 LINE",
"700 690 LINE"
);
},
{
closed = 1;
nodes = (
"508 48 LINE",
"116 48 LINE",
"359 305 LINE"
);
},
{
closed = 1;
nodes = (
"332 346 LINE",
"93 91 LINE",
"183 602 LINE"
);
},
{
closed = 1;
nodes = (
"541 86 LINE",
"392 342 LINE",
"631 596 LINE"
);
},
{
closed = 1;
nodes = (
"367 382 LINE",
"216 642 LINE",
"608 642 LINE"
);
}
);
width = 695;
},
{
layerId = "4208D53D-8B52-43BA-A51E-290EEDFDCE51";
paths = (
{
closed = 1;
nodes = (
"50 690 LINE",
"50 0 LINE",
"614 0 LINE",
"614 690 LINE"
);
},
{
closed = 1;
nodes = (
"533 48 LINE",
"131 48 LINE",
"333 304 LINE"
);
},
{
closed = 1;
nodes = (
"301 343 LINE",
"103 89 LINE",
"103 599 LINE"
);
},
{
closed = 1;
nodes = (
"561 89 LINE",
"361 346 LINE",
"561 599 LINE"
);
},
{
closed = 1;
nodes = (
"330 386 LINE",
"131 642 LINE",
"533 642 LINE"
);
}
);
width = 664;
}
);
},
{
color = 4;
glyphname = A;
lastChange = "2017-11-06 12:30:25 +0000";
layers = (
{
anchors = (
{
name = bottom;
position = "{302, 0}";
},
{
name = ogonek;
position = "{563, 0}";
},
{
name = top;
position = "{424, 690}";
}
);
background = {
anchors = (
{
name = bottom;
position = "{354, 0}";
},
{
name = ogonek;
position = "{615, 0}";
},
{
name = top;
position = "{354, 690}";
}
);
paths = (
{
closed = 1;
nodes = (
"548 119 LINE",
"528 279 LINE",
"192 279 LINE",
"172 119 LINE"
);
},
{
closed = 1;
nodes = (
"191 690 LINE",
"4 0 LINE",
"239 0 LINE",
"291 255 LINE",
"362 616 LINE",
"346 616 LINE",
"418 255 LINE",
"469 0 LINE",
"705 0 LINE",
"518 690 LINE"
);
}
);
};
layerId = "4208D53D-8B52-43BA-A51E-290EEDFDCE51";
paths = (
{
closed = 1;
nodes = (
"511 119 LINE",
"519 279 LINE",
"194 279 LINE",
"146 119 LINE"
);
},
{
closed = 1;
nodes = (
"261 690 LINE",
"-43 0 LINE",
"197 0 LINE",
"421 616 LINE",
"405 616 LINE",
"417 0 LINE",
"647 0 LINE",
"588 690 LINE"
);
}
);
width = 698;
},
{
anchors = (
{
name = bottom;
position = "{256, 0}";
},
{
name = ogonek;
position = "{530, 0}";
},
{
name = top;
position = "{375, 690}";
}
);
background = {
anchors = (
{
name = bottom;
position = "{311, 0}";
},
{
name = ogonek;
position = "{591, 0}";
},
{
name = top;
position = "{308, 690}";
}
);
paths = (
{
closed = 1;
nodes = (
"502 203 LINE",
"495 221 LINE",
"124 221 LINE",
"117 203 LINE"
);
},
{
closed = 1;
nodes = (
"299 690 LINE",
"19 0 LINE",
"40 0 LINE",
"126 211 LINE",
"310 669 LINE",
"306 669 LINE",
"491 211 LINE",
"576 0 LINE",
"598 0 LINE",
"317 690 LINE"
);
}
);
};
layerId = "C0254B35-3FF0-4514-8990-BC8C3A6FFAB6";
paths = (
{
closed = 1;
nodes = (
"477 203 LINE",
"473 221 LINE",
"110 221 LINE",
"100 203 LINE"
);
},
{
closed = 1;
nodes = (
"366 690 LINE",
"-31 0 LINE",
"-9 0 LINE",
"374 668 LINE",
"371 669 LINE",
"517 0 LINE",
"537 0 LINE",
"384 690 LINE"
);
}
);
width = 596;
},
{
anchors = (
{
name = bottom;
position = "{304, 0}";
},
{
name = ogonek;
position = "{593, 0}";
},
{
name = top;
position = "{304, 670}";
}
);
associatedMasterId = "C0254B35-3FF0-4514-8990-BC8C3A6FFAB6";
background = {
paths = (
{
closed = 1;
nodes = (
"499 197 LINE",
"492 215 LINE",
"118 215 LINE",
"111 197 LINE"
);
},
{
closed = 1;
nodes = (
"295 670 LINE",
"16 0 LINE",
"38 0 LINE",
"123 206 LINE",
"306 650 LINE",
"302 650 LINE",
"485 206 LINE",
"570 0 LINE",
"592 0 LINE",
"313 670 LINE"
);
}
);
};
guideLines = (
{
angle = -25.0305;
position = "{116, 38}";
showMeasurement = 1;
}
);
layerId = "2A6764E9-1B22-44CA-8029-A96CA69EBB23";
name = "Light Jul 25 17, 13:38";
paths = (
{
closed = 1;
nodes = (
"499 197 LINE",
"492 215 LINE",
"118 215 LINE",
"111 197 LINE"
);
},
{
closed = 1;
nodes = (
"295 670 LINE",
"16 0 LINE",
"38 0 LINE",
"123 206 LINE",
"306 650 LINE",
"302 650 LINE",
"485 206 LINE",
"570 0 LINE",
"592 0 LINE",
"313 670 LINE"
);
}
);
width = 608;
},
{
anchors = (
{
name = bottom;
position = "{278, 0}";
},
{
name = ogonek;
position = "{547, 0}";
},
{
name = top;
position = "{399, 690}";
}
);
background = {
paths = (
{
closed = 1;
nodes = (
"481 165 LINE",
"470 250 LINE",
"113 250 LINE",
"101 165 LINE"
);
},
{
closed = 1;
nodes = (
"216 690 LINE",
"-26 0 LINE",
"87 0 LINE",
"164 231 LINE",
"299 645 LINE",
"279 645 LINE",
"414 231 LINE",
"491 0 LINE",
"604 0 LINE",
"362 690 LINE"
);
}
);
};
layerId = "161FAF72-C4C5-4DCB-BDD5-17E2433CDCDE";
paths = (
{
closed = 1;
nodes = (
"495 165 LINE",
"500 250 LINE",
"150 250 LINE",
"123 165 LINE"
);
},
{
closed = 1;
nodes = (
"325 690 LINE",
"-32 0 LINE",
"84 0 LINE",
"404 645 LINE",
"385 645 LINE",
"477 0 LINE",
"587 0 LINE",
"472 690 LINE"
);
}
);
width = 647;
}
);
unicode = 0041;
},
{
color = 4;
glyphname = B;
lastChange = "2017-11-06 18:11:24 +0000";
layers = (
{
background = {
paths = (
{
closed = 1;
nodes = (
"593 364 OFFCURVE",
"637 415 OFFCURVE",
"637 509 CURVE SMOOTH",
"637 635 OFFCURVE",
"554 690 OFFCURVE",
"392 690 CURVE SMOOTH",
"77 690 LINE",
"77 0 LINE",
"410 0 LINE SMOOTH",
"572 0 OFFCURVE",
"655 59 OFFCURVE",
"655 194 CURVE SMOOTH",
"655 294 OFFCURVE",
"605 343 OFFCURVE",
"500 361 CURVE",
"503 342 LINE"
);
},
{
closed = 1;
nodes = (
"405 535 OFFCURVE",
"429 522 OFFCURVE",
"429 468 CURVE SMOOTH",
"429 424 OFFCURVE",
"405 402 OFFCURVE",
"354 402 CURVE SMOOTH",
"277 402 LINE",
"277 535 LINE",
"354 535 LINE SMOOTH"
);
},
{
closed = 1;
nodes = (
"277 155 LINE",
"277 289 LINE",
"372 289 LINE SMOOTH",
"423 289 OFFCURVE",
"447 267 OFFCURVE",
"447 222 CURVE SMOOTH",
"447 168 OFFCURVE",
"423 155 OFFCURVE",
"372 155 CURVE SMOOTH"
);
}
);
};
layerId = "4208D53D-8B52-43BA-A51E-290EEDFDCE51";
paths = (
{
closed = 1;
nodes = (
"608 368 OFFCURVE",
"666 422 OFFCURVE",
"666 531 CURVE SMOOTH",
"666 627 OFFCURVE",
"602 690 OFFCURVE",
"456 690 CURVE SMOOTH",
"123 690 LINE",
"1 0 LINE",
"359 0 LINE SMOOTH",
"537 0 OFFCURVE",
"638 66 OFFCURVE",
"638 215 CURVE SMOOTH",
"638 288 OFFCURVE",
"596 346 OFFCURVE",
"509 361 CURVE",
"508 342 LINE"
);
},
{
closed = 1;
nodes = (
"434 535 OFFCURVE",
"456 521 OFFCURVE",
"456 485 CURVE SMOOTH",
"456 426 OFFCURVE",
"428 402 OFFCURVE",
"369 402 CURVE SMOOTH",
"287 402 LINE",
"311 535 LINE",
"391 535 LINE SMOOTH"
);
},
{
closed = 1;
nodes = (
"243 155 LINE",
"267 289 LINE",
"362 289 LINE SMOOTH",
"406 289 OFFCURVE",
"427 268 OFFCURVE",
"427 235 CURVE SMOOTH",
"427 174 OFFCURVE",
"396 155 OFFCURVE",
"338 155 CURVE SMOOTH"
);
}
);
width = 670;
},
{
background = {
paths = (
{
closed = 1;
nodes = (
"522 366 OFFCURVE",
"568 417 OFFCURVE",
"568 512 CURVE SMOOTH",
"568 636 OFFCURVE",
"504 690 OFFCURVE",
"369 690 CURVE SMOOTH",
"113 690 LINE",
"113 0 LINE",
"387 0 LINE SMOOTH",
"526 0 OFFCURVE",
"590 63 OFFCURVE",
"590 186 CURVE SMOOTH",
"590 302 OFFCURVE",
"536 356 OFFCURVE",
"424 365 CURVE",
"424 352 LINE"
);
},
{
closed = 1;
nodes = (
"492 672 OFFCURVE",
"548 624 OFFCURVE",
"548 512 CURVE SMOOTH",
"548 410 OFFCURVE",
"490 367 OFFCURVE",
"368 367 CURVE SMOOTH",
"132 367 LINE",
"132 672 LINE",
"368 672 LINE SMOOTH"
);
},
{
closed = 1;
nodes = (
"132 18 LINE",
"132 348 LINE",
"390 348 LINE SMOOTH",
"512 348 OFFCURVE",
"570 302 OFFCURVE",
"570 186 CURVE SMOOTH",
"570 74 OFFCURVE",
"514 18 OFFCURVE",
"386 18 CURVE SMOOTH"
);
}
);
};
layerId = "C0254B35-3FF0-4514-8990-BC8C3A6FFAB6";
paths = (
{
closed = 1;
nodes = (
"517 362 OFFCURVE",
"591 415 OFFCURVE",
"591 548 CURVE SMOOTH",
"591 638 OFFCURVE",
"536 690 OFFCURVE",
"420 690 CURVE SMOOTH",
"174 690 LINE",
"52 0 LINE",
"326 0 LINE SMOOTH",
"480 0 OFFCURVE",
"556 73 OFFCURVE",
"556 213 CURVE SMOOTH",
"556 299 OFFCURVE",
"510 352 OFFCURVE",
"418 360 CURVE",
"418 355 LINE"
);
},
{
closed = 1;
nodes = (
"525 672 OFFCURVE",
"571 627 OFFCURVE",
"571 547 CURVE SMOOTH",
"571 417 OFFCURVE",
"493 367 OFFCURVE",
"372 367 CURVE SMOOTH",
"136 367 LINE",
"190 672 LINE",
"419 672 LINE SMOOTH"
);
},
{
closed = 1;
nodes = (
"74 18 LINE",
"133 348 LINE",
"381 348 LINE SMOOTH",
"485 348 OFFCURVE",
"536 299 OFFCURVE",
"536 212 CURVE SMOOTH",
"536 86 OFFCURVE",
"472 18 OFFCURVE",
"328 18 CURVE SMOOTH"
);
}
);
width = 623;
},
{
background = {
paths = (
{
closed = 1;
nodes = (
"534 365 OFFCURVE",
"580 419 OFFCURVE",
"580 510 CURVE SMOOTH",
"580 633 OFFCURVE",
"509 690 OFFCURVE",
"359 690 CURVE SMOOTH",
"77 690 LINE",
"77 0 LINE",
"377 0 LINE SMOOTH",
"527 0 OFFCURVE",
"601 65 OFFCURVE",
"601 192 CURVE SMOOTH",
"601 295 OFFCURVE",
"549 353 OFFCURVE",
"435 363 CURVE",
"435 348 LINE"
);
},
{
closed = 1;
nodes = (
"433 604 OFFCURVE",
"475 576 OFFCURVE",
"475 498 CURVE SMOOTH",
"475 425 OFFCURVE",
"432 394 OFFCURVE",
"361 394 CURVE SMOOTH",
"179 394 LINE",
"179 604 LINE",
"354 604 LINE SMOOTH"
);
},
{
closed = 1;
nodes = (
"179 86 LINE",
"179 310 LINE",
"382 310 LINE SMOOTH",
"452 310 OFFCURVE",
"496 278 OFFCURVE",
"496 199 CURVE SMOOTH",
"496 117 OFFCURVE",
"454 86 OFFCURVE",
"372 86 CURVE SMOOTH"
);
}
);
};
layerId = "161FAF72-C4C5-4DCB-BDD5-17E2433CDCDE";
paths = (
{
closed = 1;
nodes = (
"556 359 OFFCURVE",
"627 418 OFFCURVE",
"627 528 CURVE SMOOTH",
"627 633 OFFCURVE",
"547 690 OFFCURVE",
"430 690 CURVE SMOOTH",
"153 690 LINE",
"31 0 LINE",
"335 0 LINE SMOOTH",
"509 0 OFFCURVE",
"592 70 OFFCURVE",
"592 209 CURVE SMOOTH",
"592 293 OFFCURVE",
"547 338 OFFCURVE",
"458 353 CURVE",
"455 343 LINE"
);
},
{
closed = 1;
nodes = (
"479 604 OFFCURVE",
"523 582 OFFCURVE",
"523 513 CURVE SMOOTH",
"523 440 OFFCURVE",
"476 394 OFFCURVE",
"389 394 CURVE SMOOTH",
"203 394 LINE",
"240 604 LINE",
"409 604 LINE SMOOTH"
);
},
{
closed = 1;
nodes = (
"148 86 LINE",
"188 310 LINE",
"375 310 LINE SMOOTH",
"453 310 OFFCURVE",
"488 279 OFFCURVE",
"488 210 CURVE SMOOTH",
"488 129 OFFCURVE",
"443 86 OFFCURVE",
"345 86 CURVE SMOOTH"
);
}
);
width = 643;
}
);
leftMetricsKey = "=H";
unicode = 0042;
},
{
color = 4;
glyphname = C;
lastChange = "2017-11-08 11:29:03 +0000";
layers = (
{
anchors = (
{
name = bottom;
position = "{343, 0}";
},
{
name = top;
position = "{420, 690}";
}
);
background = {
anchors = (
{
name = bottom;
position = "{383, 0}";
},
{
name = top;
position = "{383, 690}";
}
);
paths = (
{
closed = 1;
nodes = (
"586 -18 OFFCURVE",
"697 66 OFFCURVE",
"723 290 CURVE",
"500 290 LINE",
"483 198 OFFCURVE",
"455 166 OFFCURVE",
"392 166 CURVE SMOOTH",
"308 166 OFFCURVE",
"271 221 OFFCURVE",
"271 346 CURVE SMOOTH",
"271 471 OFFCURVE",
"308 527 OFFCURVE",
"391 527 CURVE SMOOTH",
"451 527 OFFCURVE",
"480 496 OFFCURVE",
"497 402 CURVE",
"723 402 LINE",
"693 623 OFFCURVE",
"584 710 OFFCURVE",
"383 710 CURVE SMOOTH",
"167 710 OFFCURVE",
"40 586 OFFCURVE",
"40 346 CURVE SMOOTH",
"40 106 OFFCURVE",
"167 -18 OFFCURVE",
"383 -18 CURVE SMOOTH"
);
}
);
};
layerId = "4208D53D-8B52-43BA-A51E-290EEDFDCE51";
paths = (
{
closed = 1;
nodes = (
"542 -18 OFFCURVE",
"663 66 OFFCURVE",
"708 290 CURVE",
"485 290 LINE",
"462 208 OFFCURVE",
"433 166 OFFCURVE",
"365 166 CURVE SMOOTH",
"300 166 OFFCURVE",
"269 209 OFFCURVE",
"269 283 CURVE SMOOTH",
"269 374 OFFCURVE",
"300 527 OFFCURVE",
"408 527 CURVE SMOOTH",
"468 527 OFFCURVE",
"501 496 OFFCURVE",
"502 402 CURVE",
"728 402 LINE",
"717 603 OFFCURVE",
"619 710 OFFCURVE",
"418 710 CURVE SMOOTH",
"151 710 OFFCURVE",
"39 506 OFFCURVE",
"39 273 CURVE SMOOTH",
"39 97 OFFCURVE",
"149 -18 OFFCURVE",
"344 -18 CURVE SMOOTH"
);
}
);
width = 724;
},
{
anchors = (
{
name = bottom;
position = "{320, 0}";
},
{
name = top;
position = "{401, 690}";
}
);
background = {
anchors = (
{
name = bottom;
position = "{367, 0}";
},
{
name = top;
position = "{367, 690}";
}
);
paths = (
{
closed = 1;
nodes = (
"502 -18 OFFCURVE",
"586 35 OFFCURVE",
"637 206 CURVE",
"616 206 LINE",
"571 53 OFFCURVE",
"496 1 OFFCURVE",
"367 1 CURVE SMOOTH",
"190 1 OFFCURVE",
"85 116 OFFCURVE",
"85 346 CURVE SMOOTH",
"85 576 OFFCURVE",
"190 692 OFFCURVE",
"367 692 CURVE SMOOTH",
"499 692 OFFCURVE",
"564 637 OFFCURVE",
"610 486 CURVE",
"631 486 LINE",
"580 651 OFFCURVE",
"507 710 OFFCURVE",
"367 710 CURVE SMOOTH",
"180 710 OFFCURVE",
"65 588 OFFCURVE",
"65 346 CURVE SMOOTH",
"65 104 OFFCURVE",
"180 -18 OFFCURVE",
"367 -18 CURVE SMOOTH"
);
}
);
};
layerId = "C0254B35-3FF0-4514-8990-BC8C3A6FFAB6";
paths = (
{
closed = 1;
nodes = (
"467 -18 OFFCURVE",
"546 45 OFFCURVE",
"607 206 CURVE",
"586 206 LINE",
"533 63 OFFCURVE",
"460 1 OFFCURVE",
"331 1 CURVE SMOOTH",
"184 1 OFFCURVE",
"86 95 OFFCURVE",
"86 263 CURVE SMOOTH",
"86 486 OFFCURVE",
"191 692 OFFCURVE",
"391 692 CURVE SMOOTH",
"538 692 OFFCURVE",
"590 627 OFFCURVE",
"630 486 CURVE",
"650 486 LINE",
"606 641 OFFCURVE",
"546 710 OFFCURVE",
"391 710 CURVE SMOOTH",
"179 710 OFFCURVE",
"66 495 OFFCURVE",
"66 262 CURVE SMOOTH",
"66 84 OFFCURVE",
"175 -18 OFFCURVE",
"331 -18 CURVE SMOOTH"
);
}
);
width = 679;
},
{
associatedMasterId = "4208D53D-8B52-43BA-A51E-290EEDFDCE51";
background = {
paths = (
{
closed = 1;
nodes = (
"576 -17 OFFCURVE",
"704 103 OFFCURVE",
"704 336 CURVE SMOOTH",
"704 569 OFFCURVE",
"576 689 OFFCURVE",
"361 689 CURVE SMOOTH",
"146 689 OFFCURVE",
"18 569 OFFCURVE",
"18 336 CURVE SMOOTH",
"18 103 OFFCURVE",
"146 -17 OFFCURVE",
"361 -17 CURVE SMOOTH"
);
},
{
closed = 1;
nodes = (
"283 166 OFFCURVE",
"249 218 OFFCURVE",
"249 336 CURVE SMOOTH",
"249 454 OFFCURVE",
"283 506 OFFCURVE",
"361 506 CURVE SMOOTH",
"439 506 OFFCURVE",
"473 454 OFFCURVE",
"473 336 CURVE SMOOTH",
"473 218 OFFCURVE",
"439 166 OFFCURVE",
"361 166 CURVE SMOOTH"
);
}
);
};
layerId = "CE3160C1-41D7-4724-BD8E-A29BA48916A8";
name = "Jul 26 17, 16:09";
paths = (
{
closed = 1;
nodes = (
"542 -17 OFFCURVE",
"656 72 OFFCURVE",
"683 236 CURVE SMOOTH",
"691 284 LINE",
"460 284 LINE",
"456 265 LINE SMOOTH",
"443 201 OFFCURVE",
"413 173 OFFCURVE",
"359 173 CURVE SMOOTH",
"286 173 OFFCURVE",
"256 222 OFFCURVE",
"256 336 CURVE SMOOTH",
"256 450 OFFCURVE",
"286 499 OFFCURVE",
"359 499 CURVE SMOOTH",
"413 499 OFFCURVE",
"443 471 OFFCURVE",
"456 407 CURVE SMOOTH",
"460 388 LINE",
"691 388 LINE",
"683 436 LINE SMOOTH",
"655 600 OFFCURVE",
"544 689 OFFCURVE",
"361 689 CURVE SMOOTH",
"137 689 OFFCURVE",
"26 565 OFFCURVE",
"26 336 CURVE SMOOTH",
"26 107 OFFCURVE",
"132 -17 OFFCURVE",
"356 -17 CURVE SMOOTH"
);
}
);
width = 711;
},
{
anchors = (
{
name = bottom;
position = "{334, 0}";
},
{
name = top;
position = "{406, 690}";
}
);
background = {
paths = (
{
closed = 1;
nodes = (
"541 -18 OFFCURVE",
"623 71 OFFCURVE",
"659 241 CURVE",
"553 241 LINE",
"524 129 OFFCURVE",
"474 74 OFFCURVE",
"361 74 CURVE SMOOTH",
"219 74 OFFCURVE",
"151 165 OFFCURVE",
"151 346 CURVE SMOOTH",
"151 527 OFFCURVE",
"219 618 OFFCURVE",
"360 618 CURVE SMOOTH",
"473 618 OFFCURVE",
"522 563 OFFCURVE",
"551 451 CURVE",
"657 451 LINE",
"621 621 OFFCURVE",
"540 710 OFFCURVE",
"357 710 CURVE SMOOTH",
"158 710 OFFCURVE",
"43 581 OFFCURVE",
"43 346 CURVE SMOOTH",
"43 111 OFFCURVE",
"158 -18 OFFCURVE",
"358 -18 CURVE SMOOTH"
);
}
);
};
layerId = "161FAF72-C4C5-4DCB-BDD5-17E2433CDCDE";
paths = (
{
closed = 1;
nodes = (
"516 -18 OFFCURVE",
"603 71 OFFCURVE",
"653 241 CURVE",
"547 241 LINE",
"514 129 OFFCURVE",
"456 74 OFFCURVE",
"342 74 CURVE SMOOTH",
"221 74 OFFCURVE",
"162 150 OFFCURVE",
"162 277 CURVE SMOOTH",
"162 464 OFFCURVE",
"231 618 OFFCURVE",
"403 618 CURVE SMOOTH",
"523 618 OFFCURVE",
"561 563 OFFCURVE",
"579 451 CURVE",
"685 451 LINE",
"662 621 OFFCURVE",
"583 710 OFFCURVE",
"407 710 CURVE SMOOTH",
"181 710 OFFCURVE",
"54 514 OFFCURVE",
"54 269 CURVE SMOOTH",
"54 92 OFFCURVE",
"158 -18 OFFCURVE",
"332 -18 CURVE SMOOTH"
);
}
);
width = 689;
}
);
leftMetricsKey = "=O";
unicode = 0043;
},
{
color = 4;
glyphname = D;
lastChange = "2017-11-08 14:07:52 +0000";
layers = (
{
anchors = (
{
name = top;
position = "{381, 690}";
}
);
background = {
anchors = (
{
name = top;
position = "{350, 690}";
}
);
paths = (
{
closed = 1;
nodes = (
"402 0 LINE SMOOTH",
"613 0 OFFCURVE",
"715 114 OFFCURVE",
"715 345 CURVE SMOOTH",
"715 578 OFFCURVE",
"612 690 OFFCURVE",
"412 690 CURVE SMOOTH",
"69 690 LINE",
"69 0 LINE"
);
},
{
closed = 1;
nodes = (
"284 176 LINE",
"284 514 LINE",
"367 514 LINE SMOOTH",
"446 514 OFFCURVE",
"491 464 OFFCURVE",
"491 345 CURVE SMOOTH",
"491 226 OFFCURVE",
"446 176 OFFCURVE",
"367 176 CURVE SMOOTH"
);
}
);
};
layerId = "4208D53D-8B52-43BA-A51E-290EEDFDCE51";
paths = (
{
closed = 1;
nodes = (
"341 0 LINE SMOOTH",
"596 0 OFFCURVE",
"711 157 OFFCURVE",
"711 411 CURVE SMOOTH",
"711 592 OFFCURVE",
"600 690 OFFCURVE",
"423 690 CURVE SMOOTH",
"123 690 LINE",
"1 0 LINE"
);
},
{
closed = 1;
nodes = (
"254 176 LINE",
"314 514 LINE",
"377 514 LINE SMOOTH",
"461 514 OFFCURVE",
"487 471 OFFCURVE",
"487 385 CURVE SMOOTH",
"487 280 OFFCURVE",
"454 176 OFFCURVE",
"347 176 CURVE SMOOTH"
);
}
);
width = 725;
},
{
anchors = (
{
name = top;
position = "{375, 690}";
}
);
background = {
anchors = (
{
name = top;
position = "{325, 690}";
}
);
paths = (
{
closed = 1;
nodes = (
"384 0 LINE SMOOTH",
"553 0 OFFCURVE",
"643 107 OFFCURVE",
"643 345 CURVE SMOOTH",
"643 583 OFFCURVE",
"553 690 OFFCURVE",
"384 690 CURVE SMOOTH",
"113 690 LINE",
"113 0 LINE"
);
},
{
closed = 1;
nodes = (
"132 17 LINE",
"132 673 LINE",
"383 673 LINE SMOOTH",
"541 673 OFFCURVE",
"623 574 OFFCURVE",
"623 345 CURVE SMOOTH",
"623 116 OFFCURVE",
"541 17 OFFCURVE",
"383 17 CURVE SMOOTH"
);
}
);
};
layerId = "C0254B35-3FF0-4514-8990-BC8C3A6FFAB6";
paths = (
{
closed = 1;
nodes = (
"305 0 LINE SMOOTH",
"540 0 OFFCURVE",
"644 186 OFFCURVE",
"644 418 CURVE SMOOTH",
"644 587 OFFCURVE",
"564 690 OFFCURVE",
"395 690 CURVE SMOOTH",
"174 690 LINE",
"52 0 LINE"
);
},
{
closed = 1;
nodes = (
"74 17 LINE",
"190 673 LINE",
"394 673 LINE SMOOTH",
"554 673 OFFCURVE",
"624 576 OFFCURVE",
"624 416 CURVE SMOOTH",
"624 198 OFFCURVE",
"529 17 OFFCURVE",
"305 17 CURVE SMOOTH"
);
}
);
width = 681;
},
{
anchors = (
{
name = top;
position = "{363, 690}";
}
);
background = {
paths = (
{
closed = 1;
nodes = (
"377 0 LINE SMOOTH",
"564 0 OFFCURVE",
"659 109 OFFCURVE",
"659 345 CURVE SMOOTH",
"659 581 OFFCURVE",
"564 690 OFFCURVE",
"381 690 CURVE SMOOTH",
"77 690 LINE",
"77 0 LINE"
);
},
{
closed = 1;
nodes = (
"182 88 LINE",
"182 602 LINE",
"373 602 LINE SMOOTH",
"485 602 OFFCURVE",
"552 524 OFFCURVE",
"552 345 CURVE SMOOTH",
"552 166 OFFCURVE",
"485 88 OFFCURVE",
"373 88 CURVE SMOOTH"
);
}
);
};
guideLines = (
{
angle = 80;
position = "{129, -40}";
}
);
layerId = "161FAF72-C4C5-4DCB-BDD5-17E2433CDCDE";
paths = (
{
closed = 1;
nodes = (
"285 0 LINE SMOOTH",
"544 0 OFFCURVE",
"665 176 OFFCURVE",
"665 412 CURVE SMOOTH",
"665 589 OFFCURVE",
"558 690 OFFCURVE",
"402 690 CURVE SMOOTH",
"153 690 LINE",
"31 0 LINE"
);
},
{
closed = 1;
nodes = (
"152 88 LINE",
"242 602 LINE",
"377 602 LINE SMOOTH",
"495 602 OFFCURVE",
"557 535 OFFCURVE",
"557 403 CURVE SMOOTH",
"557 220 OFFCURVE",
"471 88 OFFCURVE",
"297 88 CURVE SMOOTH"
);
}
);
width = 691;
}
);
leftMetricsKey = "=H";
rightMetricsKey = O;
unicode = 0044;
},
{
color = 4;
glyphname = E;
lastChange = "2017-11-08 11:06:57 +0000";
layers = (
{
anchors = (
{
name = ogonek;
position = "{432, 0}";
},
{
name = top;
position = "{376, 690}";
}
);
background = {
anchors = (
{
name = ogonek;
position = "{497, 0}";
},
{
name = top;
position = "{326, 690}";
}
);
paths = (
{
closed = 1;
nodes = (
"587 690 LINE",
"82 690 LINE",
"82 0 LINE",
"587 0 LINE",
"587 179 LINE",
"282 179 LINE",
"282 262 LINE",
"551 262 LINE",
"551 429 LINE",
"282 429 LINE",
"282 511 LINE",
"587 511 LINE"
);
}
);
};
layerId = "4208D53D-8B52-43BA-A51E-290EEDFDCE51";
paths = (
{
closed = 1;
nodes = (
"638 690 LINE",
"123 690 LINE",
"1 0 LINE",
"516 0 LINE",
"548 179 LINE",
"253 179 LINE",
"267 262 LINE",
"526 262 LINE",
"556 429 LINE",
"297 429 LINE",
"311 511 LINE",
"606 511 LINE"
);
}
);
width = 595;
},
{
anchors = (
{
name = ogonek;
position = "{450, 0}";
},
{
name = top;
position = "{373, 690}";
}
);
background = {
anchors = (
{
name = ogonek;
position = "{521, 0}";
},
{
name = top;
position = "{320, 690}";
}
);
paths = (
{
closed = 1;
nodes = (
"528 690 LINE",
"113 690 LINE",
"113 0 LINE",
"528 0 LINE",
"528 18 LINE",
"132 18 LINE",
"132 344 LINE",
"490 344 LINE",
"490 362 LINE",
"132 362 LINE",
"132 672 LINE",
"528 672 LINE"
);
}
);
};
layerId = "C0254B35-3FF0-4514-8990-BC8C3A6FFAB6";
paths = (
{
closed = 1;
nodes = (
"579 690 LINE",
"174 690 LINE",
"52 0 LINE",
"457 0 LINE",
"460 18 LINE",
"74 18 LINE",
"132 344 LINE",
"480 344 LINE",
"483 362 LINE",
"135 362 LINE",
"190 672 LINE",
"576 672 LINE"
);
}
);
width = 537;
},
{
anchors = (
{
name = ogonek;
position = "{435, 0}";
},
{
name = top;
position = "{374, 690}";
}
);
background = {
paths = (
{
closed = 1;
nodes = (
"532 690 LINE",
"77 690 LINE",
"77 0 LINE",
"532 0 LINE",
"532 90 LINE",
"180 90 LINE",
"180 305 LINE",
"496 305 LINE",
"496 394 LINE",
"180 394 LINE",
"180 600 LINE",
"532 600 LINE"
);
}
);
};
layerId = "161FAF72-C4C5-4DCB-BDD5-17E2433CDCDE";
paths = (
{
closed = 1;
nodes = (
"597 690 LINE",
"153 690 LINE",
"31 0 LINE",
"475 0 LINE",
"491 90 LINE",
"152 90 LINE",
"190 305 LINE",
"495 305 LINE",
"511 394 LINE",
"206 394 LINE",
"242 600 LINE",
"581 600 LINE"
);
}
);
width = 554;
}
);
leftMetricsKey = "=H";
unicode = 0045;
},
{
color = 4;
glyphname = F;
lastChange = "2017-11-08 14:08:11 +0000";
layers = (
{
background = {
paths = (
{
closed = 1;
nodes = (
"557 690 LINE",
"62 690 LINE",
"62 0 LINE",
"284 0 LINE",
"284 229 LINE",
"521 229 LINE",
"521 406 LINE",
"284 406 LINE",
"284 506 LINE",
"557 506 LINE"
);
}
);
};
layerId = "4208D53D-8B52-43BA-A51E-290EEDFDCE51";
paths = (
{
closed = 1;
nodes = (
"608 690 LINE",
"115 690 LINE",
"-7 0 LINE",
"223 0 LINE",
"264 229 LINE",
"491 229 LINE",
"522 406 LINE",
"295 406 LINE",
"312 506 LINE",
"575 506 LINE"
);
}
);
width = 551;
},
{
background = {
paths = (
{
closed = 1;
nodes = (
"528 690 LINE",
"113 690 LINE",
"113 0 LINE",
"132 0 LINE",
"132 344 LINE",
"500 344 LINE",
"500 362 LINE",
"132 362 LINE",
"132 672 LINE",
"528 672 LINE"
);
}
);
};
layerId = "C0254B35-3FF0-4514-8990-BC8C3A6FFAB6";
paths = (
{
closed = 1;
nodes = (
"579 690 LINE",
"174 690 LINE",
"52 0 LINE",
"71 0 LINE",
"132 344 LINE",
"490 344 LINE",
"493 362 LINE",
"135 362 LINE",
"190 672 LINE",
"576 672 LINE"
);
}
);
width = 523;
},
{
background = {
paths = (
{
closed = 1;
nodes = (
"475 690 LINE",
"31 690 LINE",
"31 0 LINE",
"138 0 LINE",
"138 294 LINE",
"444 294 LINE",
"444 384 LINE",
"138 384 LINE",
"138 600 LINE",
"475 600 LINE"
);
}
);
};
layerId = "161FAF72-C4C5-4DCB-BDD5-17E2433CDCDE";
paths = (
{
closed = 1;
nodes = (
"586 690 LINE",
"153 690 LINE",
"31 0 LINE",
"138 0 LINE",
"190 294 LINE",
"484 294 LINE",
"500 384 LINE",
"206 384 LINE",
"244 600 LINE",
"570 600 LINE"
);
}
);
width = 536;
}
);
leftMetricsKey = "=H";
unicode = 0046;
},
{
color = 4;
glyphname = G;
lastChange = "2017-11-08 12:53:12 +0000";
layers = (
{
anchors = (
{
name = bottom;
position = "{343, -15}";
},
{
name = top;
position = "{431, 690}";
}
);
background = {
paths = (
{
closed = 1;
nodes = (
"433 -15 OFFCURVE",
"506 31 OFFCURVE",
"523 141 CURVE",
"509 151 LINE",
"533 0 LINE",
"690 0 LINE",
"690 392 LINE",
"359 392 LINE",
"359 261 LINE",
"497 261 LINE",
"497 259 LINE SMOOTH",
"497 191 OFFCURVE",
"451 159 OFFCURVE",
"381 159 CURVE SMOOTH",
"287 159 OFFCURVE",
"248 216 OFFCURVE",
"248 346 CURVE SMOOTH",
"248 472 OFFCURVE",
"286 529 OFFCURVE",
"373 529 CURVE SMOOTH",
"432 529 OFFCURVE",
"460 504 OFFCURVE",
"472 442 CURVE",
"693 442 LINE",
"664 634 OFFCURVE",
"568 710 OFFCURVE",
"367 710 CURVE SMOOTH",
"145 710 OFFCURVE",
"21 586 OFFCURVE",
"21 346 CURVE SMOOTH",
"21 108 OFFCURVE",
"138 -15 OFFCURVE",
"319 -15 CURVE SMOOTH"
);
}
);
};
layerId = "4208D53D-8B52-43BA-A51E-290EEDFDCE51";
paths = (
{
closed = 1;
nodes = (
"397 -15 OFFCURVE",
"463 31 OFFCURVE",
"500 141 CURVE",
"487 151 LINE",
"485 0 LINE",
"642 0 LINE",
"711 392 LINE",
"390 392 LINE",
"367 261 LINE",
"495 261 LINE",
"493 251 LINE SMOOTH",
"482 194 OFFCURVE",
"445 159 OFFCURVE",
"376 159 CURVE SMOOTH",
"302 159 OFFCURVE",
"264 204 OFFCURVE",
"264 282 CURVE SMOOTH",
"264 351 OFFCURVE",
"276 529 OFFCURVE",
"403 529 CURVE SMOOTH",
"467 529 OFFCURVE",
"491 499 OFFCURVE",
"497 442 CURVE",
"718 442 LINE",
"708 604 OFFCURVE",
"630 710 OFFCURVE",
"419 710 CURVE SMOOTH",
"146 710 OFFCURVE",
"37 481 OFFCURVE",
"37 262 CURVE SMOOTH",
"37 92 OFFCURVE",
"131 -15 OFFCURVE",
"283 -15 CURVE SMOOTH"
);
}
);
width = 721;
},
{
associatedMasterId = "4208D53D-8B52-43BA-A51E-290EEDFDCE51";
background = {
paths = (
{
closed = 1;
nodes = (
"452 -17 OFFCURVE",
"508 72 OFFCURVE",
"508 236 CURVE",
"686 284 LINE",
"450 284 LINE",
"450 265 LINE SMOOTH",
"450 203 OFFCURVE",
"422 173 OFFCURVE",
"358 173 CURVE SMOOTH",
"285 173 OFFCURVE",
"255 222 OFFCURVE",
"255 336 CURVE SMOOTH",
"255 450 OFFCURVE",
"285 499 OFFCURVE",
"358 499 CURVE SMOOTH",
"407 499 OFFCURVE",
"434 482 OFFCURVE",
"449 432 CURVE SMOOTH",
"453 419 LINE",
"684 419 LINE",
"676 461 LINE SMOOTH",
"648 609 OFFCURVE",
"537 689 OFFCURVE",
"360 689 CURVE SMOOTH",
"136 689 OFFCURVE",
"25 565 OFFCURVE",
"25 336 CURVE SMOOTH",
"25 116 OFFCURVE",
"119 -17 OFFCURVE",
"307 -17 CURVE SMOOTH"
);
},
{
closed = 1;
nodes = (
"686 284 LINE",
"485 284 LINE",
"476 194 LINE",
"511 0 LINE",
"686 0 LINE"
);
},
{
closed = 1;
nodes = (
"360 255 LINE",
"686 255 LINE",
"686 377 LINE",
"360 377 LINE"
);
}
);
};
layerId = "901F36A8-12F9-4F24-81C0-E803C7127841";
name = "Jun 6 17, 18:43";
paths = (
{
closed = 1;
nodes = (
"452 -17 OFFCURVE",
"508 72 OFFCURVE",
"508 236 CURVE",
"686 284 LINE",
"450 284 LINE",
"450 265 LINE SMOOTH",
"450 203 OFFCURVE",
"422 173 OFFCURVE",
"358 173 CURVE SMOOTH",
"285 173 OFFCURVE",
"255 222 OFFCURVE",
"255 336 CURVE SMOOTH",
"255 450 OFFCURVE",
"285 499 OFFCURVE",
"358 499 CURVE SMOOTH",
"407 499 OFFCURVE",
"434 482 OFFCURVE",
"449 432 CURVE SMOOTH",
"453 419 LINE",
"684 419 LINE",
"676 461 LINE SMOOTH",
"648 609 OFFCURVE",
"537 689 OFFCURVE",
"360 689 CURVE SMOOTH",
"136 689 OFFCURVE",
"25 565 OFFCURVE",
"25 336 CURVE SMOOTH",
"25 116 OFFCURVE",
"119 -17 OFFCURVE",
"307 -17 CURVE SMOOTH"
);
},
{
closed = 1;
nodes = (
"686 284 LINE",
"485 284 LINE",
"476 194 LINE",
"511 0 LINE",
"686 0 LINE"
);
},
{
closed = 1;
nodes = (
"360 255 LINE",
"686 255 LINE",
"686 377 LINE",
"360 377 LINE"
);
}
);
width = 716;
},
{
anchors = (
{
name = bottom;
position = "{329, 0}";
},
{
name = top;
position = "{408, 690}";
}
);
background = {
paths = (
{
closed = 1;
nodes = (
"517 -18 OFFCURVE",
"608 68 OFFCURVE",
"620 221 CURVE",
"612 221 LINE",
"615 0 LINE",
"630 0 LINE",
"630 336 LINE",
"342 336 LINE",
"342 317 LINE",
"611 317 LINE",
"611 285 LINE SMOOTH",
"611 123 OFFCURVE",
"542 1 OFFCURVE",
"361 1 CURVE SMOOTH",
"185 1 OFFCURVE",
"77 114 OFFCURVE",
"77 346 CURVE SMOOTH",
"77 578 OFFCURVE",
"188 692 OFFCURVE",
"365 692 CURVE SMOOTH",
"498 692 OFFCURVE",
"570 633 OFFCURVE",
"604 513 CURVE",
"623 513 LINE",
"587 646 OFFCURVE",
"503 710 OFFCURVE",
"365 710 CURVE SMOOTH",
"179 710 OFFCURVE",
"57 590 OFFCURVE",
"57 346 CURVE SMOOTH",
"57 102 OFFCURVE",
"175 -18 OFFCURVE",
"361 -18 CURVE SMOOTH"
);
}
);
};
layerId = "C0254B35-3FF0-4514-8990-BC8C3A6FFAB6";
paths = (
{
closed = 1;
nodes = (
"467 -18 OFFCURVE",
"561 68 OFFCURVE",
"602 221 CURVE",
"594 221 LINE",
"558 0 LINE",
"573 0 LINE",
"632 336 LINE",
"350 336 LINE",
"347 317 LINE",
"610 317 LINE",
"604 285 LINE SMOOTH",
"574 123 OFFCURVE",
"491 1 OFFCURVE",
"310 1 CURVE SMOOTH",
"168 1 OFFCURVE",
"83 80 OFFCURVE",
"83 242 CURVE SMOOTH",
"83 446 OFFCURVE",
"166 692 OFFCURVE",
"409 692 CURVE SMOOTH",
"552 692 OFFCURVE",
"610 633 OFFCURVE",
"637 513 CURVE",
"656 513 LINE",
"629 646 OFFCURVE",
"557 710 OFFCURVE",
"409 710 CURVE SMOOTH",
"157 710 OFFCURVE",
"63 459 OFFCURVE",
"63 242 CURVE SMOOTH",
"63 68 OFFCURVE",
"159 -18 OFFCURVE",
"311 -18 CURVE SMOOTH"
);
}
);
width = 686;
},
{
associatedMasterId = "C0254B35-3FF0-4514-8990-BC8C3A6FFAB6";
background = {
paths = (
{
closed = 1;
nodes = (
"479 -17 OFFCURVE",
"547 36 OFFCURVE",
"592 159 CURVE SMOOTH",
"607 200 LINE",
"586 200 LINE",
"574 166 LINE SMOOTH",
"533 51 OFFCURVE",
"470 1 OFFCURVE",
"344 1 CURVE SMOOTH",
"171 1 OFFCURVE",
"72 111 OFFCURVE",
"72 336 CURVE SMOOTH",
"72 561 OFFCURVE",
"171 671 OFFCURVE",
"344 671 CURVE SMOOTH",
"467 671 OFFCURVE",
"528 621 OFFCURVE",
"569 506 CURVE SMOOTH",
"581 472 LINE",
"602 472 LINE",
"587 513 LINE SMOOTH",
"542 636 OFFCURVE",
"476 689 OFFCURVE",
"344 689 CURVE SMOOTH",
"161 689 OFFCURVE",
"52 573 OFFCURVE",
"52 336 CURVE SMOOTH",
"52 99 OFFCURVE",
"161 -17 OFFCURVE",
"344 -17 CURVE SMOOTH"
);
}
);
};
guideLines = (
{
angle = 106.8214;
position = "{553, 481}";
}
);
layerId = "8C04508A-1AA0-45D0-931D-C432C6F13D9C";
name = "Light Jul 25 17, 13:06";
paths = (
{
closed = 1;
nodes = (
"600 308 LINE",
"600 61 LINE",
"607 78 LINE",
"555 32 OFFCURVE",
"478 1 OFFCURVE",
"358 1 CURVE SMOOTH",
"177 1 OFFCURVE",
"72 105 OFFCURVE",
"72 336 CURVE SMOOTH",
"72 567 OFFCURVE",
"177 671 OFFCURVE",
"355 671 CURVE SMOOTH",
"480 671 OFFCURVE",
"557 623 OFFCURVE",
"591 506 CURVE SMOOTH",
"601 472 LINE",
"621 472 LINE",
"608 513 LINE SMOOTH",
"568 638 OFFCURVE",
"489 689 OFFCURVE",
"355 689 CURVE SMOOTH",
"167 689 OFFCURVE",
"52 579 OFFCURVE",
"52 336 CURVE SMOOTH",
"52 93 OFFCURVE",
"167 -17 OFFCURVE",
"358 -17 CURVE SMOOTH",
"481 -17 OFFCURVE",
"561 16 OFFCURVE",
"619 64 CURVE",
"619 326 LINE",
"327 326 LINE",
"327 308 LINE"
);
}
);
width = 687;
},
{
associatedMasterId = "C0254B35-3FF0-4514-8990-BC8C3A6FFAB6";
background = {
paths = (
{
closed = 1;
nodes = (
"467 671 OFFCURVE",
"528 621 OFFCURVE",
"569 506 CURVE SMOOTH",
"581 472 LINE",
"602 472 LINE",
"587 513 LINE SMOOTH",
"542 636 OFFCURVE",
"476 689 OFFCURVE",
"344 689 CURVE SMOOTH",
"161 689 OFFCURVE",
"52 573 OFFCURVE",
"52 336 CURVE SMOOTH",
"52 99 OFFCURVE",
"161 -17 OFFCURVE",
"346 -17 CURVE SMOOTH",
"464 -17 OFFCURVE",
"540 16 OFFCURVE",
"599 64 CURVE",
"599 326 LINE",
"307 326 LINE",
"307 308 LINE",
"580 308 LINE",
"580 61 LINE",
"587 78 LINE",
"534 32 OFFCURVE",
"461 1 OFFCURVE",
"346 1 CURVE SMOOTH",
"171 1 OFFCURVE",
"72 111 OFFCURVE",
"72 336 CURVE SMOOTH",
"72 561 OFFCURVE",
"171 671 OFFCURVE",
"344 671 CURVE SMOOTH"
);
}
);
};
guideLines = (
{
angle = 106.8214;
position = "{542, 481}";
}
);
layerId = "5CDBFAFA-57DB-4B70-834E-E6F8464422A7";
name = "Light Jul 25 17, 16:06";
paths = (
{
closed = 1;
nodes = (
"464 671 OFFCURVE",
"528 620 OFFCURVE",
"563 521 CURVE SMOOTH",
"575 487 LINE",
"596 487 LINE",
"581 528 LINE SMOOTH",
"542 635 OFFCURVE",
"473 689 OFFCURVE",
"344 689 CURVE SMOOTH",
"161 689 OFFCURVE",
"52 573 OFFCURVE",
"52 336 CURVE SMOOTH",
"52 99 OFFCURVE",
"161 -17 OFFCURVE",
"346 -17 CURVE SMOOTH",
"464 -17 OFFCURVE",
"540 16 OFFCURVE",
"599 64 CURVE",
"599 326 LINE",
"307 326 LINE",
"307 308 LINE",
"580 308 LINE",
"580 61 LINE",
"587 78 LINE",
"534 32 OFFCURVE",
"461 1 OFFCURVE",
"346 1 CURVE SMOOTH",
"171 1 OFFCURVE",
"72 111 OFFCURVE",
"72 336 CURVE SMOOTH",
"72 561 OFFCURVE",
"171 671 OFFCURVE",
"344 671 CURVE SMOOTH"
);
}
);
width = 668;
},
{
associatedMasterId = "C0254B35-3FF0-4514-8990-BC8C3A6FFAB6";
background = {
paths = (
{
closed = 1;
nodes = (
"522 -17 OFFCURVE",
"603 93 OFFCURVE",
"599 257 CURVE",
"590 277 LINE",
"590 120 OFFCURVE",
"523 1 OFFCURVE",
"347 1 CURVE SMOOTH",
"177 1 OFFCURVE",
"72 111 OFFCURVE",
"72 336 CURVE SMOOTH",
"72 561 OFFCURVE",
"180 671 OFFCURVE",
"350 671 CURVE SMOOTH",
"464 671 OFFCURVE",
"538 620 OFFCURVE",
"573 521 CURVE SMOOTH",
"585 487 LINE",
"606 487 LINE",
"591 528 LINE SMOOTH",
"552 635 OFFCURVE",
"470 689 OFFCURVE",
"350 689 CURVE SMOOTH",
"170 689 OFFCURVE",
"52 573 OFFCURVE",
"52 336 CURVE SMOOTH",
"52 99 OFFCURVE",
"167 -17 OFFCURVE",
"347 -17 CURVE SMOOTH"
);
},
{
closed = 1;
nodes = (
"609 0 LINE",
"609 326 LINE",
"326 326 LINE",
"326 308 LINE",
"590 308 LINE",
"590 210 LINE",
"594 0 LINE"
);
}
);
};
guideLines = (
{
angle = 106.8214;
position = "{548, 481}";
},
{
angle = 109.44;
position = "{584, 498}";
},
{
angle = 110.0952;
position = "{604, 498}";
}
);
layerId = "6F6DF635-EE65-4A2B-8098-92B0DAA5A3F7";
name = "Light Jul 25 17, 17:15";
paths = (
{
closed = 1;
nodes = (
"522 -17 OFFCURVE",
"603 93 OFFCURVE",
"599 257 CURVE",
"590 277 LINE",
"590 120 OFFCURVE",
"523 1 OFFCURVE",
"347 1 CURVE SMOOTH",
"177 1 OFFCURVE",
"72 111 OFFCURVE",
"72 336 CURVE SMOOTH",
"72 561 OFFCURVE",
"180 671 OFFCURVE",
"350 671 CURVE SMOOTH",
"462 671 OFFCURVE",
"540 623 OFFCURVE",
"572 532 CURVE SMOOTH",
"584 498 LINE",
"604 498 LINE",
"592 532 LINE SMOOTH",
"556 635 OFFCURVE",
"469 689 OFFCURVE",
"350 689 CURVE SMOOTH",
"170 689 OFFCURVE",
"52 573 OFFCURVE",
"52 336 CURVE SMOOTH",
"52 99 OFFCURVE",
"167 -17 OFFCURVE",
"347 -17 CURVE SMOOTH"
);
},
{
closed = 1;
nodes = (
"609 0 LINE",
"609 326 LINE",
"326 326 LINE",
"326 308 LINE",
"590 308 LINE",
"590 210 LINE",
"594 0 LINE"
);
}
);
width = 675;
},
{
associatedMasterId = "4208D53D-8B52-43BA-A51E-290EEDFDCE51";
background = {
paths = (
{
closed = 1;
nodes = (
"457 -17 OFFCURVE",
"511 76 OFFCURVE",
"495 179 CURVE",
"473 251 LINE",
"473 179 OFFCURVE",
"430 159 OFFCURVE",
"370 159 CURVE SMOOTH",
"280 159 OFFCURVE",
"250 210 OFFCURVE",
"250 336 CURVE SMOOTH",
"250 453 OFFCURVE",
"280 503 OFFCURVE",
"363 503 CURVE SMOOTH",
"409 503 OFFCURVE",
"434 486 OFFCURVE",
"445 442 CURVE SMOOTH",
"449 427 LINE",
"676 427 LINE",
"668 466 LINE SMOOTH",
"638 614 OFFCURVE",
"546 689 OFFCURVE",
"360 689 CURVE SMOOTH",
"136 689 OFFCURVE",
"25 565 OFFCURVE",
"25 336 CURVE SMOOTH",
"25 113 OFFCURVE",
"129 -17 OFFCURVE",
"307 -17 CURVE SMOOTH"
);
},
{
closed = 1;
nodes = (
"672 0 LINE",
"672 382 LINE",
"349 382 LINE",
"349 252 LINE",
"473 252 LINE",
"489 157 LINE",
"515 0 LINE"
);
}
);
};
layerId = "31D2FA1E-D0F1-4F27-B853-BBB6A5128AAA";
name = "Jul 26 17, 16:15";
paths = (
{
closed = 1;
nodes = (
"423 -17 OFFCURVE",
"494 38 OFFCURVE",
"505 136 CURVE",
"509 179 LINE",
"473 251 LINE",
"473 179 OFFCURVE",
"430 159 OFFCURVE",
"370 159 CURVE SMOOTH",
"280 159 OFFCURVE",
"250 210 OFFCURVE",
"250 336 CURVE SMOOTH",
"250 453 OFFCURVE",
"280 503 OFFCURVE",
"363 503 CURVE SMOOTH",
"409 503 OFFCURVE",
"434 486 OFFCURVE",
"445 442 CURVE SMOOTH",
"449 427 LINE",
"676 427 LINE",
"668 466 LINE SMOOTH",
"638 614 OFFCURVE",
"546 689 OFFCURVE",
"360 689 CURVE SMOOTH",
"136 689 OFFCURVE",
"25 565 OFFCURVE",
"25 336 CURVE SMOOTH",
"25 114 OFFCURVE",
"112 -17 OFFCURVE",
"309 -17 CURVE SMOOTH"
);
},
{
closed = 1;
nodes = (
"672 0 LINE",
"672 382 LINE",
"349 382 LINE",
"349 252 LINE",
"473 252 LINE",
"489 157 LINE",
"515 0 LINE"
);
}
);
width = 706;
},
{
anchors = (
{
name = bottom;
position = "{336, 0}";
},
{
name = top;
position = "{408, 690}";
}
);
background = {
paths = (
{
closed = 1;
nodes = (
"505 -16 OFFCURVE",
"585 47 OFFCURVE",
"606 166 CURVE",
"586 166 LINE",
"600 0 LINE",
"675 0 LINE",
"675 371 LINE",
"369 371 LINE",
"369 290 LINE",
"584 290 LINE",
"584 275 LINE SMOOTH",
"584 153 OFFCURVE",
"524 71 OFFCURVE",
"385 71 CURVE SMOOTH",
"249 71 OFFCURVE",
"171 158 OFFCURVE",
"171 346 CURVE SMOOTH",
"171 536 OFFCURVE",
"250 623 OFFCURVE",
"386 623 CURVE SMOOTH",
"489 623 OFFCURVE",
"547 579 OFFCURVE",
"569 483 CURVE",
"672 483 LINE",
"638 640 OFFCURVE",
"544 710 OFFCURVE",
"384 710 CURVE SMOOTH",
"185 710 OFFCURVE",
"63 591 OFFCURVE",
"63 344 CURVE SMOOTH",
"63 114 OFFCURVE",
"173 -16 OFFCURVE",
"370 -16 CURVE SMOOTH"
);
}
);
};
layerId = "161FAF72-C4C5-4DCB-BDD5-17E2433CDCDE";
paths = (
{
closed = 1;
nodes = (
"436 -20 OFFCURVE",
"521 47 OFFCURVE",
"563 166 CURVE",
"543 166 LINE",
"527 0 LINE",
"602 0 LINE",
"667 371 LINE",
"369 371 LINE",
"355 290 LINE",
"564 290 LINE",
"561 275 LINE SMOOTH",
"537 153 OFFCURVE",
"466 67 OFFCURVE",
"340 67 CURVE SMOOTH",
"222 67 OFFCURVE",
"162 146 OFFCURVE",
"162 279 CURVE SMOOTH",
"162 464 OFFCURVE",
"241 623 OFFCURVE",
"401 623 CURVE SMOOTH",
"516 623 OFFCURVE",
"564 579 OFFCURVE",
"583 483 CURVE",
"684 483 LINE",
"658 630 OFFCURVE",
"579 710 OFFCURVE",
"409 710 CURVE SMOOTH",
"181 710 OFFCURVE",
"54 507 OFFCURVE",
"54 267 CURVE SMOOTH",
"54 94 OFFCURVE",
"159 -20 OFFCURVE",
"319 -20 CURVE SMOOTH"
);
}
);
width = 702;
}
);
leftMetricsKey = "=O";
unicode = 0047;
},
{
color = 4;
glyphname = H;
lastChange = "2017-11-06 17:56:33 +0000";
layers = (
{
anchors = (
{
name = top;
position = "{451, 690}";
}
);
background = {
paths = (
{
closed = 1;
nodes = (
"483 439 LINE",
"278 439 LINE",
"278 690 LINE",
"48 690 LINE",
"48 0 LINE",
"278 0 LINE",
"278 255 LINE",
"483 255 LINE",
"483 0 LINE",
"713 0 LINE",
"713 690 LINE",
"483 690 LINE"
);
}
);
};
layerId = "4208D53D-8B52-43BA-A51E-290EEDFDCE51";
paths = (
{
closed = 1;
nodes = (
"504 439 LINE",
"309 439 LINE",
"353 690 LINE",
"123 690 LINE",
"1 0 LINE",
"231 0 LINE",
"276 255 LINE",
"471 255 LINE",
"426 0 LINE",
"656 0 LINE",
"778 690 LINE",
"548 690 LINE"
);
}
);
width = 752;
},
{
anchors = (
{
name = top;
position = "{403, 690}";
}
);
background = {
anchors = (
{
name = top;
position = "{331, 690}";
}
);
paths = (
{
closed = 1;
nodes = (
"556 360 LINE",
"116 360 LINE",
"116 690 LINE",
"97 690 LINE",
"97 0 LINE",
"116 0 LINE",
"116 342 LINE",
"556 342 LINE",
"556 0 LINE",
"575 0 LINE",
"575 690 LINE",
"556 690 LINE"
);
}
);
};
layerId = "C0254B35-3FF0-4514-8990-BC8C3A6FFAB6";
paths = (
{
closed = 1;
nodes = (
"565 360 LINE",
"135 360 LINE",
"193 690 LINE",
"174 690 LINE",
"52 0 LINE",
"71 0 LINE",
"131 342 LINE",
"561 342 LINE",
"501 0 LINE",
"520 0 LINE",
"642 690 LINE",
"623 690 LINE"
);
}
);
width = 663;
},
{
anchors = (
{
name = top;
position = "{420, 690}";
}
);
background = {
paths = (
{
closed = 1;
nodes = (
"479 395 LINE",
"138 395 LINE",
"138 690 LINE",
"31 690 LINE",
"31 0 LINE",
"138 0 LINE",
"138 305 LINE",
"479 305 LINE",
"479 0 LINE",
"586 0 LINE",
"586 690 LINE",
"479 690 LINE"
);
}
);
};
guideLines = (
{
angle = 80;
position = "{468, 0}";
}
);
layerId = "161FAF72-C4C5-4DCB-BDD5-17E2433CDCDE";
paths = (
{
closed = 1;
nodes = (
"538 395 LINE",
"208 395 LINE",
"259 690 LINE",
"152 690 LINE",
"31 0 LINE",
"138 0 LINE",
"192 305 LINE",
"522 305 LINE",
"468 0 LINE",
"575 0 LINE",
"697 690 LINE",
"590 690 LINE"
);
}
);
width = 699;
}
);
unicode = 0048;
},
{
color = 4;
glyphname = I;
lastChange = "2017-11-04 13:21:23 +0000";
layers = (
{
anchors = (
{
name = bottom;
position = "{117, 0}";
},
{
name = ogonek;
position = "{141, 0}";
},
{
name = top;
position = "{239, 690}";
}
);
background = {
anchors = (
{
name = ogonek;
position = "{219, 0}";
},
{
name = top;
position = "{272, 710}";
}
);
paths = (
{
closed = 1;
nodes = (
"260 0 LINE",
"385 710 LINE",
"165 710 LINE",
"40 0 LINE"
);
}
);
};
layerId = "4208D53D-8B52-43BA-A51E-290EEDFDCE51";
paths = (
{
closed = 1;
nodes = (
"231 0 LINE",
"353 690 LINE",
"123 690 LINE",
"1 0 LINE"
);
}
);
width = 327;
},
{
anchors = (
{
name = bottom;
position = "{61, 0}";
},
{
name = ogonek;
position = "{64, 0}";
},
{
name = top;
position = "{184, 690}";
}
);
background = {
anchors = (
{
name = bottom;
position = "{122, 0}";
},
{
name = ogonek;
position = "{125, 0}";
},
{
name = top;
position = "{123, 690}";
}
);
paths = (
{
closed = 1;
nodes = (
"132 0 LINE",
"132 690 LINE",
"113 690 LINE",
"113 0 LINE"
);
}
);
};
layerId = "C0254B35-3FF0-4514-8990-BC8C3A6FFAB6";
paths = (
{
closed = 1;
nodes = (
"71 0 LINE",
"193 690 LINE",
"174 690 LINE",
"52 0 LINE"
);
}
);
width = 214;
},
{
anchors = (
{
name = bottom;
position = "{87, 0}";
},
{
name = ogonek;
position = "{98, 0}";
},
{
name = top;
position = "{205, 690}";
}
);
background = {
anchors = (
{
name = bottom;
position = "{87, 0}";
},
{
name = ogonek;
position = "{98, 0}";
},
{
name = top;
position = "{224, 690}";
}
);
paths = (
{
closed = 1;
nodes = (
"138 0 LINE",
"274 690 LINE",
"167 690 LINE",
"31 0 LINE"
);
}
);
};
guideLines = (
{
angle = 80;
position = "{23, -40}";
}
);
layerId = "161FAF72-C4C5-4DCB-BDD5-17E2433CDCDE";
paths = (
{
closed = 1;
nodes = (
"138 0 LINE",
"259 690 LINE",
"152 690 LINE",
"31 0 LINE"
);
}
);
width = 261;
}
);
leftMetricsKey = "=H";
rightMetricsKey = "=H";
unicode = 0049;
},
{
color = 4;
glyphname = J;
lastChange = "2017-11-06 17:08:04 +0000";
layers = (
{
anchors = (
{
name = top;
position = "{572, 690}";
}
);
background = {
anchors = (
{
name = top;
position = "{510, 690}";
}
);
paths = (
{
closed = 1;
nodes = (
"514 -18 OFFCURVE",
"629 80 OFFCURVE",
"629 270 CURVE SMOOTH",
"629 690 LINE",
"399 690 LINE",
"399 248 LINE SMOOTH",
"399 196 OFFCURVE",
"378 165 OFFCURVE",
"322 165 CURVE SMOOTH",
"264 165 OFFCURVE",
"238 189 OFFCURVE",
"227 253 CURVE",
"11 253 LINE",
"34 57 OFFCURVE",
"139 -18 OFFCURVE",
"327 -18 CURVE SMOOTH"
);
}
);
};
layerId = "4208D53D-8B52-43BA-A51E-290EEDFDCE51";
paths = (
{
closed = 1;
nodes = (
"497 -18 OFFCURVE",
"579 80 OFFCURVE",
"612 270 CURVE SMOOTH",
"686 690 LINE",
"456 690 LINE",
"378 248 LINE SMOOTH",
"368 191 OFFCURVE",
"348 165 OFFCURVE",
"296 165 CURVE SMOOTH",
"238 165 OFFCURVE",
"221 196 OFFCURVE",
"217 253 CURVE",
"2 253 LINE",
"2 67 OFFCURVE",
"92 -18 OFFCURVE",
"295 -18 CURVE SMOOTH"
);
}
);
width = 644;
},
{
associatedMasterId = "4208D53D-8B52-43BA-A51E-290EEDFDCE51";
background = {
paths = (
{
closed = 1;
nodes = (
"524 -18 OFFCURVE",
"615 75 OFFCURVE",
"615 202 CURVE SMOOTH",
"615 332 OFFCURVE",
"559 391 OFFCURVE",
"427 410 CURVE SMOOTH",
"336 423 LINE SMOOTH",
"285 430 OFFCURVE",
"268 443 OFFCURVE",
"268 466 CURVE SMOOTH",
"268 501 OFFCURVE",
"290 515 OFFCURVE",
"329 515 CURVE SMOOTH",
"370 515 OFFCURVE",
"385 499 OFFCURVE",
"391 477 CURVE SMOOTH",
"396 460 LINE",
"606 460 LINE",
"596 505 LINE SMOOTH",
"574 604 OFFCURVE",
"511 682 OFFCURVE",
"324 682 CURVE SMOOTH",
"143 682 OFFCURVE",
"53 591 OFFCURVE",
"53 459 CURVE SMOOTH",
"53 328 OFFCURVE",
"118 278 OFFCURVE",
"249 254 CURVE SMOOTH",
"341 237 LINE SMOOTH",
"382 229 OFFCURVE",
"400 222 OFFCURVE",
"400 192 CURVE SMOOTH",
"400 160 OFFCURVE",
"377 149 OFFCURVE",
"336 149 CURVE SMOOTH",
"291 149 OFFCURVE",
"272 160 OFFCURVE",
"264 187 CURVE SMOOTH",
"258 206 LINE",
"44 206 LINE",
"53 164 LINE SMOOTH",
"80 38 OFFCURVE",
"168 -18 OFFCURVE",
"338 -18 CURVE SMOOTH"
);
}
);
};
layerId = "771AA9A0-9D8C-46DF-840A-DA1E76FFDEBD";
name = "Jun 6 17, 21:39";
paths = (
{
closed = 1;
nodes = (
"266 165 OFFCURVE",
"241 185 OFFCURVE",
"223 261 CURVE SMOOTH",
"218 282 LINE",
"2 282 LINE",
"5 261 LINE SMOOTH",
"35 49 OFFCURVE",
"153 -17 OFFCURVE",
"322 -17 CURVE SMOOTH",
"517 -17 OFFCURVE",
"630 78 OFFCURVE",
"630 264 CURVE SMOOTH",
"630 670 LINE",
"400 670 LINE",
"400 249 LINE SMOOTH",
"400 189 OFFCURVE",
"372 165 OFFCURVE",
"321 165 CURVE SMOOTH"
);
}
);
width = 660;
},
{
anchors = (
{
name = top;
position = "{505, 690}";
}
);
background = {
anchors = (
{
name = top;
position = "{443, 690}";
}
);
paths = (
{
closed = 1;
nodes = (
"380 -18 OFFCURVE",
"453 63 OFFCURVE",
"453 200 CURVE SMOOTH",
"453 690 LINE",
"433 690 LINE",
"433 200 LINE SMOOTH",
"433 74 OFFCURVE",
"368 1 OFFCURVE",
"257 1 CURVE SMOOTH",
"136 1 OFFCURVE",
"74 68 OFFCURVE",
"38 206 CURVE",
"19 206 LINE",
"55 60 OFFCURVE",
"125 -18 OFFCURVE",
"257 -18 CURVE SMOOTH"
);
}
);
};
layerId = "C0254B35-3FF0-4514-8990-BC8C3A6FFAB6";
paths = (
{
closed = 1;
nodes = (
"338 -18 OFFCURVE",
"405 63 OFFCURVE",
"429 200 CURVE SMOOTH",
"515 690 LINE",
"495 690 LINE",
"409 200 LINE SMOOTH",
"387 74 OFFCURVE",
"329 1 OFFCURVE",
"205 1 CURVE SMOOTH",
"90 1 OFFCURVE",
"34 71 OFFCURVE",
"20 206 CURVE",
"1 206 LINE",
"13 63 OFFCURVE",
"78 -18 OFFCURVE",
"205 -18 CURVE SMOOTH"
);
}
);
width = 507;
},
{
associatedMasterId = "C0254B35-3FF0-4514-8990-BC8C3A6FFAB6";
background = {
paths = (
{
closed = 1;
nodes = (
"122 1 OFFCURVE",
"64 62 OFFCURVE",
"32 200 CURVE",
"12 200 LINE",
"45 54 OFFCURVE",
"110 -17 OFFCURVE",
"241 -17 CURVE SMOOTH",
"343 -17 OFFCURVE",
"438 43 OFFCURVE",
"438 199 CURVE SMOOTH",
"438 670 LINE",
"418 670 LINE",
"418 199 LINE SMOOTH",
"418 57 OFFCURVE",
"334 1 OFFCURVE",
"241 1 CURVE SMOOTH"
);
}
);
};
layerId = "92A3686E-3DC7-40E3-9533-614C05F98EF6";
name = "Jul 26 17, 13:17";
paths = (
{
closed = 1;
nodes = (
"119 1 OFFCURVE",
"58 62 OFFCURVE",
"26 200 CURVE",
"6 200 LINE",
"39 54 OFFCURVE",
"107 -17 OFFCURVE",
"241 -17 CURVE SMOOTH",
"343 -17 OFFCURVE",
"438 43 OFFCURVE",
"438 194 CURVE SMOOTH",
"438 670 LINE",
"418 670 LINE",
"418 194 LINE SMOOTH",
"418 57 OFFCURVE",
"334 1 OFFCURVE",
"241 1 CURVE SMOOTH"
);
}
);
width = 504;
},
{
anchors = (
{
name = top;
position = "{540, 690}";
}
);
background = {
paths = (
{
closed = 1;
nodes = (
"428 -18 OFFCURVE",
"519 70 OFFCURVE",
"519 229 CURVE SMOOTH",
"519 690 LINE",
"412 690 LINE",
"412 220 LINE SMOOTH",
"412 125 OFFCURVE",
"365 69 OFFCURVE",
"276 69 CURVE SMOOTH",
"183 69 OFFCURVE",
"135 119 OFFCURVE",
"109 225 CURVE",
"8 225 LINE",
"39 58 OFFCURVE",
"123 -18 OFFCURVE",
"279 -18 CURVE SMOOTH"
);
}
);
};
guideLines = (
{
angle = 80;
position = "{355, -40}";
}
);
layerId = "161FAF72-C4C5-4DCB-BDD5-17E2433CDCDE";
paths = (
{
closed = 1;
nodes = (
"395 -18 OFFCURVE",
"479 60 OFFCURVE",
"509 229 CURVE SMOOTH",
"591 690 LINE",
"484 690 LINE",
"401 220 LINE SMOOTH",
"384 125 OFFCURVE",
"343 69 OFFCURVE",
"247 69 CURVE SMOOTH",
"157 69 OFFCURVE",
"125 129 OFFCURVE",
"109 225 CURVE",
"8 225 LINE",
"28 58 OFFCURVE",
"106 -18 OFFCURVE",
"249 -18 CURVE SMOOTH"
);
}
);
width = 583;
}
);
rightMetricsKey = "=U";
unicode = 004A;
},
{
color = 4;
glyphname = K;
lastChange = "2017-11-08 11:35:09 +0000";
layers = (
{
anchors = (
{
name = bottom;
position = "{320, 0}";
}
);
background = {
paths = (
{
closed = 1;
nodes = (
"726 0 LINE",
"513 345 LINE",
"726 690 LINE",
"477 690 LINE",
"275 345 LINE",
"477 0 LINE"
);
},
{
closed = 1;
nodes = (
"287 0 LINE",
"287 690 LINE",
"74 690 LINE",
"74 0 LINE"
);
}
);
};
layerId = "4208D53D-8B52-43BA-A51E-290EEDFDCE51";
paths = (
{
closed = 1;
nodes = (
"655 0 LINE",
"503 343 LINE",
"777 690 LINE",
"537 690 LINE",
"275 345 LINE",
"425 0 LINE"
);
},
{
closed = 1;
nodes = (
"226 0 LINE",
"348 690 LINE",
"123 690 LINE",
"1 0 LINE"
);
}
);
width = 704;
},
{
anchors = (
{
name = bottom;
position = "{242, 0}";
}
);
background = {
anchors = (
{
name = bottom;
position = "{303, 0}";
}
);
paths = (
{
closed = 1;
nodes = (
"548 0 LINE",
"157 345 LINE",
"548 690 LINE",
"519 690 LINE",
"129 345 LINE",
"519 0 LINE"
);
},
{
closed = 1;
nodes = (
"132 0 LINE",
"132 690 LINE",
"113 690 LINE",
"113 0 LINE"
);
}
);
};
layerId = "C0254B35-3FF0-4514-8990-BC8C3A6FFAB6";
paths = (
{
closed = 1;
nodes = (
"477 0 LINE",
"156 344 LINE",
"599 690 LINE",
"571 690 LINE",
"129 345 LINE",
"453 0 LINE"
);
},
{
closed = 1;
nodes = (
"71 0 LINE",
"193 690 LINE",
"174 690 LINE",
"52 0 LINE"
);
}
);
width = 540;
},
{
anchors = (
{
name = bottom;
position = "{275, 0}";
}
);
background = {
paths = (
{
closed = 1;
nodes = (
"621 0 LINE",
"306 345 LINE",
"621 690 LINE",
"487 690 LINE",
"177 345 LINE",
"487 0 LINE"
);
},
{
closed = 1;
nodes = (
"184 0 LINE",
"184 690 LINE",
"77 690 LINE",
"77 0 LINE"
);
}
);
};
layerId = "161FAF72-C4C5-4DCB-BDD5-17E2433CDCDE";
paths = (
{
closed = 1;
nodes = (
"564 0 LINE",
"321 342 LINE",
"686 690 LINE",
"557 690 LINE",
"193 345 LINE",
"443 0 LINE"
);
},
{
closed = 1;
nodes = (
"138 0 LINE",
"259 690 LINE",
"153 690 LINE",
"31 0 LINE"
);
}
);
width = 615;
}
);
leftMetricsKey = "=H";
unicode = 004B;
},
{
color = 4;
glyphname = L;
lastChange = "2017-11-08 13:35:18 +0000";
layers = (
{
anchors = (
{
name = bottom;
position = "{247, 0}";
},
{
name = periodcentered;
position = "{457, 370}";
},
{
name = top;
position = "{236, 690}";
},
{
name = topright;
position = "{454, 464}";
}
);
background = {
anchors = (
{
name = bottom;
position = "{308, 0}";
},
{
name = periodcentered;
position = "{453, 370}";
},
{
name = top;
position = "{175, 690}";
},
{
name = topright;
position = "{413, 464}";
}
);
paths = (
{
closed = 1;
nodes = (
"292 690 LINE",
"62 690 LINE",
"62 0 LINE",
"546 0 LINE",
"546 192 LINE",
"292 192 LINE"
);
}
);
};
layerId = "4208D53D-8B52-43BA-A51E-290EEDFDCE51";
paths = (
{
closed = 1;
nodes = (
"353 690 LINE",
"123 690 LINE",
"1 0 LINE",
"475 0 LINE",
"509 192 LINE",
"265 192 LINE"
);
}
);
width = 542;
},
{
anchors = (
{
name = bottom;
position = "{249, 0}";
},
{
name = periodcentered;
position = "{380, 370}";
},
{
name = top;
position = "{184, 690}";
},
{
name = topright;
position = "{346, 464}";
}
);
background = {
anchors = (
{
name = bottom;
position = "{310, 0}";
},
{
name = periodcentered;
position = "{376, 370}";
},
{
name = top;
position = "{123, 690}";
},
{
name = topright;
position = "{325, 464}";
}
);
paths = (
{
closed = 1;
nodes = (
"132 690 LINE",
"113 690 LINE",
"113 0 LINE",
"518 0 LINE",
"518 18 LINE",
"132 18 LINE"
);
}
);
};
layerId = "C0254B35-3FF0-4514-8990-BC8C3A6FFAB6";
paths = (
{
closed = 1;
nodes = (
"193 690 LINE",
"174 690 LINE",
"52 0 LINE",
"447 0 LINE",
"450 18 LINE",
"74 18 LINE"
);
}
);
width = 501;
},
{
anchors = (
{
name = bottom;
position = "{248, 0}";
},
{
name = periodcentered;
position = "{404, 370}";
},
{
name = top;
position = "{207, 690}";
},
{
name = topright;
position = "{362, 464}";
}
);
background = {
paths = (
{
closed = 1;
nodes = (
"184 690 LINE",
"77 690 LINE",
"77 0 LINE",
"515 0 LINE",
"515 90 LINE",
"184 90 LINE"
);
}
);
};
layerId = "161FAF72-C4C5-4DCB-BDD5-17E2433CDCDE";
paths = (
{
closed = 1;
nodes = (
"260 690 LINE",
"153 690 LINE",
"31 0 LINE",
"458 0 LINE",
"474 90 LINE",
"154 90 LINE"
);
}
);
width = 517;
}
);
leftMetricsKey = "=H";
unicode = 004C;
},
{
color = 4;
glyphname = M;
lastChange = "2017-11-06 12:25:43 +0000";
layers = (
{
background = {
paths = (
{
closed = 1;
nodes = (
"580 690 LINE",
"467 188 LINE",
"487 188 LINE",
"372 690 LINE",
"57 690 LINE",
"57 0 LINE",
"255 0 LINE",
"255 549 LINE",
"245 548 LINE",
"376 0 LINE",
"577 0 LINE",
"708 548 LINE",
"698 549 LINE",
"698 0 LINE",
"886 0 LINE",
"886 690 LINE"
);
}
);
};
layerId = "4208D53D-8B52-43BA-A51E-290EEDFDCE51";
paths = (
{
closed = 1;
nodes = (
"627 690 LINE",
"437 188 LINE",
"457 188 LINE",
"438 690 LINE",
"123 690 LINE",
"1 0 LINE",
"199 0 LINE",
"296 549 LINE",
"286 548 LINE",
"315 0 LINE",
"516 0 LINE",
"739 548 LINE",
"729 549 LINE",
"632 0 LINE",
"820 0 LINE",
"942 690 LINE"
);
}
);
width = 916;
},
{
associatedMasterId = "4208D53D-8B52-43BA-A51E-290EEDFDCE51";
background = {
paths = (
{
closed = 1;
nodes = (
"855 0 LINE",
"855 670 LINE",
"667 670 LINE",
"667 0 LINE"
);
},
{
closed = 1;
nodes = (
"243 0 LINE",
"243 670 LINE",
"45 670 LINE",
"45 0 LINE"
);
},
{
closed = 1;
nodes = (
"505 0 LINE",
"360 670 LINE",
"200 670 LINE",
"355 0 LINE"
);
},
{
closed = 1;
nodes = (
"710 670 LINE",
"549 670 LINE",
"405 0 LINE",
"555 0 LINE"
);
}
);
};
layerId = "785CF618-3E67-42F1-8440-6813E4D9B30A";
name = "Bold Apr 21 17, 17:28";
paths = (
{
closed = 1;
nodes = (
"855 0 LINE",
"855 670 LINE",
"667 670 LINE",
"667 0 LINE"
);
},
{
closed = 1;
nodes = (
"243 0 LINE",
"243 670 LINE",
"45 670 LINE",
"45 0 LINE"
);
},
{
closed = 1;
nodes = (
"505 0 LINE",
"360 670 LINE",
"200 670 LINE",
"355 0 LINE"
);
},
{
closed = 1;
nodes = (
"710 670 LINE",
"549 670 LINE",
"405 0 LINE",
"555 0 LINE"
);
}
);
width = 900;
},
{
associatedMasterId = "C0254B35-3FF0-4514-8990-BC8C3A6FFAB6";
layerId = "04D71F9F-EB93-4435-B5C5-002A08FE9E15";
width = 770;
},
{
associatedMasterId = "C0254B35-3FF0-4514-8990-BC8C3A6FFAB6";
layerId = "AD6FC2FA-2EB8-45C1-B085-BFBA8772E4FC";
width = 770;
},
{
associatedMasterId = "C0254B35-3FF0-4514-8990-BC8C3A6FFAB6";
layerId = "867E26CA-DB46-4B06-89A9-7DC5B1CD1CE0";
width = 770;
},
{
associatedMasterId = "C0254B35-3FF0-4514-8990-BC8C3A6FFAB6";
layerId = "A62C257A-B832-4977-ABCD-11949182E640";
width = 770;
},
{
associatedMasterId = "C0254B35-3FF0-4514-8990-BC8C3A6FFAB6";
layerId = "8EFCAF06-98D4-4F7D-B966-A4ECDF7B4187";
width = 770;
},
{
background = {
paths = (
{
closed = 1;
nodes = (
"743 690 LINE",
"434 9 LINE",
"445 9 LINE",
"136 690 LINE",
"108 690 LINE",
"108 0 LINE",
"127 0 LINE",
"127 681 LINE",
"120 681 LINE",
"428 0 LINE",
"451 0 LINE",
"759 681 LINE",
"752 681 LINE",
"752 0 LINE",
"771 0 LINE",
"771 690 LINE"
);
}
);
};
layerId = "C0254B35-3FF0-4514-8990-BC8C3A6FFAB6";
paths = (
{
closed = 1;
nodes = (
"799 690 LINE",
"374 9 LINE",
"384 9 LINE",
"200 690 LINE",
"174 690 LINE",
"52 0 LINE",
"71 0 LINE",
"191 681 LINE",
"184 681 LINE",
"367 0 LINE",
"390 0 LINE",
"815 681 LINE",
"806 681 LINE",
"686 0 LINE",
"705 0 LINE",
"827 690 LINE"
);
}
);
width = 848;
},
{
associatedMasterId = "C0254B35-3FF0-4514-8990-BC8C3A6FFAB6";
layerId = "C82DA40F-2981-4810-AC25-AFADA74BED9A";
width = 770;
},
{
background = {
paths = (
{
closed = 1;
nodes = (
"655 690 LINE",
"432 84 LINE",
"461 84 LINE",
"238 690 LINE",
"77 690 LINE",
"77 0 LINE",
"179 0 LINE",
"179 626 LINE",
"160 626 LINE",
"390 0 LINE",
"503 0 LINE",
"733 626 LINE",
"714 626 LINE",
"714 0 LINE",
"816 0 LINE",
"816 690 LINE"
);
}
);
};
layerId = "161FAF72-C4C5-4DCB-BDD5-17E2433CDCDE";
paths = (
{
closed = 1;
nodes = (
"716 690 LINE",
"392 84 LINE",
"420 84 LINE",
"308 690 LINE",
"153 690 LINE",
"31 0 LINE",
"133 0 LINE",
"243 626 LINE",
"224 626 LINE",
"339 0 LINE",
"451 0 LINE",
"787 626 LINE",
"768 626 LINE",
"657 0 LINE",
"759 0 LINE",
"881 690 LINE"
);
}
);
width = 883;
}
);
leftMetricsKey = "=H";
rightMetricsKey = "=H";
unicode = 004D;
},
{
color = 4;
glyphname = N;
lastChange = "2017-11-08 12:54:01 +0000";
layers = (
{
anchors = (
{
name = bottom;
position = "{332, 0}";
},
{
name = top;
position = "{444, 690}";
}
);
background = {
anchors = (
{
name = bottom;
position = "{393, 0}";
},
{
name = top;
position = "{383, 690}";
}
);
paths = (
{
closed = 1;
nodes = (
"260 0 LINE",
"260 560 LINE",
"161 560 LINE",
"503 0 LINE",
"710 0 LINE",
"710 690 LINE",
"512 690 LINE",
"512 130 LINE",
"609 130 LINE",
"267 690 LINE",
"62 690 LINE",
"62 0 LINE"
);
}
);
};
layerId = "4208D53D-8B52-43BA-A51E-290EEDFDCE51";
paths = (
{
closed = 1;
nodes = (
"199 0 LINE",
"298 560 LINE",
"199 560 LINE",
"432 0 LINE",
"639 0 LINE",
"761 690 LINE",
"563 690 LINE",
"464 130 LINE",
"561 130 LINE",
"328 690 LINE",
"123 690 LINE",
"1 0 LINE"
);
}
);
width = 735;
},
{
anchors = (
{
name = bottom;
position = "{304, 0}";
},
{
name = top;
position = "{416, 690}";
}
);
background = {
anchors = (
{
name = bottom;
position = "{360, 0}";
},
{
name = top;
position = "{365, 690}";
}
);
paths = (
{
closed = 1;
nodes = (
"132 0 LINE",
"132 678 LINE",
"124 678 LINE",
"586 0 LINE",
"611 0 LINE",
"611 690 LINE",
"592 690 LINE",
"592 12 LINE",
"600 12 LINE",
"138 690 LINE",
"113 690 LINE",
"113 0 LINE"
);
}
);
};
layerId = "C0254B35-3FF0-4514-8990-BC8C3A6FFAB6";
paths = (
{
closed = 1;
nodes = (
"71 0 LINE",
"191 678 LINE",
"183 678 LINE",
"516 0 LINE",
"540 0 LINE",
"662 690 LINE",
"643 690 LINE",
"523 12 LINE",
"531 12 LINE",
"198 690 LINE",
"174 690 LINE",
"52 0 LINE"
);
}
);
width = 683;
},
{
anchors = (
{
name = bottom;
position = "{315, 0}";
},
{
name = top;
position = "{432, 690}";
}
);
background = {
paths = (
{
closed = 1;
nodes = (
"182 0 LINE",
"182 619 LINE",
"142 619 LINE",
"523 0 LINE",
"665 0 LINE",
"665 690 LINE",
"560 690 LINE",
"560 71 LINE",
"599 71 LINE",
"217 690 LINE",
"77 690 LINE",
"77 0 LINE"
);
}
);
};
layerId = "161FAF72-C4C5-4DCB-BDD5-17E2433CDCDE";
paths = (
{
closed = 1;
nodes = (
"134 0 LINE",
"243 619 LINE",
"205 619 LINE",
"466 0 LINE",
"598 0 LINE",
"720 690 LINE",
"617 690 LINE",
"507 71 LINE",
"546 71 LINE",
"285 690 LINE",
"153 690 LINE",
"31 0 LINE"
);
}
);
width = 722;
}
);
leftMetricsKey = "=H";
rightMetricsKey = "=H";
unicode = 004E;
},
{
color = 4;
glyphname = O;
lastChange = "2017-11-08 10:57:53 +0000";
layers = (
{
anchors = (
{
name = top;
position = "{436, 690}";
}
);
background = {
paths = (
{
closed = 1;
nodes = (
"606 -18 OFFCURVE",
"733 106 OFFCURVE",
"733 346 CURVE SMOOTH",
"733 586 OFFCURVE",
"606 710 OFFCURVE",
"382 710 CURVE SMOOTH",
"157 710 OFFCURVE",
"30 586 OFFCURVE",
"30 346 CURVE SMOOTH",
"30 106 OFFCURVE",
"157 -18 OFFCURVE",
"382 -18 CURVE SMOOTH"
);
},
{
closed = 1;
nodes = (
"298 166 OFFCURVE",
"261 221 OFFCURVE",
"261 346 CURVE SMOOTH",
"261 471 OFFCURVE",
"298 527 OFFCURVE",
"382 527 CURVE SMOOTH",
"465 527 OFFCURVE",
"502 471 OFFCURVE",
"502 346 CURVE SMOOTH",
"502 221 OFFCURVE",
"465 166 OFFCURVE",
"382 166 CURVE SMOOTH"
);
}
);
};
layerId = "4208D53D-8B52-43BA-A51E-290EEDFDCE51";
paths = (
{
closed = 1;
nodes = (
"599 -18 OFFCURVE",
"740 164 OFFCURVE",
"740 423 CURVE SMOOTH",
"740 606 OFFCURVE",
"624 710 OFFCURVE",
"424 710 CURVE SMOOTH",
"178 710 OFFCURVE",
"39 532 OFFCURVE",
"39 269 CURVE SMOOTH",
"39 86 OFFCURVE",
"155 -18 OFFCURVE",
"356 -18 CURVE SMOOTH"
);
},
{
closed = 1;
nodes = (
"296 166 OFFCURVE",
"269 207 OFFCURVE",
"269 292 CURVE SMOOTH",
"269 347 OFFCURVE",
"293 527 OFFCURVE",
"410 527 CURVE SMOOTH",
"483 527 OFFCURVE",
"510 486 OFFCURVE",
"510 401 CURVE SMOOTH",
"510 346 OFFCURVE",
"486 166 OFFCURVE",
"369 166 CURVE SMOOTH"
);
}
);
width = 751;
},
{
anchors = (
{
name = top;
position = "{417, 690}";
}
);
background = {
paths = (
{
closed = 1;
nodes = (
"543 -18 OFFCURVE",
"658 104 OFFCURVE",
"658 346 CURVE SMOOTH",
"658 588 OFFCURVE",
"543 710 OFFCURVE",
"356 710 CURVE SMOOTH",
"169 710 OFFCURVE",
"54 588 OFFCURVE",
"54 346 CURVE SMOOTH",
"54 104 OFFCURVE",
"169 -18 OFFCURVE",
"356 -18 CURVE SMOOTH"
);
},
{
closed = 1;
nodes = (
"179 0 OFFCURVE",
"74 116 OFFCURVE",
"74 346 CURVE SMOOTH",
"74 576 OFFCURVE",
"179 692 OFFCURVE",
"356 692 CURVE SMOOTH",
"533 692 OFFCURVE",
"638 576 OFFCURVE",
"638 346 CURVE SMOOTH",
"638 116 OFFCURVE",
"533 0 OFFCURVE",
"356 0 CURVE SMOOTH"
);
}
);
};
layerId = "C0254B35-3FF0-4514-8990-BC8C3A6FFAB6";
paths = (
{
closed = 1;
nodes = (
"561 -18 OFFCURVE",
"670 216 OFFCURVE",
"670 444 CURVE SMOOTH",
"670 620 OFFCURVE",
"567 710 OFFCURVE",
"415 710 CURVE SMOOTH",
"172 710 OFFCURVE",
"63 477 OFFCURVE",
"63 248 CURVE SMOOTH",
"63 72 OFFCURVE",
"166 -18 OFFCURVE",
"319 -18 CURVE SMOOTH"
);
},
{
closed = 1;
nodes = (
"175 1 OFFCURVE",
"83 83 OFFCURVE",
"83 248 CURVE SMOOTH",
"83 462 OFFCURVE",
"184 692 OFFCURVE",
"415 692 CURVE SMOOTH",
"558 692 OFFCURVE",
"650 609 OFFCURVE",
"650 444 CURVE SMOOTH",
"650 231 OFFCURVE",
"550 1 OFFCURVE",
"319 1 CURVE SMOOTH"
);
}
);
width = 702;
},
{
anchors = (
{
name = bottom;
position = "{344, 0}";
},
{
name = ogonek.round;
position = "{474, 0}";
},
{
name = top;
position = "{344, 670}";
}
);
associatedMasterId = "C0254B35-3FF0-4514-8990-BC8C3A6FFAB6";
background = {
paths = (
{
closed = 1;
nodes = (
"531 -17 OFFCURVE",
"640 93 OFFCURVE",
"640 336 CURVE SMOOTH",
"640 579 OFFCURVE",
"531 689 OFFCURVE",
"344 689 CURVE SMOOTH",
"157 689 OFFCURVE",
"48 579 OFFCURVE",
"48 336 CURVE SMOOTH",
"48 93 OFFCURVE",
"157 -17 OFFCURVE",
"344 -17 CURVE SMOOTH"
);
},
{
closed = 1;
nodes = (
"167 1 OFFCURVE",
"68 105 OFFCURVE",
"68 336 CURVE SMOOTH",
"68 567 OFFCURVE",
"167 671 OFFCURVE",
"344 671 CURVE SMOOTH",
"521 671 OFFCURVE",
"620 567 OFFCURVE",
"620 336 CURVE SMOOTH",
"620 105 OFFCURVE",
"521 1 OFFCURVE",
"344 1 CURVE SMOOTH"
);
}
);
};
layerId = "838783D8-11DF-46B0-A17F-203A2094AC10";
name = "Light Jul 25 17, 16:48";
paths = (
{
closed = 1;
nodes = (
"527 -17 OFFCURVE",
"636 99 OFFCURVE",
"636 336 CURVE SMOOTH",
"636 573 OFFCURVE",
"527 689 OFFCURVE",
"344 689 CURVE SMOOTH",
"161 689 OFFCURVE",
"52 573 OFFCURVE",
"52 336 CURVE SMOOTH",
"52 99 OFFCURVE",
"161 -17 OFFCURVE",
"344 -17 CURVE SMOOTH"
);
},
{
closed = 1;
nodes = (
"171 1 OFFCURVE",
"72 111 OFFCURVE",
"72 336 CURVE SMOOTH",
"72 561 OFFCURVE",
"171 671 OFFCURVE",
"344 671 CURVE SMOOTH",
"517 671 OFFCURVE",
"616 561 OFFCURVE",
"616 336 CURVE SMOOTH",
"616 111 OFFCURVE",
"517 1 OFFCURVE",
"344 1 CURVE SMOOTH"
);
}
);
width = 688;
},
{
anchors = (
{
name = bottom;
position = "{364, 0}";
},
{
name = ogonek.round;
position = "{475, 0}";
},
{
name = top;
position = "{364, 670}";
}
);
associatedMasterId = "4208D53D-8B52-43BA-A51E-290EEDFDCE51";
background = {
paths = (
{
closed = 1;
nodes = (
"582 -17 OFFCURVE",
"703 110 OFFCURVE",
"703 336 CURVE SMOOTH",
"703 563 OFFCURVE",
"582 689 OFFCURVE",
"364 689 CURVE SMOOTH",
"146 689 OFFCURVE",
"25 563 OFFCURVE",
"25 336 CURVE SMOOTH",
"25 110 OFFCURVE",
"146 -17 OFFCURVE",
"364 -17 CURVE SMOOTH"
);
},
{
closed = 1;
nodes = (
"290 173 OFFCURVE",
"255 222 OFFCURVE",
"255 336 CURVE SMOOTH",
"255 450 OFFCURVE",
"290 499 OFFCURVE",
"364 499 CURVE SMOOTH",
"438 499 OFFCURVE",
"473 450 OFFCURVE",
"473 336 CURVE SMOOTH",
"473 222 OFFCURVE",
"438 173 OFFCURVE",
"364 173 CURVE SMOOTH"
);
}
);
};
layerId = "86F2869F-BA38-49B4-8A49-A77729954B47";
name = "Jul 26 17, 16:01";
paths = (
{
closed = 1;
nodes = (
"582 -17 OFFCURVE",
"703 110 OFFCURVE",
"703 336 CURVE SMOOTH",
"703 563 OFFCURVE",
"582 689 OFFCURVE",
"364 689 CURVE SMOOTH",
"146 689 OFFCURVE",
"25 563 OFFCURVE",
"25 336 CURVE SMOOTH",
"25 110 OFFCURVE",
"146 -17 OFFCURVE",
"364 -17 CURVE SMOOTH"
);
},
{
closed = 1;
nodes = (
"290 173 OFFCURVE",
"255 222 OFFCURVE",
"255 336 CURVE SMOOTH",
"255 450 OFFCURVE",
"290 499 OFFCURVE",
"364 499 CURVE SMOOTH",
"438 499 OFFCURVE",
"473 450 OFFCURVE",
"473 336 CURVE SMOOTH",
"473 222 OFFCURVE",
"438 173 OFFCURVE",
"364 173 CURVE SMOOTH"
);
}
);
width = 728;
},
{
anchors = (
{
name = top;
position = "{423, 690}";
}
);
background = {
paths = (
{
closed = 1;
nodes = (
"563 -18 OFFCURVE",
"688 104 OFFCURVE",
"688 346 CURVE SMOOTH",
"688 588 OFFCURVE",
"563 710 OFFCURVE",
"366 710 CURVE SMOOTH",
"169 710 OFFCURVE",
"44 588 OFFCURVE",
"44 346 CURVE SMOOTH",
"44 104 OFFCURVE",
"169 -18 OFFCURVE",
"366 -18 CURVE SMOOTH"
);
},
{
closed = 1;
nodes = (
"228 74 OFFCURVE",
"152 159 OFFCURVE",
"152 346 CURVE SMOOTH",
"152 533 OFFCURVE",
"228 618 OFFCURVE",
"366 618 CURVE SMOOTH",
"504 618 OFFCURVE",
"580 533 OFFCURVE",
"580 346 CURVE SMOOTH",
"580 159 OFFCURVE",
"504 74 OFFCURVE",
"366 74 CURVE SMOOTH"
);
}
);
};
layerId = "161FAF72-C4C5-4DCB-BDD5-17E2433CDCDE";
paths = (
{
closed = 1;
nodes = (
"570 -20 OFFCURVE",
"698 171 OFFCURVE",
"698 421 CURVE SMOOTH",
"698 615 OFFCURVE",
"592 710 OFFCURVE",
"422 710 CURVE SMOOTH",
"183 710 OFFCURVE",
"55 521 OFFCURVE",
"55 271 CURVE SMOOTH",
"55 77 OFFCURVE",
"161 -20 OFFCURVE",
"331 -20 CURVE SMOOTH"
);
},
{
closed = 1;
nodes = (
"222 72 OFFCURVE",
"163 137 OFFCURVE",
"163 279 CURVE SMOOTH",
"163 469 OFFCURVE",
"245 618 OFFCURVE",
"415 618 CURVE SMOOTH",
"531 618 OFFCURVE",
"590 555 OFFCURVE",
"590 413 CURVE SMOOTH",
"590 223 OFFCURVE",
"508 72 OFFCURVE",
"338 72 CURVE SMOOTH"
);
}
);
width = 724;
}
);
unicode = 004F;
},
{
color = 4;
glyphname = P;
lastChange = "2017-11-06 16:47:58 +0000";
layers = (
{
background = {
paths = (
{
closed = 1;
nodes = (
"399 183 LINE SMOOTH",
"571 183 OFFCURVE",
"654 274 OFFCURVE",
"654 436 CURVE SMOOTH",
"654 600 OFFCURVE",
"571 690 OFFCURVE",
"409 690 CURVE SMOOTH",
"269 690 LINE",
"269 520 LINE",
"365 520 LINE SMOOTH",
"417 520 OFFCURVE",
"440 495 OFFCURVE",
"440 436 CURVE SMOOTH",
"440 378 OFFCURVE",
"417 353 OFFCURVE",
"365 353 CURVE SMOOTH",
"269 353 LINE",
"269 183 LINE"
);
},
{
closed = 1;
nodes = (
"287 0 LINE",
"287 690 LINE",
"87 690 LINE",
"87 0 LINE"
);
}
);
};
layerId = "4208D53D-8B52-43BA-A51E-290EEDFDCE51";
paths = (
{
closed = 1;
nodes = (
"362 183 LINE SMOOTH",
"556 183 OFFCURVE",
"663 282 OFFCURVE",
"663 475 CURVE SMOOTH",
"663 605 OFFCURVE",
"580 690 OFFCURVE",
"442 690 CURVE SMOOTH",
"330 690 LINE",
"300 520 LINE",
"378 520 LINE SMOOTH",
"431 520 OFFCURVE",
"451 495 OFFCURVE",
"451 456 CURVE SMOOTH",
"451 388 OFFCURVE",
"420 353 OFFCURVE",
"353 353 CURVE SMOOTH",
"270 353 LINE",
"240 183 LINE"
);
},
{
closed = 1;
nodes = (
"226 0 LINE",
"348 690 LINE",
"123 690 LINE",
"1 0 LINE"
);
}
);
width = 646;
},
{
background = {
paths = (
{
closed = 1;
nodes = (
"338 298 LINE SMOOTH",
"483 298 OFFCURVE",
"551 357 OFFCURVE",
"551 489 CURVE SMOOTH",
"551 628 OFFCURVE",
"483 690 OFFCURVE",
"338 690 CURVE SMOOTH",
"127 690 LINE",
"127 672 LINE",
"337 672 LINE SMOOTH",
"472 672 OFFCURVE",
"531 616 OFFCURVE",
"531 489 CURVE SMOOTH",
"531 369 OFFCURVE",
"472 316 OFFCURVE",
"337 316 CURVE SMOOTH",
"127 316 LINE",
"127 298 LINE"
);
},
{
closed = 1;
nodes = (
"132 0 LINE",
"132 690 LINE",
"113 690 LINE",
"113 0 LINE"
);
}
);
};
layerId = "C0254B35-3FF0-4514-8990-BC8C3A6FFAB6";
paths = (
{
closed = 1;
nodes = (
"331 298 LINE SMOOTH",
"497 298 OFFCURVE",
"571 383 OFFCURVE",
"571 524 CURVE SMOOTH",
"571 632 OFFCURVE",
"512 690 OFFCURVE",
"379 690 CURVE SMOOTH",
"188 690 LINE",
"185 672 LINE",
"379 672 LINE SMOOTH",
"503 672 OFFCURVE",
"551 622 OFFCURVE",
"551 524 CURVE SMOOTH",
"551 396 OFFCURVE",
"488 316 OFFCURVE",
"332 316 CURVE SMOOTH",
"122 316 LINE",
"119 298 LINE"
);
},
{
closed = 1;
nodes = (
"71 0 LINE",
"193 690 LINE",
"174 690 LINE",
"52 0 LINE"
);
}
);
width = 575;
},
{
background = {
paths = (
{
closed = 1;
nodes = (
"349 246 LINE SMOOTH",
"498 246 OFFCURVE",
"576 322 OFFCURVE",
"576 468 CURVE SMOOTH",
"576 614 OFFCURVE",
"498 690 OFFCURVE",
"349 690 CURVE SMOOTH",
"173 690 LINE",
"173 602 LINE",
"344 602 LINE SMOOTH",
"427 602 OFFCURVE",
"469 557 OFFCURVE",
"469 468 CURVE SMOOTH",
"469 379 OFFCURVE",
"427 334 OFFCURVE",
"344 334 CURVE SMOOTH",
"173 334 LINE",
"173 246 LINE"
);
},
{
closed = 1;
nodes = (
"184 0 LINE",
"184 690 LINE",
"77 690 LINE",
"77 0 LINE"
);
}
);
};
guideLines = (
{
angle = 80;
position = "{130, -40}";
}
);
layerId = "161FAF72-C4C5-4DCB-BDD5-17E2433CDCDE";
paths = (
{
closed = 1;
nodes = (
"359 246 LINE SMOOTH",
"534 246 OFFCURVE",
"626 348 OFFCURVE",
"626 498 CURVE SMOOTH",
"626 610 OFFCURVE",
"553 690 OFFCURVE",
"419 690 CURVE SMOOTH",
"248 690 LINE",
"232 602 LINE",
"397 602 LINE SMOOTH",
"484 602 OFFCURVE",
"519 567 OFFCURVE",
"519 491 CURVE SMOOTH",
"519 393 OFFCURVE",
"469 334 OFFCURVE",
"369 334 CURVE SMOOTH",
"184 334 LINE",
"168 246 LINE"
);
},
{
closed = 1;
nodes = (
"137 0 LINE",
"259 690 LINE",
"153 690 LINE",
"31 0 LINE"
);
}
);
width = 629;
}
);
leftMetricsKey = "=H";
unicode = 0050;
},
{
color = 4;
glyphname = Q;
lastChange = "2017-11-06 18:15:52 +0000";
layers = (
{
background = {
components = (
{
name = O;
}
);
paths = (
{
closed = 1;
nodes = (
"742 -51 LINE",
"629 135 LINE",
"591 174 LINE",
"524 289 LINE",
"324 289 LINE",
"410 136 LINE",
"446 101 LINE",
"542 -51 LINE"
);
}
);
};
components = (
{
name = O;
}
);
layerId = "4208D53D-8B52-43BA-A51E-290EEDFDCE51";
paths = (
{
closed = 1;
nodes = (
"722 -51 LINE",
"614 135 LINE",
"576 174 LINE",
"524 289 LINE",
"324 289 LINE",
"405 136 LINE",
"436 101 LINE",
"522 -51 LINE"
);
}
);
width = 751;
},
{
associatedMasterId = "4208D53D-8B52-43BA-A51E-290EEDFDCE51";
components = (
{
name = O;
}
);
layerId = "AD0EA1F6-69FF-49E5-8020-F56E7AE9B0CE";
name = "Jun 8 17, 17:27";
paths = (
{
closed = 1;
nodes = (
"555 -46 LINE",
"766 -46 LINE",
"542 281 LINE",
"331 281 LINE"
);
}
);
width = 728;
},
{
background = {
paths = (
{
closed = 1;
nodes = (
"643 -59 LINE",
"550 59 LINE",
"547 63 LINE",
"425 218 LINE",
"402 218 LINE",
"534 50 LINE",
"537 46 LINE",
"621 -59 LINE"
);
}
);
};
components = (
{
name = O;
}
);
layerId = "C0254B35-3FF0-4514-8990-BC8C3A6FFAB6";
paths = (
{
closed = 1;
nodes = (
"612 -59 LINE",
"527 67 LINE",
"522 74 LINE",
"424 218 LINE",
"402 218 LINE",
"509 62 LINE",
"514 54 LINE",
"591 -59 LINE"
);
}
);
width = 713;
},
{
associatedMasterId = "C0254B35-3FF0-4514-8990-BC8C3A6FFAB6";
background = {
components = (
{
name = O;
transform = "{1, 0, 0, 1, 4, 0}";
}
);
paths = (
{
closed = 1;
nodes = (
"631 -55 LINE",
"549 57 LINE",
"546 61 LINE",
"398 263 LINE",
"377 263 LINE",
"534 49 LINE",
"537 45 LINE",
"610 -55 LINE"
);
}
);
};
components = (
{
name = O;
transform = "{1, 0, 0, 1, 4, 0}";
}
);
layerId = "2E8F682A-B355-479D-A99A-42700FFAC9A0";
name = "Jul 26 17, 15:45";
paths = (
{
closed = 1;
nodes = (
"628 -56 LINE",
"539 56 LINE",
"536 60 LINE",
"422 203 LINE",
"399 203 LINE",
"523 48 LINE",
"526 44 LINE",
"606 -56 LINE"
);
}
);
width = 697;
},
{
background = {
paths = (
{
closed = 1;
nodes = (
"657 -59 LINE",
"545 94 LINE",
"528 110 LINE",
"426 248 LINE",
"323 248 LINE",
"443 85 LINE",
"460 69 LINE",
"554 -59 LINE"
);
}
);
};
components = (
{
name = O;
}
);
layerId = "161FAF72-C4C5-4DCB-BDD5-17E2433CDCDE";
paths = (
{
closed = 1;
nodes = (
"642 -59 LINE",
"549 90 LINE",
"530 110 LINE",
"453 248 LINE",
"353 248 LINE",
"449 85 LINE",
"466 69 LINE",
"542 -59 LINE"
);
}
);
width = 724;
}
);
leftMetricsKey = O;
unicode = 0051;
},
{
color = 4;
glyphname = R;
lastChange = "2017-11-08 12:54:22 +0000";
layers = (
{
anchors = (
{
name = bottom;
position = "{315, 0}";
},
{
name = top;
position = "{373, 690}";
}
);
background = {
anchors = (
{
name = bottom;
position = "{376, 0}";
},
{
name = top;
position = "{329, 690}";
}
);
paths = (
{
closed = 1;
nodes = (
"287 0 LINE",
"287 245 LINE",
"305 245 LINE SMOOTH",
"327 245 OFFCURVE",
"338 237 OFFCURVE",
"352 208 CURVE SMOOTH",
"456 0 LINE",
"703 0 LINE",
"573 234 LINE SMOOTH",
"542 290 OFFCURVE",
"521 302 OFFCURVE",
"448 305 CURVE",
"433 289 LINE",
"579 295 OFFCURVE",
"654 363 OFFCURVE",
"654 482 CURVE SMOOTH",
"654 605 OFFCURVE",
"584 690 OFFCURVE",
"413 690 CURVE SMOOTH",
"74 690 LINE",
"74 0 LINE"
);
},
{
closed = 1;
nodes = (
"287 526 LINE",
"365 526 LINE SMOOTH",
"416 526 OFFCURVE",
"440 500 OFFCURVE",
"440 450 CURVE SMOOTH",
"440 397 OFFCURVE",
"416 373 OFFCURVE",
"365 373 CURVE SMOOTH",
"287 373 LINE"
);
}
);
};
layerId = "4208D53D-8B52-43BA-A51E-290EEDFDCE51";
paths = (
{
closed = 1;
nodes = (
"226 0 LINE",
"269 245 LINE",
"282 245 LINE SMOOTH",
"304 245 OFFCURVE",
"313 237 OFFCURVE",
"323 208 CURVE SMOOTH",
"397 0 LINE",
"637 0 LINE",
"558 204 LINE SMOOTH",
"534 267 OFFCURVE",
"514 287 OFFCURVE",
"442 295 CURVE",
"435 279 LINE",
"584 285 OFFCURVE",
"670 361 OFFCURVE",
"670 501 CURVE SMOOTH",
"670 622 OFFCURVE",
"596 690 OFFCURVE",
"439 690 CURVE SMOOTH",
"123 690 LINE",
"1 0 LINE"
);
},
{
closed = 1;
nodes = (
"319 526 LINE",
"389 526 LINE SMOOTH",
"433 526 OFFCURVE",
"456 505 OFFCURVE",
"456 466 CURVE SMOOTH",
"456 409 OFFCURVE",
"427 373 OFFCURVE",
"365 373 CURVE SMOOTH",
"292 373 LINE"
);
}
);
width = 686;
},
{
associatedMasterId = "4208D53D-8B52-43BA-A51E-290EEDFDCE51";
background = {
paths = (
{
closed = 1;
nodes = (
"258 0 LINE",
"258 670 LINE",
"45 670 LINE",
"45 0 LINE"
);
},
{
closed = 1;
nodes = (
"240 369 LINE",
"240 235 LINE",
"364 235 LINE SMOOTH",
"532 235 OFFCURVE",
"613 320 OFFCURVE",
"613 446 CURVE SMOOTH",
"613 586 OFFCURVE",
"532 670 OFFCURVE",
"374 670 CURVE SMOOTH",
"240 670 LINE",
"240 500 LINE",
"330 500 LINE SMOOTH",
"377 500 OFFCURVE",
"399 480 OFFCURVE",
"399 435 CURVE SMOOTH",
"399 388 OFFCURVE",
"377 369 OFFCURVE",
"330 369 CURVE SMOOTH"
);
},
{
closed = 1;
nodes = (
"632 0 LINE",
"479 258 LINE",
"265 258 LINE",
"413 0 LINE"
);
}
);
};
layerId = "6412D3FF-2D54-4B82-9EA0-D0C8D1EBABA0";
name = "Jun 6 17, 19:09";
paths = (
{
closed = 1;
nodes = (
"258 0 LINE",
"258 670 LINE",
"45 670 LINE",
"45 0 LINE"
);
},
{
closed = 1;
nodes = (
"240 369 LINE",
"240 235 LINE",
"364 235 LINE SMOOTH",
"532 235 OFFCURVE",
"613 320 OFFCURVE",
"613 446 CURVE SMOOTH",
"613 586 OFFCURVE",
"532 670 OFFCURVE",
"374 670 CURVE SMOOTH",
"240 670 LINE",
"240 500 LINE",
"330 500 LINE SMOOTH",
"377 500 OFFCURVE",
"399 480 OFFCURVE",
"399 435 CURVE SMOOTH",
"399 388 OFFCURVE",
"377 369 OFFCURVE",
"330 369 CURVE SMOOTH"
);
},
{
closed = 1;
nodes = (
"632 0 LINE",
"479 258 LINE",
"265 258 LINE",
"413 0 LINE"
);
}
);
width = 634;
},
{
anchors = (
{
name = bottom;
position = "{269, 0}";
},
{
name = top;
position = "{346, 690}";
}
);
background = {
anchors = (
{
name = bottom;
position = "{327, 0}";
},
{
name = top;
position = "{294, 690}";
}
);
paths = (
{
closed = 1;
nodes = (
"132 0 LINE",
"132 317 LINE",
"281 317 LINE SMOOTH",
"349 317 OFFCURVE",
"378 296 OFFCURVE",
"433 211 CURVE SMOOTH",
"569 0 LINE",
"592 0 LINE",
"450 218 LINE SMOOTH",
"398 297 OFFCURVE",
"373 318 OFFCURVE",
"325 325 CURVE",
"313 317 LINE",
"466 317 OFFCURVE",
"538 371 OFFCURVE",
"538 506 CURVE SMOOTH",
"538 635 OFFCURVE",
"470 690 OFFCURVE",
"325 690 CURVE SMOOTH",
"113 690 LINE",
"113 0 LINE"
);
},
{
closed = 1;
nodes = (
"132 673 LINE",
"324 673 LINE SMOOTH",
"458 673 OFFCURVE",
"518 623 OFFCURVE",
"518 506 CURVE SMOOTH",
"518 386 OFFCURVE",
"458 335 OFFCURVE",
"324 335 CURVE SMOOTH",
"132 335 LINE"
);
}
);
};
layerId = "C0254B35-3FF0-4514-8990-BC8C3A6FFAB6";
paths = (
{
closed = 1;
nodes = (
"71 0 LINE",
"127 317 LINE",
"256 317 LINE SMOOTH",
"328 317 OFFCURVE",
"358 296 OFFCURVE",
"399 211 CURVE SMOOTH",
"501 0 LINE",
"521 0 LINE",
"415 218 LINE SMOOTH",
"377 297 OFFCURVE",
"349 323 OFFCURVE",
"298 325 CURVE",
"298 317 LINE",
"477 317 OFFCURVE",
"561 381 OFFCURVE",
"561 533 CURVE SMOOTH",
"561 636 OFFCURVE",
"501 690 OFFCURVE",
"376 690 CURVE SMOOTH",
"174 690 LINE",
"52 0 LINE"
);
},
{
closed = 1;
nodes = (
"190 673 LINE",
"375 673 LINE SMOOTH",
"490 673 OFFCURVE",
"541 626 OFFCURVE",
"541 532 CURVE SMOOTH",
"541 392 OFFCURVE",
"464 335 OFFCURVE",
"310 335 CURVE SMOOTH",
"130 335 LINE"
);
}
);
width = 583;
},
{
associatedMasterId = "C0254B35-3FF0-4514-8990-BC8C3A6FFAB6";
background = {
paths = (
{
closed = 1;
nodes = (
"113 0 LINE",
"113 314 LINE",
"252 314 LINE SMOOTH",
"306 314 OFFCURVE",
"333 297 OFFCURVE",
"369 242 CURVE SMOOTH",
"530 0 LINE",
"554 0 LINE",
"387 248 LINE SMOOTH",
"350 303 OFFCURVE",
"334 313 OFFCURVE",
"294 318 CURVE",
"299 313 LINE",
"445 313 OFFCURVE",
"517 363 OFFCURVE",
"517 494 CURVE SMOOTH",
"517 619 OFFCURVE",
"451 670 OFFCURVE",
"310 670 CURVE SMOOTH",
"94 670 LINE",
"94 0 LINE"
);
},
{
closed = 1;
nodes = (
"113 331 LINE",
"113 653 LINE",
"309 653 LINE SMOOTH",
"439 653 OFFCURVE",
"497 608 OFFCURVE",
"497 494 CURVE SMOOTH",
"497 380 OFFCURVE",
"439 331 OFFCURVE",
"309 331 CURVE SMOOTH"
);
}
);
};
layerId = "4228BA34-7A78-4049-95EA-EE5DCEF47AB9";
name = "Light Jul 25 17, 13:27";
paths = (
{
closed = 1;
nodes = (
"113 0 LINE",
"113 308 LINE",
"252 308 LINE SMOOTH",
"306 308 OFFCURVE",
"333 291 OFFCURVE",
"369 236 CURVE SMOOTH",
"530 0 LINE",
"554 0 LINE",
"387 242 LINE SMOOTH",
"350 297 OFFCURVE",
"334 307 OFFCURVE",
"294 312 CURVE",
"290 307 LINE",
"436 307 OFFCURVE",
"508 358 OFFCURVE",
"508 491 CURVE SMOOTH",
"508 616 OFFCURVE",
"442 670 OFFCURVE",
"301 670 CURVE SMOOTH",
"94 670 LINE",
"94 0 LINE"
);
},
{
closed = 1;
nodes = (
"113 325 LINE",
"113 653 LINE",
"300 653 LINE SMOOTH",
"430 653 OFFCURVE",
"488 605 OFFCURVE",
"488 491 CURVE SMOOTH",
"488 375 OFFCURVE",
"430 325 OFFCURVE",
"300 325 CURVE SMOOTH"
);
}
);
width = 568;
},
{
associatedMasterId = "4208D53D-8B52-43BA-A51E-290EEDFDCE51";
background = {
paths = (
{
closed = 1;
nodes = (
"258 0 LINE",
"258 230 LINE",
"264 230 LINE SMOOTH",
"281 230 OFFCURVE",
"289 225 OFFCURVE",
"298 209 CURVE SMOOTH",
"410 0 LINE",
"655 0 LINE",
"527 230 LINE SMOOTH",
"506 268 OFFCURVE",
"485 286 OFFCURVE",
"451 286 CURVE",
"449 274 LINE",
"558 292 OFFCURVE",
"613 361 OFFCURVE",
"613 463 CURVE SMOOTH",
"613 586 OFFCURVE",
"545 670 OFFCURVE",
"378 670 CURVE SMOOTH",
"45 670 LINE",
"45 0 LINE"
);
},
{
closed = 1;
nodes = (
"258 369 LINE",
"258 506 LINE",
"330 506 LINE SMOOTH",
"377 506 OFFCURVE",
"399 485 OFFCURVE",
"399 438 CURVE SMOOTH",
"399 391 OFFCURVE",
"377 369 OFFCURVE",
"330 369 CURVE SMOOTH"
);
}
);
};
guideLines = (
{
angle = 28.6175;
position = "{412, 149}";
showMeasurement = 1;
},
{
angle = 119.0969;
position = "{527, 230}";
}
);
layerId = "F18D922D-5C3B-4530-820D-BDAF542FC176";
name = "Jul 26 17, 16:59";
paths = (
{
closed = 1;
nodes = (
"258 0 LINE",
"258 230 LINE",
"264 230 LINE SMOOTH",
"281 230 OFFCURVE",
"289 225 OFFCURVE",
"298 209 CURVE SMOOTH",
"410 0 LINE",
"655 0 LINE",
"527 230 LINE SMOOTH",
"506 268 OFFCURVE",
"485 286 OFFCURVE",
"451 286 CURVE",
"449 274 LINE",
"558 292 OFFCURVE",
"613 361 OFFCURVE",
"613 463 CURVE SMOOTH",
"613 586 OFFCURVE",
"545 670 OFFCURVE",
"378 670 CURVE SMOOTH",
"45 670 LINE",
"45 0 LINE"
);
},
{
closed = 1;
nodes = (
"258 369 LINE",
"258 506 LINE",
"330 506 LINE SMOOTH",
"377 506 OFFCURVE",
"399 485 OFFCURVE",
"399 438 CURVE SMOOTH",
"399 391 OFFCURVE",
"377 369 OFFCURVE",
"330 369 CURVE SMOOTH"
);
}
);
width = 653;
},
{
anchors = (
{
name = bottom;
position = "{290, 0}";
},
{
name = top;
position = "{342, 690}";
}
);
background = {
paths = (
{
closed = 1;
nodes = (
"181 0 LINE",
"181 281 LINE",
"272 281 LINE SMOOTH",
"319 281 OFFCURVE",
"340 267 OFFCURVE",
"374 210 CURVE SMOOTH",
"499 0 LINE",
"621 0 LINE",
"479 233 LINE SMOOTH",
"439 299 OFFCURVE",
"418 313 OFFCURVE",
"359 318 CURVE",
"345 307 LINE",
"497 308 OFFCURVE",
"570 370 OFFCURVE",
"570 494 CURVE SMOOTH",
"570 622 OFFCURVE",
"501 690 OFFCURVE",
"343 690 CURVE SMOOTH",
"77 690 LINE",
"77 0 LINE"
);
},
{
closed = 1;
nodes = (
"181 606 LINE",
"334 606 LINE SMOOTH",
"423 606 OFFCURVE",
"466 567 OFFCURVE",
"466 485 CURVE SMOOTH",
"466 405 OFFCURVE",
"423 365 OFFCURVE",
"334 365 CURVE SMOOTH",
"181 365 LINE"
);
}
);
};
guideLines = (
{
angle = 80;
position = "{128, -40}";
}
);
layerId = "161FAF72-C4C5-4DCB-BDD5-17E2433CDCDE";
paths = (
{
closed = 1;
nodes = (
"135 0 LINE",
"185 281 LINE",
"274 281 LINE SMOOTH",
"319 281 OFFCURVE",
"346 267 OFFCURVE",
"369 210 CURVE SMOOTH",
"455 0 LINE",
"569 0 LINE",
"473 223 LINE SMOOTH",
"445 288 OFFCURVE",
"419 313 OFFCURVE",
"362 318 CURVE",
"360 307 LINE",
"536 308 OFFCURVE",
"615 379 OFFCURVE",
"615 527 CURVE SMOOTH",
"615 626 OFFCURVE",
"546 690 OFFCURVE",
"414 690 CURVE SMOOTH",
"153 690 LINE",
"31 0 LINE"
);
},
{
closed = 1;
nodes = (
"242 606 LINE",
"399 606 LINE SMOOTH",
"475 606 OFFCURVE",
"511 575 OFFCURVE",
"511 513 CURVE SMOOTH",
"511 419 OFFCURVE",
"466 365 OFFCURVE",
"359 365 CURVE SMOOTH",
"199 365 LINE"
);
}
);
width = 624;
},
{
anchors = (
{
name = bottom;
position = "{311, 0}";
},
{
name = top;
position = "{278, 690}";
}
);
associatedMasterId = "C0254B35-3FF0-4514-8990-BC8C3A6FFAB6";
background = {
paths = (
{
closed = 1;
nodes = (
"116 0 LINE",
"116 317 LINE",
"265 317 LINE SMOOTH",
"333 317 OFFCURVE",
"362 296 OFFCURVE",
"417 211 CURVE SMOOTH",
"553 0 LINE",
"576 0 LINE",
"434 218 LINE SMOOTH",
"382 297 OFFCURVE",
"357 318 OFFCURVE",
"309 325 CURVE",
"297 317 LINE",
"450 317 OFFCURVE",
"522 371 OFFCURVE",
"522 506 CURVE SMOOTH",
"522 635 OFFCURVE",
"454 690 OFFCURVE",
"309 690 CURVE SMOOTH",
"97 690 LINE",
"97 0 LINE"
);
},
{
closed = 1;
nodes = (
"116 673 LINE",
"308 673 LINE SMOOTH",
"442 673 OFFCURVE",
"502 623 OFFCURVE",
"502 506 CURVE SMOOTH",
"502 386 OFFCURVE",
"442 335 OFFCURVE",
"308 335 CURVE SMOOTH",
"116 335 LINE"
);
}
);
};
layerId = "991D60D2-C03A-4DAD-8733-6E1C1A63C124";
name = "Sep 5 17, 18:44";
paths = (
{
closed = 1;
nodes = (
"116 0 LINE",
"116 317 LINE",
"265 317 LINE SMOOTH",
"333 317 OFFCURVE",
"362 296 OFFCURVE",
"417 211 CURVE SMOOTH",
"553 0 LINE",
"576 0 LINE",
"434 218 LINE SMOOTH",
"382 297 OFFCURVE",
"357 318 OFFCURVE",
"309 325 CURVE",
"297 317 LINE",
"450 317 OFFCURVE",
"522 371 OFFCURVE",
"522 506 CURVE SMOOTH",
"522 635 OFFCURVE",
"454 690 OFFCURVE",
"309 690 CURVE SMOOTH",
"97 690 LINE",
"97 0 LINE"
);
},
{
closed = 1;
nodes = (
"116 673 LINE",
"308 673 LINE SMOOTH",
"442 673 OFFCURVE",
"502 623 OFFCURVE",
"502 506 CURVE SMOOTH",
"502 386 OFFCURVE",
"442 335 OFFCURVE",
"308 335 CURVE SMOOTH",
"116 335 LINE"
);
}
);
width = 593;
}
);
leftMetricsKey = "=H";
unicode = 0052;
},
{
color = 4;
glyphname = S;
lastChange = "2017-11-08 12:55:03 +0000";
layers = (
{
anchors = (
{
name = bottom;
position = "{305, 0}";
},
{
name = top;
position = "{365, 690}";
}
);
background = {
anchors = (
{
name = bottom;
position = "{319, 0}";
},
{
name = top;
position = "{319, 690}";
}
);
paths = (
{
closed = 1;
nodes = (
"527 -18 OFFCURVE",
"619 79 OFFCURVE",
"619 208 CURVE SMOOTH",
"619 346 OFFCURVE",
"561 405 OFFCURVE",
"421 428 CURVE SMOOTH",
"307 447 LINE SMOOTH",
"262 455 OFFCURVE",
"247 468 OFFCURVE",
"247 497 CURVE SMOOTH",
"247 531 OFFCURVE",
"271 548 OFFCURVE",
"319 548 CURVE SMOOTH",
"369 548 OFFCURVE",
"390 531 OFFCURVE",
"400 482 CURVE",
"610 482 LINE",
"588 643 OFFCURVE",
"499 710 OFFCURVE",
"318 710 CURVE SMOOTH",
"127 710 OFFCURVE",
"33 625 OFFCURVE",
"33 486 CURVE SMOOTH",
"33 355 OFFCURVE",
"93 294 OFFCURVE",
"243 266 CURVE SMOOTH",
"340 248 LINE SMOOTH",
"391 239 OFFCURVE",
"405 228 OFFCURVE",
"405 195 CURVE SMOOTH",
"405 159 OFFCURVE",
"378 145 OFFCURVE",
"331 145 CURVE SMOOTH",
"273 145 OFFCURVE",
"250 164 OFFCURVE",
"237 218 CURVE",
"23 218 LINE",
"46 39 OFFCURVE",
"160 -18 OFFCURVE",
"330 -18 CURVE SMOOTH"
);
}
);
};
layerId = "4208D53D-8B52-43BA-A51E-290EEDFDCE51";
paths = (
{
closed = 1;
nodes = (
"497 -18 OFFCURVE",
"596 60 OFFCURVE",
"596 226 CURVE SMOOTH",
"596 320 OFFCURVE",
"553 385 OFFCURVE",
"443 415 CURVE SMOOTH",
"333 445 LINE SMOOTH",
"298 455 OFFCURVE",
"284 470 OFFCURVE",
"284 496 CURVE SMOOTH",
"284 527 OFFCURVE",
"305 548 OFFCURVE",
"349 548 CURVE SMOOTH",
"400 548 OFFCURVE",
"418 526 OFFCURVE",
"429 482 CURVE",
"639 482 LINE",
"615 633 OFFCURVE",
"548 710 OFFCURVE",
"360 710 CURVE SMOOTH",
"179 710 OFFCURVE",
"72 628 OFFCURVE",
"72 485 CURVE SMOOTH",
"72 382 OFFCURVE",
"118 311 OFFCURVE",
"237 277 CURVE SMOOTH",
"328 251 LINE SMOOTH",
"369 239 OFFCURVE",
"384 224 OFFCURVE",
"384 197 CURVE SMOOTH",
"384 161 OFFCURVE",
"358 145 OFFCURVE",
"312 145 CURVE SMOOTH",
"262 145 OFFCURVE",
"234 164 OFFCURVE",
"225 218 CURVE",
"11 218 LINE",
"28 49 OFFCURVE",
"127 -18 OFFCURVE",
"304 -18 CURVE SMOOTH"
);
}
);
width = 633;
},
{
anchors = (
{
name = bottom;
position = "{273, 0}";
},
{
name = top;
position = "{331, 690}";
}
);
background = {
anchors = (
{
name = bottom;
position = "{277, 0}";
},
{
name = top;
position = "{277, 690}";
}
);
paths = (
{
closed = 1;
nodes = (
"434 -18 OFFCURVE",
"519 49 OFFCURVE",
"519 165 CURVE SMOOTH",
"519 268 OFFCURVE",
"487 320 OFFCURVE",
"317 357 CURVE SMOOTH",
"253 371 LINE SMOOTH",
"128 398 OFFCURVE",
"82 436 OFFCURVE",
"82 528 CURVE SMOOTH",
"82 633 OFFCURVE",
"153 692 OFFCURVE",
"277 692 CURVE SMOOTH",
"395 692 OFFCURVE",
"460 649 OFFCURVE",
"494 513 CURVE",
"513 513 LINE",
"478 659 OFFCURVE",
"407 710 OFFCURVE",
"277 710 CURVE SMOOTH",
"143 710 OFFCURVE",
"63 644 OFFCURVE",
"63 529 CURVE SMOOTH",
"63 428 OFFCURVE",
"115 382 OFFCURVE",
"249 353 CURVE SMOOTH",
"313 339 LINE SMOOTH",
"474 304 OFFCURVE",
"500 258 OFFCURVE",
"500 164 CURVE SMOOTH",
"500 60 OFFCURVE",
"423 0 OFFCURVE",
"298 0 CURVE SMOOTH",
"161 0 OFFCURVE",
"92 61 OFFCURVE",
"59 206 CURVE",
"39 206 LINE",
"72 51 OFFCURVE",
"150 -18 OFFCURVE",
"298 -18 CURVE SMOOTH"
);
}
);
};
layerId = "C0254B35-3FF0-4514-8990-BC8C3A6FFAB6";
paths = (
{
closed = 1;
nodes = (
"411 -18 OFFCURVE",
"494 66 OFFCURVE",
"494 192 CURVE SMOOTH",
"494 276 OFFCURVE",
"455 329 OFFCURVE",
"326 356 CURVE SMOOTH",
"264 369 LINE SMOOTH",
"164 390 OFFCURVE",
"123 434 OFFCURVE",
"123 512 CURVE SMOOTH",
"123 615 OFFCURVE",
"204 692 OFFCURVE",
"323 692 CURVE SMOOTH",
"446 692 OFFCURVE",
"505 649 OFFCURVE",
"525 513 CURVE",
"544 513 LINE",
"524 659 OFFCURVE",
"458 710 OFFCURVE",
"323 710 CURVE SMOOTH",
"195 710 OFFCURVE",
"104 628 OFFCURVE",
"104 512 CURVE SMOOTH",
"104 426 OFFCURVE",
"151 374 OFFCURVE",
"257 352 CURVE SMOOTH",
"319 339 LINE SMOOTH",
"440 314 OFFCURVE",
"475 267 OFFCURVE",
"475 192 CURVE SMOOTH",
"475 81 OFFCURVE",
"402 0 OFFCURVE",
"274 0 CURVE SMOOTH",
"142 0 OFFCURVE",
"74 61 OFFCURVE",
"46 206 CURVE",
"26 206 LINE",
"54 51 OFFCURVE",
"130 -18 OFFCURVE",
"273 -18 CURVE SMOOTH"
);
}
);
width = 553;
},
{
associatedMasterId = "4208D53D-8B52-43BA-A51E-290EEDFDCE51";
background = {
paths = (
{
closed = 1;
nodes = (
"505 -17 OFFCURVE",
"596 76 OFFCURVE",
"596 203 CURVE SMOOTH",
"596 337 OFFCURVE",
"540 398 OFFCURVE",
"408 417 CURVE SMOOTH",
"317 430 LINE SMOOTH",
"266 437 OFFCURVE",
"249 450 OFFCURVE",
"249 473 CURVE SMOOTH",
"249 508 OFFCURVE",
"271 522 OFFCURVE",
"310 522 CURVE SMOOTH",
"351 522 OFFCURVE",
"366 506 OFFCURVE",
"372 484 CURVE SMOOTH",
"377 467 LINE",
"587 467 LINE",
"577 512 LINE SMOOTH",
"555 611 OFFCURVE",
"492 689 OFFCURVE",
"305 689 CURVE SMOOTH",
"124 689 OFFCURVE",
"34 598 OFFCURVE",
"34 466 CURVE SMOOTH",
"34 334 OFFCURVE",
"99 283 OFFCURVE",
"230 259 CURVE SMOOTH",
"322 242 LINE SMOOTH",
"363 234 OFFCURVE",
"381 226 OFFCURVE",
"381 193 CURVE SMOOTH",
"381 161 OFFCURVE",
"358 150 OFFCURVE",
"317 150 CURVE SMOOTH",
"272 150 OFFCURVE",
"253 161 OFFCURVE",
"245 188 CURVE SMOOTH",
"239 207 LINE",
"25 207 LINE",
"34 165 LINE SMOOTH",
"61 39 OFFCURVE",
"149 -17 OFFCURVE",
"319 -17 CURVE SMOOTH"
);
}
);
};
layerId = "F5F62B59-F3EB-4491-8724-D41097850448";
name = "Jul 26 17, 16:38";
paths = (
{
closed = 1;
nodes = (
"505 -17 OFFCURVE",
"596 76 OFFCURVE",
"596 203 CURVE SMOOTH",
"596 337 OFFCURVE",
"540 398 OFFCURVE",
"408 417 CURVE SMOOTH",
"317 430 LINE SMOOTH",
"266 437 OFFCURVE",
"249 450 OFFCURVE",
"249 473 CURVE SMOOTH",
"249 508 OFFCURVE",
"271 522 OFFCURVE",
"310 522 CURVE SMOOTH",
"351 522 OFFCURVE",
"366 506 OFFCURVE",
"372 484 CURVE SMOOTH",
"377 467 LINE",
"587 467 LINE",
"577 512 LINE SMOOTH",
"555 611 OFFCURVE",
"492 689 OFFCURVE",
"305 689 CURVE SMOOTH",
"124 689 OFFCURVE",
"34 598 OFFCURVE",
"34 466 CURVE SMOOTH",
"34 334 OFFCURVE",
"99 283 OFFCURVE",
"230 259 CURVE SMOOTH",
"322 242 LINE SMOOTH",
"363 234 OFFCURVE",
"381 226 OFFCURVE",
"381 193 CURVE SMOOTH",
"381 161 OFFCURVE",
"358 150 OFFCURVE",
"317 150 CURVE SMOOTH",
"272 150 OFFCURVE",
"253 161 OFFCURVE",
"245 188 CURVE SMOOTH",
"239 207 LINE",
"25 207 LINE",
"34 165 LINE SMOOTH",
"61 39 OFFCURVE",
"149 -17 OFFCURVE",
"319 -17 CURVE SMOOTH"
);
}
);
width = 621;
},
{
anchors = (
{
name = bottom;
position = "{293, 0}";
},
{
name = top;
position = "{363, 690}";
}
);
background = {
paths = (
{
closed = 1;
nodes = (
"512 -18 OFFCURVE",
"603 61 OFFCURVE",
"603 186 CURVE SMOOTH",
"603 310 OFFCURVE",
"552 362 OFFCURVE",
"382 395 CURVE SMOOTH",
"315 408 LINE SMOOTH",
"229 425 OFFCURVE",
"199 451 OFFCURVE",
"199 517 CURVE SMOOTH",
"199 587 OFFCURVE",
"254 624 OFFCURVE",
"339 624 CURVE SMOOTH",
"430 624 OFFCURVE",
"470 594 OFFCURVE",
"493 500 CURVE",
"596 500 LINE",
"564 651 OFFCURVE",
"491 710 OFFCURVE",
"337 710 CURVE SMOOTH",
"190 710 OFFCURVE",
"98 637 OFFCURVE",
"98 513 CURVE SMOOTH",
"98 395 OFFCURVE",
"154 337 OFFCURVE",
"297 311 CURVE SMOOTH",
"364 299 LINE SMOOTH",
"483 278 OFFCURVE",
"502 242 OFFCURVE",
"502 177 CURVE SMOOTH",
"502 107 OFFCURVE",
"449 68 OFFCURVE",
"355 68 CURVE SMOOTH",
"250 68 OFFCURVE",
"200 108 OFFCURVE",
"177 211 CURVE",
"73 211 LINE",
"106 44 OFFCURVE",
"200 -18 OFFCURVE",
"354 -18 CURVE SMOOTH"
);
}
);
};
layerId = "161FAF72-C4C5-4DCB-BDD5-17E2433CDCDE";
paths = (
{
closed = 1;
nodes = (
"474 -20 OFFCURVE",
"564 79 OFFCURVE",
"564 212 CURVE SMOOTH",
"564 315 OFFCURVE",
"510 366 OFFCURVE",
"367 394 CURVE SMOOTH",
"306 406 LINE SMOOTH",
"229 421 OFFCURVE",
"199 448 OFFCURVE",
"199 509 CURVE SMOOTH",
"199 574 OFFCURVE",
"251 624 OFFCURVE",
"354 624 CURVE SMOOTH",
"457 624 OFFCURVE",
"494 584 OFFCURVE",
"505 500 CURVE",
"608 500 LINE",
"589 641 OFFCURVE",
"519 710 OFFCURVE",
"364 710 CURVE SMOOTH",
"190 710 OFFCURVE",
"98 625 OFFCURVE",
"98 492 CURVE SMOOTH",
"98 391 OFFCURVE",
"162 335 OFFCURVE",
"267 315 CURVE SMOOTH",
"334 302 LINE SMOOTH",
"433 283 OFFCURVE",
"463 257 OFFCURVE",
"463 195 CURVE SMOOTH",
"463 116 OFFCURVE",
"407 66 OFFCURVE",
"294 66 CURVE SMOOTH",
"183 66 OFFCURVE",
"141 108 OFFCURVE",
"128 211 CURVE",
"24 211 LINE",
"36 54 OFFCURVE",
"107 -20 OFFCURVE",
"288 -20 CURVE SMOOTH"
);
}
);
width = 614;
},
{
associatedMasterId = "C0254B35-3FF0-4514-8990-BC8C3A6FFAB6";
background = {
paths = (
{
closed = 1;
nodes = (
"442 -18 OFFCURVE",
"528 48 OFFCURVE",
"528 164 CURVE SMOOTH",
"528 268 OFFCURVE",
"497 327 OFFCURVE",
"298 363 CURVE SMOOTH",
"265 369 LINE SMOOTH",
"129 394 OFFCURVE",
"84 431 OFFCURVE",
"84 528 CURVE SMOOTH",
"84 637 OFFCURVE",
"162 692 OFFCURVE",
"281 692 CURVE SMOOTH",
"401 692 OFFCURVE",
"468 649 OFFCURVE",
"501 513 CURVE",
"520 513 LINE",
"485 659 OFFCURVE",
"414 710 OFFCURVE",
"281 710 CURVE SMOOTH",
"154 710 OFFCURVE",
"64 648 OFFCURVE",
"64 529 CURVE SMOOTH",
"64 426 OFFCURVE",
"115 377 OFFCURVE",
"261 351 CURVE SMOOTH",
"295 345 LINE SMOOTH",
"485 311 OFFCURVE",
"508 258 OFFCURVE",
"508 164 CURVE SMOOTH",
"508 58 OFFCURVE",
"428 1 OFFCURVE",
"302 1 CURVE SMOOTH",
"174 1 OFFCURVE",
"94 52 OFFCURVE",
"62 206 CURVE",
"42 206 LINE",
"75 42 OFFCURVE",
"161 -18 OFFCURVE",
"302 -18 CURVE SMOOTH"
);
}
);
};
guideLines = (
{
angle = 107.354;
position = "{58, 197}";
},
{
angle = 107.354;
position = "{488, 498}";
},
{
angle = 259.0894;
position = "{301, 389}";
showMeasurement = 1;
}
);
layerId = "7A97EFED-9505-4819-9F1F-C11744943978";
name = "Aug 17 17, 13:49";
paths = (
{
closed = 1;
nodes = (
"441 -18 OFFCURVE",
"527 48 OFFCURVE",
"527 165 CURVE SMOOTH",
"527 268 OFFCURVE",
"496 321 OFFCURVE",
"318 358 CURVE SMOOTH",
"265 369 LINE SMOOTH",
"129 397 OFFCURVE",
"84 431 OFFCURVE",
"84 528 CURVE SMOOTH",
"84 637 OFFCURVE",
"162 692 OFFCURVE",
"281 692 CURVE SMOOTH",
"401 692 OFFCURVE",
"468 649 OFFCURVE",
"501 513 CURVE",
"520 513 LINE",
"485 659 OFFCURVE",
"414 710 OFFCURVE",
"281 710 CURVE SMOOTH",
"155 710 OFFCURVE",
"65 648 OFFCURVE",
"65 529 CURVE SMOOTH",
"65 426 OFFCURVE",
"116 380 OFFCURVE",
"261 351 CURVE SMOOTH",
"316 340 LINE SMOOTH",
"485 306 OFFCURVE",
"508 258 OFFCURVE",
"508 164 CURVE SMOOTH",
"508 58 OFFCURVE",
"428 1 OFFCURVE",
"302 1 CURVE SMOOTH",
"174 1 OFFCURVE",
"94 52 OFFCURVE",
"62 206 CURVE",
"42 206 LINE",
"75 42 OFFCURVE",
"161 -18 OFFCURVE",
"302 -18 CURVE SMOOTH"
);
}
);
width = 571;
},
{
associatedMasterId = "C0254B35-3FF0-4514-8990-BC8C3A6FFAB6";
background = {
paths = (
{
closed = 1;
nodes = (
"437 -18 OFFCURVE",
"523 48 OFFCURVE",
"523 165 CURVE SMOOTH",
"523 268 OFFCURVE",
"491 320 OFFCURVE",
"314 358 CURVE SMOOTH",
"254 371 LINE SMOOTH",
"128 399 OFFCURVE",
"83 436 OFFCURVE",
"83 528 CURVE SMOOTH",
"83 633 OFFCURVE",
"154 692 OFFCURVE",
"278 692 CURVE SMOOTH",
"396 692 OFFCURVE",
"462 649 OFFCURVE",
"495 513 CURVE",
"514 513 LINE",
"479 659 OFFCURVE",
"408 710 OFFCURVE",
"278 710 CURVE SMOOTH",
"144 710 OFFCURVE",
"64 644 OFFCURVE",
"64 530 CURVE SMOOTH",
"64 428 OFFCURVE",
"115 382 OFFCURVE",
"250 353 CURVE SMOOTH",
"312 340 LINE SMOOTH",
"481 305 OFFCURVE",
"504 258 OFFCURVE",
"504 164 CURVE SMOOTH",
"504 58 OFFCURVE",
"424 1 OFFCURVE",
"298 1 CURVE SMOOTH",
"171 1 OFFCURVE",
"91 52 OFFCURVE",
"59 206 CURVE",
"39 206 LINE",
"72 42 OFFCURVE",
"158 -18 OFFCURVE",
"298 -18 CURVE SMOOTH"
);
}
);
};
guideLines = (
{
angle = 107.354;
position = "{54, 197}";
},
{
angle = 107.354;
position = "{484, 498}";
}
);
layerId = "75A2356A-B2A2-4B14-A660-E727BF025F11";
name = "Aug 17 17, 14:31";
paths = (
{
closed = 1;
nodes = (
"437 -20 OFFCURVE",
"523 48 OFFCURVE",
"523 165 CURVE SMOOTH",
"523 268 OFFCURVE",
"491 320 OFFCURVE",
"314 358 CURVE SMOOTH",
"254 371 LINE SMOOTH",
"128 399 OFFCURVE",
"83 436 OFFCURVE",
"83 528 CURVE SMOOTH",
"83 633 OFFCURVE",
"154 692 OFFCURVE",
"278 692 CURVE SMOOTH",
"396 692 OFFCURVE",
"462 649 OFFCURVE",
"495 513 CURVE",
"514 513 LINE",
"479 659 OFFCURVE",
"408 710 OFFCURVE",
"278 710 CURVE SMOOTH",
"144 710 OFFCURVE",
"64 644 OFFCURVE",
"64 530 CURVE SMOOTH",
"64 428 OFFCURVE",
"115 382 OFFCURVE",
"250 353 CURVE SMOOTH",
"312 340 LINE SMOOTH",
"481 305 OFFCURVE",
"504 258 OFFCURVE",
"504 164 CURVE SMOOTH",
"504 57 OFFCURVE",
"424 -2 OFFCURVE",
"295 0 CURVE SMOOTH",
"169 2 OFFCURVE",
"93 52 OFFCURVE",
"59 206 CURVE",
"39 206 LINE",
"74 43 OFFCURVE",
"156 -16 OFFCURVE",
"295 -18 CURVE SMOOTH"
);
}
);
width = 564;
},
{
associatedMasterId = "C0254B35-3FF0-4514-8990-BC8C3A6FFAB6";
background = {
paths = (
{
closed = 1;
nodes = (
"72 51 OFFCURVE",
"150 -18 OFFCURVE",
"298 -18 CURVE SMOOTH",
"434 -18 OFFCURVE",
"519 49 OFFCURVE",
"519 165 CURVE SMOOTH",
"519 268 OFFCURVE",
"487 320 OFFCURVE",
"310 358 CURVE SMOOTH",
"251 371 LINE SMOOTH",
"125 399 OFFCURVE",
"80 436 OFFCURVE",
"80 528 CURVE SMOOTH",
"80 633 OFFCURVE",
"151 692 OFFCURVE",
"275 692 CURVE SMOOTH",
"393 692 OFFCURVE",
"459 649 OFFCURVE",
"492 513 CURVE",
"511 513 LINE",
"476 659 OFFCURVE",
"405 710 OFFCURVE",
"275 710 CURVE SMOOTH",
"141 710 OFFCURVE",
"61 644 OFFCURVE",
"61 530 CURVE SMOOTH",
"61 428 OFFCURVE",
"112 382 OFFCURVE",
"247 353 CURVE SMOOTH",
"308 340 LINE SMOOTH",
"477 305 OFFCURVE",
"500 258 OFFCURVE",
"500 164 CURVE SMOOTH",
"500 60 OFFCURVE",
"423 0 OFFCURVE",
"298 0 CURVE SMOOTH",
"161 0 OFFCURVE",
"91 61 OFFCURVE",
"59 206 CURVE",
"39 206 LINE"
);
}
);
};
guideLines = (
{
angle = 107.354;
position = "{50, 197}";
},
{
angle = 107.354;
position = "{480, 498}";
}
);
layerId = "E57A96C4-C154-4464-8D31-4FFC9FC248BE";
name = "Aug 17 17, 14:43";
paths = (
{
closed = 1;
nodes = (
"72 51 OFFCURVE",
"150 -18 OFFCURVE",
"298 -18 CURVE SMOOTH",
"434 -18 OFFCURVE",
"519 49 OFFCURVE",
"519 165 CURVE SMOOTH",
"519 268 OFFCURVE",
"488 319 OFFCURVE",
"312 358 CURVE SMOOTH",
"253 371 LINE SMOOTH",
"127 399 OFFCURVE",
"82 436 OFFCURVE",
"82 528 CURVE SMOOTH",
"82 633 OFFCURVE",
"153 692 OFFCURVE",
"277 692 CURVE SMOOTH",
"395 692 OFFCURVE",
"460 649 OFFCURVE",
"494 513 CURVE",
"513 513 LINE",
"478 659 OFFCURVE",
"407 710 OFFCURVE",
"277 710 CURVE SMOOTH",
"143 710 OFFCURVE",
"63 644 OFFCURVE",
"63 530 CURVE SMOOTH",
"63 428 OFFCURVE",
"114 382 OFFCURVE",
"249 353 CURVE SMOOTH",
"308 340 LINE SMOOTH",
"475 303 OFFCURVE",
"500 258 OFFCURVE",
"500 164 CURVE SMOOTH",
"500 60 OFFCURVE",
"423 0 OFFCURVE",
"298 0 CURVE SMOOTH",
"161 0 OFFCURVE",
"92 61 OFFCURVE",
"59 206 CURVE",
"39 206 LINE"
);
}
);
width = 560;
}
);
unicode = 0053;
},
{
color = 4;
glyphname = T;
lastChange = "2017-11-08 11:00:33 +0000";
layers = (
{
anchors = (
{
name = bottom;
position = "{266, 0}";
},
{
name = top;
position = "{388, 690}";
}
);
background = {
anchors = (
{
name = bottom;
position = "{327, 0}";
},
{
name = top;
position = "{327, 690}";
}
);
paths = (
{
closed = 1;
nodes = (
"23 690 LINE",
"23 501 LINE",
"211 501 LINE",
"211 0 LINE",
"435 0 LINE",
"435 501 LINE",
"623 501 LINE",
"623 690 LINE"
);
}
);
};
layerId = "4208D53D-8B52-43BA-A51E-290EEDFDCE51";
paths = (
{
closed = 1;
nodes = (
"89 690 LINE",
"56 501 LINE",
"239 501 LINE",
"150 0 LINE",
"374 0 LINE",
"463 501 LINE",
"646 501 LINE",
"679 690 LINE"
);
}
);
width = 620;
},
{
anchors = (
{
name = bottom;
position = "{218, 0}";
},
{
name = top;
position = "{338, 690}";
}
);
background = {
anchors = (
{
name = bottom;
position = "{269, 0}";
},
{
name = top;
position = "{269, 690}";
}
);
paths = (
{
closed = 1;
nodes = (
"15 690 LINE",
"15 672 LINE",
"259 672 LINE",
"259 0 LINE",
"278 0 LINE",
"278 672 LINE",
"522 672 LINE",
"522 690 LINE"
);
}
);
};
layerId = "C0254B35-3FF0-4514-8990-BC8C3A6FFAB6";
paths = (
{
closed = 1;
nodes = (
"91 690 LINE",
"88 672 LINE",
"327 672 LINE",
"208 0 LINE",
"227 0 LINE",
"346 672 LINE",
"585 672 LINE",
"588 690 LINE"
);
}
);
width = 527;
},
{
anchors = (
{
name = bottom;
position = "{238, 0}";
},
{
name = top;
position = "{361, 690}";
}
);
background = {
paths = (
{
closed = 1;
nodes = (
"18 690 LINE",
"18 600 LINE",
"236 600 LINE",
"236 0 LINE",
"342 0 LINE",
"342 600 LINE",
"560 600 LINE",
"560 690 LINE"
);
}
);
};
guideLines = (
{
angle = 80;
position = "{232, -40}";
}
);
layerId = "161FAF72-C4C5-4DCB-BDD5-17E2433CDCDE";
paths = (
{
closed = 1;
nodes = (
"94 690 LINE",
"78 600 LINE",
"291 600 LINE",
"185 0 LINE",
"292 0 LINE",
"398 600 LINE",
"610 600 LINE",
"626 690 LINE"
);
}
);
width = 569;
}
);
unicode = 0054;
},
{
color = 4;
glyphname = U;
lastChange = "2017-11-06 17:04:22 +0000";
layers = (
{
anchors = (
{
name = bottom;
position = "{299, 0}";
},
{
name = ogonek.round;
position = "{435, 0}";
},
{
name = top;
position = "{420, 690}";
}
);
background = {
paths = (
{
closed = 1;
nodes = (
"492 -18 OFFCURVE",
"628 74 OFFCURVE",
"662 271 CURVE SMOOTH",
"735 690 LINE",
"505 690 LINE",
"429 256 LINE SMOOTH",
"418 191 OFFCURVE",
"384 165 OFFCURVE",
"328 165 CURVE SMOOTH",
"273 165 OFFCURVE",
"249 191 OFFCURVE",
"260 256 CURVE SMOOTH",
"336 690 LINE",
"106 690 LINE",
"33 271 LINE SMOOTH",
"-1 74 OFFCURVE",
"101 -18 OFFCURVE",
"296 -18 CURVE SMOOTH"
);
}
);
};
layerId = "4208D53D-8B52-43BA-A51E-290EEDFDCE51";
paths = (
{
closed = 1;
nodes = (
"509 -18 OFFCURVE",
"626 61 OFFCURVE",
"660 258 CURVE SMOOTH",
"735 690 LINE",
"505 690 LINE",
"429 253 LINE SMOOTH",
"418 191 OFFCURVE",
"389 165 OFFCURVE",
"334 165 CURVE SMOOTH",
"278 165 OFFCURVE",
"249 191 OFFCURVE",
"260 256 CURVE SMOOTH",
"336 690 LINE",
"106 690 LINE",
"34 272 LINE SMOOTH",
"0 75 OFFCURVE",
"118 -18 OFFCURVE",
"323 -18 CURVE SMOOTH"
);
}
);
width = 694;
},
{
anchors = (
{
name = bottom;
position = "{274, 0}";
},
{
name = ogonek.round;
position = "{391, 0}";
},
{
name = top;
position = "{395, 690}";
}
);
background = {
paths = (
{
closed = 1;
nodes = (
"424 -18 OFFCURVE",
"537 61 OFFCURVE",
"567 231 CURVE SMOOTH",
"648 690 LINE",
"628 690 LINE",
"547 231 LINE SMOOTH",
"519 75 OFFCURVE",
"417 1 OFFCURVE",
"274 1 CURVE SMOOTH",
"133 1 OFFCURVE",
"55 75 OFFCURVE",
"83 231 CURVE SMOOTH",
"164 690 LINE",
"144 690 LINE",
"63 231 LINE SMOOTH",
"33 61 OFFCURVE",
"120 -18 OFFCURVE",
"271 -18 CURVE SMOOTH"
);
}
);
};
layerId = "C0254B35-3FF0-4514-8990-BC8C3A6FFAB6";
paths = (
{
closed = 1;
nodes = (
"436 -18 OFFCURVE",
"535 51 OFFCURVE",
"565 221 CURVE SMOOTH",
"648 690 LINE",
"628 690 LINE",
"545 221 LINE SMOOTH",
"517 64 OFFCURVE",
"427 1 OFFCURVE",
"284 1 CURVE SMOOTH",
"141 1 OFFCURVE",
"57 90 OFFCURVE",
"86 251 CURVE SMOOTH",
"164 690 LINE",
"144 690 LINE",
"66 249 LINE SMOOTH",
"36 79 OFFCURVE",
"132 -18 OFFCURVE",
"283 -18 CURVE SMOOTH"
);
}
);
width = 640;
},
{
anchors = (
{
name = bottom;
position = "{295, 0}";
},
{
name = ogonek.round;
position = "{418, 0}";
},
{
name = top;
position = "{420, 690}";
}
);
background = {
paths = (
{
closed = 1;
nodes = (
"510 -18 OFFCURVE",
"618 67 OFFCURVE",
"618 248 CURVE SMOOTH",
"618 690 LINE",
"511 690 LINE",
"511 243 LINE SMOOTH",
"511 126 OFFCURVE",
"446 74 OFFCURVE",
"335 74 CURVE SMOOTH",
"225 74 OFFCURVE",
"160 126 OFFCURVE",
"160 243 CURVE SMOOTH",
"160 690 LINE",
"54 690 LINE",
"54 248 LINE SMOOTH",
"54 67 OFFCURVE",
"161 -18 OFFCURVE",
"335 -18 CURVE SMOOTH"
);
}
);
};
guideLines = (
{
angle = 80;
position = "{568, -40}";
}
);
layerId = "161FAF72-C4C5-4DCB-BDD5-17E2433CDCDE";
paths = (
{
closed = 1;
nodes = (
"489 -18 OFFCURVE",
"585 57 OFFCURVE",
"619 248 CURVE SMOOTH",
"697 690 LINE",
"590 690 LINE",
"511 243 LINE SMOOTH",
"490 126 OFFCURVE",
"426 74 OFFCURVE",
"319 74 CURVE SMOOTH",
"202 74 OFFCURVE",
"152 130 OFFCURVE",
"174 257 CURVE SMOOTH",
"250 690 LINE",
"143 690 LINE",
"67 265 LINE SMOOTH",
"35 84 OFFCURVE",
"128 -18 OFFCURVE",
"312 -18 CURVE SMOOTH"
);
}
);
width = 689;
}
);
unicode = 0055;
},
{
color = 4;
glyphname = V;
lastChange = "2017-11-04 13:26:19 +0000";
layers = (
{
background = {
paths = (
{
closed = 1;
nodes = (
"525 0 LINE",
"719 690 LINE",
"470 690 LINE",
"349 135 LINE",
"368 135 LINE",
"247 690 LINE",
"3 690 LINE",
"196 0 LINE"
);
}
);
};
layerId = "4208D53D-8B52-43BA-A51E-290EEDFDCE51";
paths = (
{
closed = 1;
nodes = (
"471 0 LINE",
"782 690 LINE",
"530 690 LINE",
"316 135 LINE",
"335 135 LINE",
"318 690 LINE",
"77 690 LINE",
"142 0 LINE"
);
}
);
width = 711;
},
{
background = {
paths = (
{
closed = 1;
nodes = (
"325 0 LINE",
"612 690 LINE",
"590 690 LINE",
"313 20 LINE",
"318 20 LINE",
"41 690 LINE",
"19 690 LINE",
"306 0 LINE"
);
}
);
};
layerId = "C0254B35-3FF0-4514-8990-BC8C3A6FFAB6";
paths = (
{
closed = 1;
nodes = (
"273 0 LINE",
"677 690 LINE",
"653 690 LINE",
"263 20 LINE",
"268 20 LINE",
"115 690 LINE",
"95 690 LINE",
"254 0 LINE"
);
}
);
width = 620;
},
{
background = {
paths = (
{
closed = 1;
nodes = (
"443 0 LINE",
"689 690 LINE",
"574 690 LINE",
"362 67 LINE",
"383 67 LINE",
"171 690 LINE",
"56 690 LINE",
"302 0 LINE"
);
}
);
};
layerId = "161FAF72-C4C5-4DCB-BDD5-17E2433CDCDE";
paths = (
{
closed = 1;
nodes = (
"342 0 LINE",
"703 690 LINE",
"588 690 LINE",
"269 67 LINE",
"289 67 LINE",
"191 690 LINE",
"81 690 LINE",
"200 0 LINE"
);
}
);
width = 634;
}
);
unicode = 0056;
},
{
color = 4;
glyphname = W;
lastChange = "2017-11-06 12:40:13 +0000";
layers = (
{
anchors = (
{
name = top;
position = "{572, 690}";
}
);
background = {
anchors = (
{
name = top;
position = "{498, 690}";
}
);
paths = (
{
closed = 1;
nodes = (
"418 0 LINE",
"526 541 LINE",
"477 541 LINE",
"585 0 LINE",
"831 0 LINE",
"1006 690 LINE",
"766 690 LINE",
"669 145 LINE",
"708 145 LINE",
"601 690 LINE",
"402 690 LINE",
"295 145 LINE",
"334 145 LINE",
"237 690 LINE",
"-3 690 LINE",
"172 0 LINE"
);
}
);
};
layerId = "4208D53D-8B52-43BA-A51E-290EEDFDCE51";
paths = (
{
closed = 1;
nodes = (
"373 0 LINE",
"578 541 LINE",
"529 541 LINE",
"534 0 LINE",
"780 0 LINE",
"1074 690 LINE",
"834 690 LINE",
"644 145 LINE",
"683 145 LINE",
"675 690 LINE",
"476 690 LINE",
"273 145 LINE",
"312 145 LINE",
"317 690 LINE",
"77 690 LINE",
"127 0 LINE"
);
}
);
width = 1003;
},
{
anchors = (
{
name = top;
position = "{511, 690}";
}
);
background = {
anchors = (
{
name = top;
position = "{440, 690}";
}
);
paths = (
{
closed = 1;
nodes = (
"246 0 LINE",
"445 674 LINE",
"435 674 LINE",
"634 0 LINE",
"654 0 LINE",
"861 690 LINE",
"841 690 LINE",
"640 17 LINE",
"648 17 LINE",
"450 690 LINE",
"430 690 LINE",
"232 17 LINE",
"240 17 LINE",
"39 690 LINE",
"19 690 LINE",
"226 0 LINE"
);
}
);
};
layerId = "C0254B35-3FF0-4514-8990-BC8C3A6FFAB6";
paths = (
{
closed = 1;
nodes = (
"198 0 LINE",
"514 674 LINE",
"504 674 LINE",
"580 0 LINE",
"600 0 LINE",
"927 690 LINE",
"905 690 LINE",
"588 17 LINE",
"597 17 LINE",
"521 690 LINE",
"500 690 LINE",
"186 17 LINE",
"195 17 LINE",
"114 690 LINE",
"95 690 LINE",
"178 0 LINE"
);
}
);
width = 870;
},
{
anchors = (
{
name = top;
position = "{540, 690}";
}
);
background = {
paths = (
{
closed = 1;
nodes = (
"345 0 LINE",
"479 631 LINE",
"464 631 LINE",
"598 0 LINE",
"739 0 LINE",
"928 690 LINE",
"814 690 LINE",
"658 85 LINE",
"674 85 LINE",
"543 690 LINE",
"400 690 LINE",
"269 85 LINE",
"285 85 LINE",
"129 690 LINE",
"15 690 LINE",
"204 0 LINE"
);
}
);
};
layerId = "161FAF72-C4C5-4DCB-BDD5-17E2433CDCDE";
paths = (
{
closed = 1;
nodes = (
"293 0 LINE",
"536 631 LINE",
"521 631 LINE",
"542 0 LINE",
"682 0 LINE",
"992 690 LINE",
"877 690 LINE",
"618 85 LINE",
"634 85 LINE",
"607 690 LINE",
"465 690 LINE",
"229 85 LINE",
"245 85 LINE",
"196 690 LINE",
"90 690 LINE",
"153 0 LINE"
);
}
);
width = 932;
}
);
unicode = 0057;
},
{
color = 4;
glyphname = X;
lastChange = "2017-11-06 12:51:10 +0000";
layers = (
{
background = {
paths = (
{
closed = 1;
nodes = (
"710 0 LINE",
"473 386 LINE",
"392 427 LINE",
"244 690 LINE",
"2 690 LINE",
"257 276 LINE",
"338 235 LINE",
"468 0 LINE"
);
},
{
closed = 1;
nodes = (
"242 0 LINE",
"371 235 LINE",
"452 276 LINE",
"708 690 LINE",
"466 690 LINE",
"317 427 LINE",
"236 386 LINE",
"0 0 LINE"
);
}
);
};
layerId = "4208D53D-8B52-43BA-A51E-290EEDFDCE51";
paths = (
{
closed = 1;
nodes = (
"653 0 LINE",
"484 386 LINE",
"413 427 LINE",
"307 690 LINE",
"77 690 LINE",
"259 276 LINE",
"330 235 LINE",
"423 0 LINE"
);
},
{
closed = 1;
nodes = (
"200 0 LINE",
"373 235 LINE",
"449 276 LINE",
"773 690 LINE",
"526 690 LINE",
"328 427 LINE",
"252 386 LINE",
"-47 0 LINE"
);
}
);
width = 700;
},
{
background = {
paths = (
{
closed = 1;
nodes = (
"520 0 LINE",
"268 349 LINE",
"263 356 LINE",
"23 690 LINE",
"1 690 LINE",
"252 341 LINE",
"257 334 LINE",
"498 0 LINE"
);
},
{
closed = 1;
nodes = (
"23 0 LINE",
"263 334 LINE",
"268 341 LINE",
"520 690 LINE",
"498 690 LINE",
"257 356 LINE",
"252 349 LINE",
"1 0 LINE"
);
}
);
};
layerId = "C0254B35-3FF0-4514-8990-BC8C3A6FFAB6";
paths = (
{
closed = 1;
nodes = (
"467 0 LINE",
"283 349 LINE",
"277 356 LINE",
"102 690 LINE",
"82 690 LINE",
"265 341 LINE",
"271 334 LINE",
"447 0 LINE"
);
},
{
closed = 1;
nodes = (
"-16 1 LINE",
"275 335 LINE",
"283 340 LINE",
"589 690 LINE",
"565 690 LINE",
"273 355 LINE",
"265 350 LINE",
"-40 0 LINE"
);
}
);
width = 518;
},
{
background = {
paths = (
{
closed = 1;
nodes = (
"596 0 LINE",
"355 365 LINE",
"319 386 LINE",
"125 690 LINE",
"5 690 LINE",
"251 314 LINE",
"287 293 LINE",
"476 0 LINE"
);
},
{
closed = 1;
nodes = (
"125 0 LINE",
"314 293 LINE",
"350 314 LINE",
"596 690 LINE",
"476 690 LINE",
"282 386 LINE",
"246 365 LINE",
"5 0 LINE"
);
}
);
};
layerId = "161FAF72-C4C5-4DCB-BDD5-17E2433CDCDE";
paths = (
{
closed = 1;
nodes = (
"539 0 LINE",
"366 365 LINE",
"334 386 LINE",
"197 690 LINE",
"83 690 LINE",
"259 314 LINE",
"292 293 LINE",
"425 0 LINE"
);
},
{
closed = 1;
nodes = (
"82 0 LINE",
"319 293 LINE",
"356 314 LINE",
"663 690 LINE",
"541 690 LINE",
"296 386 LINE",
"259 365 LINE",
"-41 0 LINE"
);
}
);
width = 593;
},
{
associatedMasterId = "161FAF72-C4C5-4DCB-BDD5-17E2433CDCDE";
background = {
paths = (
{
closed = 1;
nodes = (
"604 0 LINE",
"356 364 LINE",
"320 386 LINE",
"116 690 LINE",
"4 690 LINE",
"258 314 LINE",
"295 293 LINE",
"491 0 LINE"
);
},
{
closed = 1;
nodes = (
"116 0 LINE",
"311 293 LINE",
"348 314 LINE",
"603 690 LINE",
"491 690 LINE",
"286 386 LINE",
"249 364 LINE",
"3 0 LINE"
);
}
);
};
guideLines = (
{
angle = -32.351;
position = "{70, 228}";
showMeasurement = 1;
}
);
layerId = "5AE71AC3-6787-449F-88A2-16092658EA35";
name = "Aug 15 17, 16:17";
paths = (
{
closed = 1;
nodes = (
"604 0 LINE",
"356 364 LINE",
"320 386 LINE",
"116 690 LINE",
"4 690 LINE",
"258 314 LINE",
"295 293 LINE",
"491 0 LINE"
);
},
{
closed = 1;
nodes = (
"116 0 LINE",
"311 293 LINE",
"348 314 LINE",
"603 690 LINE",
"491 690 LINE",
"286 386 LINE",
"249 364 LINE",
"3 0 LINE"
);
}
);
width = 607;
}
);
unicode = 0058;
},
{
color = 4;
glyphname = Y;
lastChange = "2017-11-08 10:51:30 +0000";
layers = (
{
anchors = (
{
name = top;
position = "{421, 690}";
}
);
background = {
anchors = (
{
name = top;
position = "{354, 690}";
}
);
paths = (
{
closed = 1;
nodes = (
"473 0 LINE",
"473 290 LINE",
"440 181 LINE",
"712 690 LINE",
"485 690 LINE",
"327 373 LINE",
"389 373 LINE",
"230 690 LINE",
"3 690 LINE",
"276 181 LINE",
"243 290 LINE",
"243 0 LINE"
);
}
);
};
layerId = "4208D53D-8B52-43BA-A51E-290EEDFDCE51";
paths = (
{
closed = 1;
nodes = (
"419 0 LINE",
"470 290 LINE",
"418 181 LINE",
"775 690 LINE",
"542 690 LINE",
"333 373 LINE",
"395 373 LINE",
"298 690 LINE",
"77 690 LINE",
"254 181 LINE",
"240 290 LINE",
"189 0 LINE"
);
}
);
width = 704;
},
{
anchors = (
{
name = top;
position = "{355, 690}";
}
);
background = {
anchors = (
{
name = top;
position = "{294, 690}";
}
);
paths = (
{
closed = 1;
nodes = (
"299 0 LINE",
"299 328 LINE",
"295 314 LINE",
"559 690 LINE",
"536 690 LINE",
"286 332 LINE",
"293 332 LINE",
"43 690 LINE",
"20 690 LINE",
"284 314 LINE",
"280 328 LINE",
"280 0 LINE"
);
}
);
};
layerId = "C0254B35-3FF0-4514-8990-BC8C3A6FFAB6";
paths = (
{
closed = 1;
nodes = (
"247 0 LINE",
"305 328 LINE",
"299 314 LINE",
"624 690 LINE",
"599 690 LINE",
"292 332 LINE",
"299 332 LINE",
"117 690 LINE",
"96 690 LINE",
"288 314 LINE",
"286 328 LINE",
"228 0 LINE"
);
}
);
width = 568;
},
{
anchors = (
{
name = top;
position = "{387, 690}";
}
);
background = {
paths = (
{
closed = 1;
nodes = (
"373 0 LINE",
"373 312 LINE",
"357 254 LINE",
"627 690 LINE",
"511 690 LINE",
"303 349 LINE",
"336 349 LINE",
"128 690 LINE",
"12 690 LINE",
"282 254 LINE",
"266 312 LINE",
"266 0 LINE"
);
}
);
};
guideLines = (
{
angle = 80;
position = "{258, -40}";
}
);
layerId = "161FAF72-C4C5-4DCB-BDD5-17E2433CDCDE";
paths = (
{
closed = 1;
nodes = (
"318 0 LINE",
"373 312 LINE",
"348 254 LINE",
"691 690 LINE",
"574 690 LINE",
"306 349 LINE",
"339 349 LINE",
"195 690 LINE",
"87 690 LINE",
"273 254 LINE",
"266 312 LINE",
"211 0 LINE"
);
}
);
width = 628;
}
);
unicode = 0059;
},
{
color = 4;
glyphname = Z;
lastChange = "2017-11-08 10:50:43 +0000";
layers = (
{
anchors = (
{
name = bottom;
position = "{237, 0}";
},
{
name = top;
position = "{359, 690}";
}
);
background = {
anchors = (
{
name = bottom;
position = "{284, 0}";
},
{
name = top;
position = "{284, 690}";
}
);
paths = (
{
closed = 1;
nodes = (
"21 690 LINE",
"21 513 LINE",
"347 513 LINE",
"331 548 LINE",
"21 172 LINE",
"21 0 LINE",
"555 0 LINE",
"555 177 LINE",
"229 177 LINE",
"245 142 LINE",
"555 518 LINE",
"555 690 LINE"
);
}
);
};
layerId = "4208D53D-8B52-43BA-A51E-290EEDFDCE51";
paths = (
{
closed = 1;
nodes = (
"96 690 LINE",
"65 513 LINE",
"376 513 LINE",
"366 548 LINE",
"4 172 LINE",
"-26 0 LINE",
"498 0 LINE",
"529 177 LINE",
"218 177 LINE",
"228 142 LINE",
"590 518 LINE",
"620 690 LINE"
);
}
);
width = 567;
},
{
anchors = (
{
name = bottom;
position = "{225, 0}";
},
{
name = top;
position = "{337, 690}";
}
);
background = {
anchors = (
{
name = bottom;
position = "{264, 0}";
},
{
name = top;
position = "{264, 690}";
}
);
paths = (
{
closed = 1;
nodes = (
"16 690 LINE",
"16 672 LINE",
"498 672 LINE",
"498 680 LINE",
"11 18 LINE",
"11 0 LINE",
"514 0 LINE",
"514 18 LINE",
"25 18 LINE",
"25 7 LINE",
"514 672 LINE",
"514 690 LINE"
);
}
);
};
layerId = "C0254B35-3FF0-4514-8990-BC8C3A6FFAB6";
paths = (
{
closed = 1;
nodes = (
"104 690 LINE",
"101 672 LINE",
"573 672 LINE",
"572 680 LINE",
"-20 18 LINE",
"-23 0 LINE",
"470 0 LINE",
"473 18 LINE",
"-6 18 LINE",
"-6 7 LINE",
"589 672 LINE",
"592 690 LINE"
);
}
);
width = 538;
},
{
anchors = (
{
name = bottom;
position = "{237, 0}";
},
{
name = top;
position = "{342, 690}";
}
);
background = {
paths = (
{
closed = 1;
nodes = (
"-3 690 LINE",
"-3 600 LINE",
"413 600 LINE",
"408 625 LINE",
"-6 82 LINE",
"-6 0 LINE",
"510 0 LINE",
"510 90 LINE",
"88 90 LINE",
"96 63 LINE",
"510 608 LINE",
"510 690 LINE"
);
}
);
};
layerId = "161FAF72-C4C5-4DCB-BDD5-17E2433CDCDE";
paths = (
{
closed = 1;
nodes = (
"111 690 LINE",
"95 600 LINE",
"482 600 LINE",
"482 625 LINE",
"-1 82 LINE",
"-16 0 LINE",
"479 0 LINE",
"495 90 LINE",
"102 90 LINE",
"105 63 LINE",
"589 608 LINE",
"603 690 LINE"
);
}
);
width = 558;
}
);
unicode = 005A;
},
{
color = 4;
glyphname = a;
lastChange = "2017-11-08 16:11:32 +0000";
layers = (
{
anchors = (
{
name = bottom;
position = "{229, 0}";
},
{
name = ogonek;
position = "{396, 0}";
},
{
name = top;
position = "{327, 535}";
}
);
background = {
anchors = (
{
name = bottom;
position = "{276, 0}";
},
{
name = ogonek;
position = "{438, 0}";
},
{
name = top;
position = "{294, 535}";
}
);
paths = (
{
closed = 1;
nodes = (
"282 -13 OFFCURVE",
"337 23 OFFCURVE",
"340 97 CURVE",
"331 97 LINE",
"357 0 LINE",
"528 0 LINE",
"528 361 LINE SMOOTH",
"528 479 OFFCURVE",
"453 550 OFFCURVE",
"294 550 CURVE SMOOTH",
"162 550 OFFCURVE",
"78 498 OFFCURVE",
"45 387 CURVE SMOOTH",
"31 340 LINE",
"230 340 LINE",
"235 357 LINE SMOOTH",
"242 382 OFFCURVE",
"260 394 OFFCURVE",
"290 394 CURVE SMOOTH",
"318 394 OFFCURVE",
"336 379 OFFCURVE",
"336 357 CURVE SMOOTH",
"336 348 LINE SMOOTH",
"336 330 OFFCURVE",
"331 323 OFFCURVE",
"309 320 CURVE SMOOTH",
"186 303 LINE SMOOTH",
"67 287 OFFCURVE",
"18 233 OFFCURVE",
"18 141 CURVE SMOOTH",
"18 44 OFFCURVE",
"95 -13 OFFCURVE",
"195 -13 CURVE SMOOTH"
);
},
{
closed = 1;
nodes = (
"241 125 OFFCURVE",
"223 138 OFFCURVE",
"223 165 CURVE SMOOTH",
"223 188 OFFCURVE",
"236 201 OFFCURVE",
"266 206 CURVE SMOOTH",
"312 214 LINE SMOOTH",
"335 218 OFFCURVE",
"344 227 OFFCURVE",
"349 247 CURVE",
"336 247 LINE",
"336 188 LINE SMOOTH",
"336 147 OFFCURVE",
"315 125 OFFCURVE",
"271 125 CURVE SMOOTH"
);
}
);
};
layerId = "4208D53D-8B52-43BA-A51E-290EEDFDCE51";
paths = (
{
closed = 1;
nodes = (
"247 -13 OFFCURVE",
"284 23 OFFCURVE",
"315 97 CURVE",
"306 97 LINE",
"319 0 LINE",
"481 0 LINE",
"540 338 LINE SMOOTH",
"543 353 OFFCURVE",
"544 368 OFFCURVE",
"544 382 CURVE SMOOTH",
"544 487 OFFCURVE",
"467 550 OFFCURVE",
"325 550 CURVE SMOOTH",
"165 550 OFFCURVE",
"92 486 OFFCURVE",
"49 340 CURVE",
"248 340 LINE",
"262 374 OFFCURVE",
"270 394 OFFCURVE",
"310 394 CURVE SMOOTH",
"336 394 OFFCURVE",
"352 384 OFFCURVE",
"352 362 CURVE SMOOTH",
"352 358 OFFCURVE",
"351 350 OFFCURVE",
"350 345 CURVE SMOOTH",
"347 328 OFFCURVE",
"339 320 OFFCURVE",
"318 318 CURVE SMOOTH",
"197 305 LINE SMOOTH",
"77 292 OFFCURVE",
"0 242 OFFCURVE",
"0 130 CURVE SMOOTH",
"0 42 OFFCURVE",
"65 -13 OFFCURVE",
"160 -13 CURVE SMOOTH"
);
},
{
closed = 1;
nodes = (
"221 125 OFFCURVE",
"205 139 OFFCURVE",
"205 162 CURVE SMOOTH",
"205 189 OFFCURVE",
"221 204 OFFCURVE",
"255 208 CURVE SMOOTH",
"302 213 LINE SMOOTH",
"326 216 OFFCURVE",
"337 227 OFFCURVE",
"345 247 CURVE",
"332 247 LINE",
"322 188 LINE SMOOTH",
"315 147 OFFCURVE",
"293 125 OFFCURVE",
"249 125 CURVE SMOOTH"
);
}
);
width = 565;
},
{
anchors = (
{
name = bottom;
position = "{212, 0}";
},
{
name = ogonek;
position = "{381, 0}";
},
{
name = top;
position = "{302, 515}";
}
);
background = {
anchors = (
{
name = bottom;
position = "{257, 0}";
},
{
name = ogonek;
position = "{431, 0}";
},
{
name = top;
position = "{267, 515}";
}
);
paths = (
{
closed = 1;
nodes = (
"330 -15 OFFCURVE",
"411 56 OFFCURVE",
"429 163 CURVE",
"420 160 LINE",
"422 0 LINE",
"438 0 LINE",
"438 372 LINE SMOOTH",
"438 474 OFFCURVE",
"377 530 OFFCURVE",
"269 530 CURVE SMOOTH",
"158 530 OFFCURVE",
"108 477 OFFCURVE",
"82 406 CURVE SMOOTH",
"67 365 LINE",
"87 365 LINE",
"101 403 LINE SMOOTH",
"124 465 OFFCURVE",
"166 512 OFFCURVE",
"269 512 CURVE SMOOTH",
"369 512 OFFCURVE",
"420 461 OFFCURVE",
"420 371 CURVE SMOOTH",
"420 339 LINE SMOOTH",
"420 318 OFFCURVE",
"403 305 OFFCURVE",
"375 298 CURVE SMOOTH",
"182 250 LINE SMOOTH",
"91 227 OFFCURVE",
"55 186 OFFCURVE",
"55 118 CURVE SMOOTH",
"55 31 OFFCURVE",
"118 -15 OFFCURVE",
"215 -15 CURVE SMOOTH"
);
},
{
closed = 1;
nodes = (
"128 3 OFFCURVE",
"74 42 OFFCURVE",
"74 117 CURVE SMOOTH",
"74 178 OFFCURVE",
"100 212 OFFCURVE",
"187 234 CURVE SMOOTH",
"376 281 LINE SMOOTH",
"408 289 OFFCURVE",
"423 299 OFFCURVE",
"425 322 CURVE",
"420 322 LINE",
"420 211 LINE SMOOTH",
"420 81 OFFCURVE",
"329 3 OFFCURVE",
"215 3 CURVE SMOOTH"
);
}
);
};
layerId = "C0254B35-3FF0-4514-8990-BC8C3A6FFAB6";
paths = (
{
closed = 1;
nodes = (
"284 -15 OFFCURVE",
"374 53 OFFCURVE",
"407 160 CURVE",
"398 160 LINE",
"372 0 LINE",
"388 0 LINE",
"451 359 LINE SMOOTH",
"453 372 OFFCURVE",
"454 385 OFFCURVE",
"454 396 CURVE SMOOTH",
"454 477 OFFCURVE",
"401 530 OFFCURVE",
"300 530 CURVE SMOOTH",
"183 530 OFFCURVE",
"138 471 OFFCURVE",
"91 365 CURVE",
"111 365 LINE",
"153 458 OFFCURVE",
"192 512 OFFCURVE",
"299 512 CURVE SMOOTH",
"393 512 OFFCURVE",
"435 467 OFFCURVE",
"435 395 CURVE SMOOTH",
"435 382 OFFCURVE",
"433 366 OFFCURVE",
"429 339 CURVE SMOOTH",
"426 318 OFFCURVE",
"406 304 OFFCURVE",
"377 298 CURVE SMOOTH",
"188 260 LINE SMOOTH",
"86 239 OFFCURVE",
"35 198 OFFCURVE",
"35 106 CURVE SMOOTH",
"35 36 OFFCURVE",
"85 -15 OFFCURVE",
"179 -15 CURVE SMOOTH"
);
},
{
closed = 1;
nodes = (
"95 3 OFFCURVE",
"54 45 OFFCURVE",
"54 107 CURVE SMOOTH",
"54 190 OFFCURVE",
"101 226 OFFCURVE",
"190 244 CURVE SMOOTH",
"375 281 LINE SMOOTH",
"410 288 OFFCURVE",
"425 299 OFFCURVE",
"431 322 CURVE",
"426 322 LINE",
"407 211 LINE SMOOTH",
"385 81 OFFCURVE",
"284 3 OFFCURVE",
"180 3 CURVE SMOOTH"
);
}
);
width = 513;
},
{
anchors = (
{
name = bottom;
position = "{218, 0}";
},
{
name = ogonek;
position = "{385, 0}";
},
{
name = top;
position = "{316, 525}";
}
);
background = {
paths = (
{
closed = 1;
nodes = (
"94 -15 OFFCURVE",
"191 -15 CURVE SMOOTH",
"284 -15 OFFCURVE",
"354 41 OFFCURVE",
"380 136 CURVE",
"357 133 LINE",
"343 0 LINE",
"425 0 LINE",
"487 352 LINE SMOOTH",
"509 479 OFFCURVE",
"437 539 OFFCURVE",
"318 540 CURVE SMOOTH",
"207 541 OFFCURVE",
"133 493 OFFCURVE",
"92 400 CURVE SMOOTH",
"73 357 LINE",
"173 357 LINE",
"186 387 LINE SMOOTH",
"205 431 OFFCURVE",
"242 462 OFFCURVE",
"313 461 CURVE SMOOTH",
"371 460 OFFCURVE",
"399 433 OFFCURVE",
"399 393 CURVE SMOOTH",
"399 381 OFFCURVE",
"395 362 OFFCURVE",
"392 350 CURVE SMOOTH",
"386 325 OFFCURVE",
"374 316 OFFCURVE",
"345 311 CURVE SMOOTH",
"186 286 LINE SMOOTH",
"90 271 OFFCURVE",
"27 212 OFFCURVE",
"26 131 CURVE SMOOTH",
"25 39 OFFCURVE"
);
},
{
closed = 1;
nodes = (
"291 61 OFFCURVE",
"213 61 CURVE SMOOTH",
"156 61 OFFCURVE",
"127 87 OFFCURVE",
"127 132 CURVE SMOOTH",
"127 181 OFFCURVE",
"155 210 OFFCURVE",
"216 220 CURVE SMOOTH",
"331 239 LINE SMOOTH",
"367 245 OFFCURVE",
"381 258 OFFCURVE",
"390 284 CURVE",
"380 283 LINE",
"364 192 LINE SMOOTH",
"350 114 OFFCURVE"
);
}
);
};
guideLines = (
{
angle = 80;
position = "{425, 0}";
},
{
angle = 8.9017;
position = "{179, 285}";
},
{
angle = 189.3815;
position = "{331, 239}";
}
);
layerId = "161FAF72-C4C5-4DCB-BDD5-17E2433CDCDE";
paths = (
{
closed = 1;
nodes = (
"284 -15 OFFCURVE",
"354 41 OFFCURVE",
"380 136 CURVE",
"357 133 LINE",
"343 0 LINE",
"425 0 LINE",
"486 346 LINE SMOOTH",
"489 363 OFFCURVE",
"491 380 OFFCURVE",
"491 397 CURVE SMOOTH",
"492 487 OFFCURVE",
"428 539 OFFCURVE",
"317 540 CURVE SMOOTH",
"203 541 OFFCURVE",
"126 497 OFFCURVE",
"73 357 CURVE",
"173 357 LINE",
"201 434 OFFCURVE",
"240 462 OFFCURVE",
"312 461 CURVE SMOOTH",
"371 460 OFFCURVE",
"399 433 OFFCURVE",
"399 393 CURVE SMOOTH",
"399 381 OFFCURVE",
"395 362 OFFCURVE",
"392 350 CURVE SMOOTH",
"386 325 OFFCURVE",
"374 315 OFFCURVE",
"345 311 CURVE SMOOTH",
"179 285 LINE SMOOTH",
"88 271 OFFCURVE",
"27 212 OFFCURVE",
"26 133 CURVE SMOOTH",
"25 39 OFFCURVE",
"94 -15 OFFCURVE",
"190 -15 CURVE SMOOTH"
);
},
{
closed = 1;
nodes = (
"156 61 OFFCURVE",
"127 87 OFFCURVE",
"127 132 CURVE SMOOTH",
"127 181 OFFCURVE",
"155 210 OFFCURVE",
"216 220 CURVE SMOOTH",
"331 239 LINE SMOOTH",
"367 245 OFFCURVE",
"381 258 OFFCURVE",
"390 284 CURVE",
"380 283 LINE",
"364 192 LINE SMOOTH",
"350 114 OFFCURVE",
"296 61 OFFCURVE",
"213 61 CURVE SMOOTH"
);
}
);
width = 533;
}
);
rightMetricsKey = "=n";
unicode = 0061;
},
{
color = 4;
glyphname = b;
lastChange = "2017-11-07 16:55:48 +0000";
layers = (
{
background = {
paths = (
{
closed = 1;
nodes = (
"156 750 LINE",
"24 0 LINE",
"206 0 LINE",
"237 81 LINE",
"249 81 LINE",
"275 28 OFFCURVE",
"320 -14 OFFCURVE",
"405 -14 CURVE SMOOTH",
"572 -14 OFFCURVE",
"653 150 OFFCURVE",
"653 341 CURVE SMOOTH",
"653 461 OFFCURVE",
"593 550 OFFCURVE",
"478 550 CURVE SMOOTH",
"398 550 OFFCURVE",
"349 514 OFFCURVE",
"315 455 CURVE",
"308 455 LINE",
"361 750 LINE"
);
},
{
closed = 1;
nodes = (
"295 151 OFFCURVE",
"269 183 OFFCURVE",
"269 233 CURVE SMOOTH",
"269 293 OFFCURVE",
"282 384 OFFCURVE",
"375 384 CURVE SMOOTH",
"422 384 OFFCURVE",
"447 352 OFFCURVE",
"447 302 CURVE SMOOTH",
"447 242 OFFCURVE",
"432 151 OFFCURVE",
"341 151 CURVE SMOOTH"
);
}
);
};
layerId = "4208D53D-8B52-43BA-A51E-290EEDFDCE51";
paths = (
{
closed = 1;
nodes = (
"544 -15 OFFCURVE",
"628 145 OFFCURVE",
"628 325 CURVE SMOOTH",
"628 460 OFFCURVE",
"568 550 OFFCURVE",
"449 550 CURVE SMOOTH",
"357 550 OFFCURVE",
"307 505 OFFCURVE",
"278 420 CURVE",
"284 407 LINE",
"343 740 LINE",
"128 740 LINE",
"-3 0 LINE",
"192 0 LINE",
"235 128 LINE",
"225 128 LINE",
"233 49 OFFCURVE",
"278 -15 OFFCURVE",
"380 -15 CURVE SMOOTH"
);
},
{
closed = 1;
nodes = (
"263 163 OFFCURVE",
"247 205 OFFCURVE",
"256 264 CURVE SMOOTH",
"258 277 LINE SMOOTH",
"267 336 OFFCURVE",
"288 371 OFFCURVE",
"343 371 CURVE SMOOTH",
"380 371 OFFCURVE",
"404 347 OFFCURVE",
"404 299 CURVE SMOOTH",
"404 230 OFFCURVE",
"384 163 OFFCURVE",
"318 163 CURVE SMOOTH"
);
}
);
width = 654;
},
{
background = {
paths = (
{
closed = 1;
nodes = (
"433 -15 OFFCURVE",
"521 143 OFFCURVE",
"521 326 CURVE SMOOTH",
"521 447 OFFCURVE",
"458 530 OFFCURVE",
"340 530 CURVE SMOOTH",
"240 530 OFFCURVE",
"161 465 OFFCURVE",
"122 364 CURVE",
"128 364 LINE",
"192 730 LINE",
"174 730 LINE",
"46 0 LINE",
"62 0 LINE",
"91 152 LINE",
"86 155 LINE",
"92 49 OFFCURVE",
"166 -15 OFFCURVE",
"262 -15 CURVE SMOOTH"
);
},
{
closed = 1;
nodes = (
"137 3 OFFCURVE",
"81 113 OFFCURVE",
"106 238 CURVE SMOOTH",
"113 278 LINE SMOOTH",
"141 436 OFFCURVE",
"242 512 OFFCURVE",
"337 512 CURVE SMOOTH",
"448 512 OFFCURVE",
"501 437 OFFCURVE",
"501 324 CURVE SMOOTH",
"501 152 OFFCURVE",
"423 3 OFFCURVE",
"263 3 CURVE SMOOTH"
);
}
);
};
layerId = "C0254B35-3FF0-4514-8990-BC8C3A6FFAB6";
paths = (
{
closed = 1;
nodes = (
"433 -15 OFFCURVE",
"521 143 OFFCURVE",
"521 326 CURVE SMOOTH",
"521 447 OFFCURVE",
"458 530 OFFCURVE",
"340 530 CURVE SMOOTH",
"240 530 OFFCURVE",
"161 465 OFFCURVE",
"122 364 CURVE",
"128 364 LINE",
"192 730 LINE",
"174 730 LINE",
"46 0 LINE",
"62 0 LINE",
"91 152 LINE",
"86 155 LINE",
"92 49 OFFCURVE",
"166 -15 OFFCURVE",
"262 -15 CURVE SMOOTH"
);
},
{
closed = 1;
nodes = (
"137 3 OFFCURVE",
"81 113 OFFCURVE",
"106 238 CURVE SMOOTH",
"113 278 LINE SMOOTH",
"141 436 OFFCURVE",
"242 512 OFFCURVE",
"337 512 CURVE SMOOTH",
"448 512 OFFCURVE",
"501 437 OFFCURVE",
"501 324 CURVE SMOOTH",
"501 152 OFFCURVE",
"423 3 OFFCURVE",
"263 3 CURVE SMOOTH"
);
}
);
width = 565;
},
{
background = {
paths = (
{
closed = 1;
nodes = (
"462 -15 OFFCURVE",
"566 136 OFFCURVE",
"566 314 CURVE SMOOTH",
"566 461 OFFCURVE",
"498 540 OFFCURVE",
"367 540 CURVE SMOOTH",
"283 540 OFFCURVE",
"202 485 OFFCURVE",
"164 387 CURVE",
"194 383 LINE",
"256 735 LINE",
"156 735 LINE",
"26 0 LINE",
"117 0 LINE",
"151 142 LINE",
"129 139 LINE",
"131 40 OFFCURVE",
"191 -15 OFFCURVE",
"294 -15 CURVE SMOOTH"
);
},
{
closed = 1;
nodes = (
"201 69 OFFCURVE",
"148 128 OFFCURVE",
"170 250 CURVE SMOOTH",
"175 278 LINE SMOOTH",
"196 394 OFFCURVE",
"253 455 OFFCURVE",
"335 455 CURVE SMOOTH",
"419 455 OFFCURVE",
"461 410 OFFCURVE",
"461 318 CURVE SMOOTH",
"461 175 OFFCURVE",
"400 69 OFFCURVE",
"285 69 CURVE SMOOTH"
);
}
);
};
layerId = "161FAF72-C4C5-4DCB-BDD5-17E2433CDCDE";
paths = (
{
closed = 1;
nodes = (
"462 -15 OFFCURVE",
"566 136 OFFCURVE",
"566 314 CURVE SMOOTH",
"566 461 OFFCURVE",
"498 540 OFFCURVE",
"367 540 CURVE SMOOTH",
"283 540 OFFCURVE",
"202 485 OFFCURVE",
"164 387 CURVE",
"194 383 LINE",
"256 735 LINE",
"156 735 LINE",
"26 0 LINE",
"117 0 LINE",
"151 142 LINE",
"129 139 LINE",
"131 40 OFFCURVE",
"191 -15 OFFCURVE",
"294 -15 CURVE SMOOTH"
);
},
{
closed = 1;
nodes = (
"201 69 OFFCURVE",
"148 128 OFFCURVE",
"170 250 CURVE SMOOTH",
"175 278 LINE SMOOTH",
"196 394 OFFCURVE",
"253 455 OFFCURVE",
"335 455 CURVE SMOOTH",
"419 455 OFFCURVE",
"461 410 OFFCURVE",
"461 318 CURVE SMOOTH",
"461 175 OFFCURVE",
"400 69 OFFCURVE",
"285 69 CURVE SMOOTH"
);
}
);
width = 604;
}
);
leftMetricsKey = n;
rightMetricsKey = o;
unicode = 0062;
},
{
color = 4;
glyphname = c;
lastChange = "2017-11-08 16:19:03 +0000";
layers = (
{
anchors = (
{
name = bottom;
position = "{276, 0}";
},
{
name = top;
position = "{328, 535}";
}
);
background = {
paths = (
{
closed = 1;
nodes = (
"478 -15 OFFCURVE",
"563 60 OFFCURVE",
"579 237 CURVE",
"376 237 LINE",
"369 177 OFFCURVE",
"350 155 OFFCURVE",
"314 155 CURVE SMOOTH",
"259 155 OFFCURVE",
"244 196 OFFCURVE",
"244 268 CURVE SMOOTH",
"244 340 OFFCURVE",
"259 380 OFFCURVE",
"314 380 CURVE SMOOTH",
"349 380 OFFCURVE",
"370 358 OFFCURVE",
"376 298 CURVE",
"579 298 LINE",
"563 472 OFFCURVE",
"478 550 OFFCURVE",
"309 550 CURVE SMOOTH",
"123 550 OFFCURVE",
"30 443 OFFCURVE",
"30 268 CURVE SMOOTH",
"30 89 OFFCURVE",
"121 -15 OFFCURVE",
"308 -15 CURVE SMOOTH"
);
}
);
};
layerId = "4208D53D-8B52-43BA-A51E-290EEDFDCE51";
paths = (
{
closed = 1;
nodes = (
"118 550 OFFCURVE",
"28 415 OFFCURVE",
"28 218 CURVE SMOOTH",
"28 72 OFFCURVE",
"120 -15 OFFCURVE",
"281 -15 CURVE SMOOTH",
"466 -15 OFFCURVE",
"543 80 OFFCURVE",
"571 237 CURVE",
"368 237 LINE",
"355 177 OFFCURVE",
"337 155 OFFCURVE",
"296 155 CURVE SMOOTH",
"256 155 OFFCURVE",
"241 185 OFFCURVE",
"241 237 CURVE SMOOTH",
"241 284 OFFCURVE",
"251 380 OFFCURVE",
"320 380 CURVE SMOOTH",
"368 380 OFFCURVE",
"377 347 OFFCURVE",
"378 298 CURVE",
"581 298 LINE",
"575 447 OFFCURVE",
"507 550 OFFCURVE",
"325 550 CURVE SMOOTH"
);
}
);
width = 604;
},
{
anchors = (
{
name = bottom;
position = "{229, 0}";
},
{
name = top;
position = "{303, 515}";
}
);
background = {
anchors = (
{
name = bottom;
position = "{267, 0}";
},
{
name = top;
position = "{265, 515}";
}
);
paths = (
{
closed = 1;
nodes = (
"374 -15 OFFCURVE",
"434 29 OFFCURVE",
"465 141 CURVE",
"445 141 LINE",
"419 45 OFFCURVE",
"365 3 OFFCURVE",
"266 3 CURVE SMOOTH",
"136 3 OFFCURVE",
"64 95 OFFCURVE",
"64 258 CURVE SMOOTH",
"64 420 OFFCURVE",
"137 512 OFFCURVE",
"266 512 CURVE SMOOTH",
"360 512 OFFCURVE",
"420 472 OFFCURVE",
"442 372 CURVE",
"462 372 LINE",
"435 484 OFFCURVE",
"373 530 OFFCURVE",
"266 530 CURVE SMOOTH",
"126 530 OFFCURVE",
"44 431 OFFCURVE",
"44 258 CURVE SMOOTH",
"44 84 OFFCURVE",
"125 -15 OFFCURVE",
"266 -15 CURVE SMOOTH"
);
}
);
};
layerId = "C0254B35-3FF0-4514-8990-BC8C3A6FFAB6";
paths = (
{
closed = 1;
nodes = (
"120 530 OFFCURVE",
"43 350 OFFCURVE",
"43 185 CURVE SMOOTH",
"43 57 OFFCURVE",
"115 -15 OFFCURVE",
"229 -15 CURVE SMOOTH",
"332 -15 OFFCURVE",
"399 29 OFFCURVE",
"439 141 CURVE",
"419 141 LINE",
"385 45 OFFCURVE",
"322 3 OFFCURVE",
"231 3 CURVE SMOOTH",
"125 3 OFFCURVE",
"63 67 OFFCURVE",
"63 186 CURVE SMOOTH",
"63 336 OFFCURVE",
"130 512 OFFCURVE",
"298 512 CURVE SMOOTH",
"388 512 OFFCURVE",
"440 465 OFFCURVE",
"454 372 CURVE",
"474 372 LINE",
"457 477 OFFCURVE",
"398 530 OFFCURVE",
"299 530 CURVE SMOOTH"
);
}
);
width = 499;
},
{
anchors = (
{
name = bottom;
position = "{256, 0}";
},
{
name = top;
position = "{320, 525}";
}
);
background = {
paths = (
{
closed = 1;
nodes = (
"375 -24 OFFCURVE",
"451 43 OFFCURVE",
"498 180 CURVE",
"400 180 LINE",
"369 104 OFFCURVE",
"325 65 OFFCURVE",
"253 71 CURVE SMOOTH",
"178 77 OFFCURVE",
"139 121 OFFCURVE",
"142 215 CURVE SMOOTH",
"147 351 OFFCURVE",
"201 463 OFFCURVE",
"324 454 CURVE SMOOTH",
"391 449 OFFCURVE",
"423 422 OFFCURVE",
"424 343 CURVE",
"521 343 LINE",
"524 472 OFFCURVE",
"459 533 OFFCURVE",
"338 540 CURVE SMOOTH",
"154 550 OFFCURVE",
"38 403 OFFCURVE",
"38 206 CURVE SMOOTH",
"38 73 OFFCURVE",
"107 -8 OFFCURVE",
"237 -16 CURVE SMOOTH"
);
}
);
};
layerId = "161FAF72-C4C5-4DCB-BDD5-17E2433CDCDE";
paths = (
{
closed = 1;
nodes = (
"145 540 OFFCURVE",
"38 403 OFFCURVE",
"38 207 CURVE SMOOTH",
"38 64 OFFCURVE",
"117 -17 OFFCURVE",
"256 -17 CURVE SMOOTH",
"386 -17 OFFCURVE",
"457 46 OFFCURVE",
"500 180 CURVE",
"400 180 LINE",
"371 105 OFFCURVE",
"332 70 OFFCURVE",
"262 70 CURVE SMOOTH",
"182 70 OFFCURVE",
"139 118 OFFCURVE",
"142 212 CURVE SMOOTH",
"146 346 OFFCURVE",
"197 455 OFFCURVE",
"313 455 CURVE SMOOTH",
"389 455 OFFCURVE",
"421 422 OFFCURVE",
"424 343 CURVE",
"521 343 LINE",
"521 472 OFFCURVE",
"455 540 OFFCURVE",
"319 540 CURVE SMOOTH"
);
}
);
width = 545;
},
{
anchors = (
{
name = bottom;
position = "{287, 0}";
},
{
name = top;
position = "{286, 525}";
}
);
associatedMasterId = "161FAF72-C4C5-4DCB-BDD5-17E2433CDCDE";
background = {
paths = (
{
closed = 1;
nodes = (
"421 -16 OFFCURVE",
"490 43 OFFCURVE",
"516 180 CURVE",
"418 180 LINE",
"401 104 OFFCURVE",
"362 71 OFFCURVE",
"288 71 CURVE SMOOTH",
"191 71 OFFCURVE",
"143 140 OFFCURVE",
"143 262 CURVE SMOOTH",
"143 387 OFFCURVE",
"192 454 OFFCURVE",
"290 454 CURVE SMOOTH",
"360 454 OFFCURVE",
"400 422 OFFCURVE",
"416 343 CURVE",
"514 343 LINE",
"490 479 OFFCURVE",
"423 540 OFFCURVE",
"287 540 CURVE SMOOTH",
"131 540 OFFCURVE",
"40 438 OFFCURVE",
"40 262 CURVE SMOOTH",
"40 86 OFFCURVE",
"129 -16 OFFCURVE",
"288 -16 CURVE SMOOTH"
);
}
);
};
layerId = "73149DE0-95AD-44AC-89C0-1120248D12F3";
name = "Sep 5 17, 16:06";
paths = (
{
closed = 1;
nodes = (
"421 -16 OFFCURVE",
"490 43 OFFCURVE",
"516 180 CURVE",
"418 180 LINE",
"401 104 OFFCURVE",
"362 71 OFFCURVE",
"288 71 CURVE SMOOTH",
"191 71 OFFCURVE",
"143 140 OFFCURVE",
"143 262 CURVE SMOOTH",
"143 387 OFFCURVE",
"192 454 OFFCURVE",
"290 454 CURVE SMOOTH",
"360 454 OFFCURVE",
"400 422 OFFCURVE",
"416 343 CURVE",
"514 343 LINE",
"490 479 OFFCURVE",
"423 540 OFFCURVE",
"287 540 CURVE SMOOTH",
"131 540 OFFCURVE",
"40 438 OFFCURVE",
"40 262 CURVE SMOOTH",
"40 86 OFFCURVE",
"129 -16 OFFCURVE",
"288 -16 CURVE SMOOTH"
);
}
);
width = 550;
},
{
anchors = (
{
name = bottom;
position = "{310, 0}";
},
{
name = top;
position = "{306, 535}";
}
);
associatedMasterId = "4208D53D-8B52-43BA-A51E-290EEDFDCE51";
background = {
paths = (
{
closed = 1;
nodes = (
"498 -17 OFFCURVE",
"559 85 OFFCURVE",
"576 212 CURVE SMOOTH",
"579 235 LINE",
"376 235 LINE",
"373 217 LINE SMOOTH",
"367 179 OFFCURVE",
"345 159 OFFCURVE",
"314 159 CURVE SMOOTH",
"260 159 OFFCURVE",
"246 198 OFFCURVE",
"246 267 CURVE SMOOTH",
"246 334 OFFCURVE",
"260 371 OFFCURVE",
"314 371 CURVE SMOOTH",
"345 371 OFFCURVE",
"367 352 OFFCURVE",
"373 316 CURVE SMOOTH",
"376 298 LINE",
"579 298 LINE",
"576 321 LINE SMOOTH",
"559 448 OFFCURVE",
"502 550 OFFCURVE",
"310 550 CURVE SMOOTH",
"120 550 OFFCURVE",
"28 443 OFFCURVE",
"28 267 CURVE SMOOTH",
"28 87 OFFCURVE",
"117 -17 OFFCURVE",
"313 -17 CURVE SMOOTH"
);
}
);
};
layerId = "E4AA6BE1-D08F-46A8-9CA5-BCECCEEFB6BD";
name = "Sep 5 17, 16:06";
paths = (
{
closed = 1;
nodes = (
"478 -15 OFFCURVE",
"563 60 OFFCURVE",
"579 237 CURVE",
"376 237 LINE",
"369 181 OFFCURVE",
"350 161 OFFCURVE",
"314 161 CURVE SMOOTH",
"260 161 OFFCURVE",
"246 200 OFFCURVE",
"246 268 CURVE SMOOTH",
"246 334 OFFCURVE",
"260 371 OFFCURVE",
"314 371 CURVE SMOOTH",
"349 371 OFFCURVE",
"370 351 OFFCURVE",
"376 298 CURVE",
"579 298 LINE",
"563 472 OFFCURVE",
"478 550 OFFCURVE",
"309 550 CURVE SMOOTH",
"120 550 OFFCURVE",
"28 443 OFFCURVE",
"28 268 CURVE SMOOTH",
"28 89 OFFCURVE",
"118 -15 OFFCURVE",
"308 -15 CURVE SMOOTH"
);
}
);
width = 607;
},
{
anchors = (
{
name = bottom;
position = "{271, 0}";
},
{
name = top;
position = "{269, 515}";
}
);
associatedMasterId = "C0254B35-3FF0-4514-8990-BC8C3A6FFAB6";
background = {
paths = (
{
closed = 1;
nodes = (
"373 -15 OFFCURVE",
"433 26 OFFCURVE",
"464 125 CURVE SMOOTH",
"469 141 LINE",
"449 141 LINE",
"445 128 LINE SMOOTH",
"418 40 OFFCURVE",
"362 3 OFFCURVE",
"270 3 CURVE SMOOTH",
"140 3 OFFCURVE",
"68 95 OFFCURVE",
"68 258 CURVE SMOOTH",
"68 420 OFFCURVE",
"141 512 OFFCURVE",
"270 512 CURVE SMOOTH",
"364 512 OFFCURVE",
"424 472 OFFCURVE",
"446 372 CURVE",
"466 372 LINE",
"439 484 OFFCURVE",
"377 530 OFFCURVE",
"270 530 CURVE SMOOTH",
"130 530 OFFCURVE",
"48 431 OFFCURVE",
"48 258 CURVE SMOOTH",
"48 84 OFFCURVE",
"129 -15 OFFCURVE",
"270 -15 CURVE SMOOTH"
);
}
);
};
layerId = "61ADC4AC-DCD8-4EB6-9D68-42DA66C644D0";
name = "Sep 5 17, 16:06";
paths = (
{
closed = 1;
nodes = (
"378 -15 OFFCURVE",
"438 29 OFFCURVE",
"469 141 CURVE",
"449 141 LINE",
"423 45 OFFCURVE",
"369 3 OFFCURVE",
"270 3 CURVE SMOOTH",
"140 3 OFFCURVE",
"68 95 OFFCURVE",
"68 258 CURVE SMOOTH",
"68 420 OFFCURVE",
"141 512 OFFCURVE",
"270 512 CURVE SMOOTH",
"364 512 OFFCURVE",
"424 472 OFFCURVE",
"446 372 CURVE",
"466 372 LINE",
"439 484 OFFCURVE",
"377 530 OFFCURVE",
"270 530 CURVE SMOOTH",
"130 530 OFFCURVE",
"48 431 OFFCURVE",
"48 258 CURVE SMOOTH",
"48 84 OFFCURVE",
"129 -15 OFFCURVE",
"270 -15 CURVE SMOOTH"
);
}
);
width = 511;
}
);
leftMetricsKey = "=o";
unicode = 0063;
},
{
color = 4;
glyphname = d;
lastChange = "2017-11-08 17:07:17 +0000";
layers = (
{
associatedMasterId = "C0254B35-3FF0-4514-8990-BC8C3A6FFAB6";
layerId = "D1781237-526E-43BB-92F1-B97ED8A3A831";
name = "Bold Universal Display Aug 3 16, 18:27";
paths = (
{
closed = 1;
nodes = (
"356 -13 OFFCURVE",
"412 48 OFFCURVE",
"426 133 CURVE",
"407 223 LINE",
"407 153 OFFCURVE",
"369 113 OFFCURVE",
"297 113 CURVE SMOOTH",
"232 113 OFFCURVE",
"188 158 OFFCURVE",
"188 260 CURVE SMOOTH",
"188 356 OFFCURVE",
"234 411 OFFCURVE",
"306 411 CURVE SMOOTH",
"372 411 OFFCURVE",
"407 369 OFFCURVE",
"407 289 CURVE",
"426 379 LINE",
"414 476 OFFCURVE",
"367 537 OFFCURVE",
"268 537 CURVE SMOOTH",
"127 537 OFFCURVE",
"40 418 OFFCURVE",
"40 261 CURVE SMOOTH",
"40 91 OFFCURVE",
"125 -13 OFFCURVE",
"253 -13 CURVE SMOOTH"
);
},
{
closed = 1;
nodes = (
"547 0 LINE",
"547 720 LINE",
"407 720 LINE",
"407 0 LINE"
);
}
);
width = 612;
},
{
associatedMasterId = "C0254B35-3FF0-4514-8990-BC8C3A6FFAB6";
background = {
paths = (
{
closed = 1;
nodes = (
"559 0 LINE",
"559 720 LINE",
"419 720 LINE",
"419 0 LINE"
);
},
{
closed = 0;
nodes = (
"421 224 LINE",
"421 151 OFFCURVE",
"376 112 OFFCURVE",
"301 113 CURVE SMOOTH",
"227 114 OFFCURVE",
"186 167 OFFCURVE",
"186 264 CURVE SMOOTH"
);
},
{
closed = 0;
nodes = (
"38 264 LINE",
"38 110 OFFCURVE",
"121 -13 OFFCURVE",
"266 -13 CURVE SMOOTH",
"352 -13 OFFCURVE",
"425 36 OFFCURVE",
"431 119 CURVE"
);
}
);
};
layerId = "B93DE178-1C45-43C7-B222-A39E5E4202F9";
name = "Bold Universal Display Aug 3 16, 18:44";
paths = (
{
closed = 1;
nodes = (
"351 -13 OFFCURVE",
"423 47 OFFCURVE",
"429 131 CURVE",
"429 235 LINE",
"417 235 LINE",
"417 168 OFFCURVE",
"374 118 OFFCURVE",
"308 118 CURVE SMOOTH",
"231 118 OFFCURVE",
"188 168 OFFCURVE",
"188 264 CURVE SMOOTH",
"188 360 OFFCURVE",
"231 410 OFFCURVE",
"308 410 CURVE SMOOTH",
"374 410 OFFCURVE",
"417 360 OFFCURVE",
"417 293 CURVE",
"429 293 LINE",
"429 397 LINE",
"423 480 OFFCURVE",
"351 541 OFFCURVE",
"267 541 CURVE SMOOTH",
"132 541 OFFCURVE",
"40 430 OFFCURVE",
"40 264 CURVE SMOOTH",
"40 98 OFFCURVE",
"132 -13 OFFCURVE",
"268 -13 CURVE SMOOTH"
);
},
{
closed = 1;
nodes = (
"557 0 LINE",
"557 720 LINE",
"417 720 LINE",
"417 0 LINE"
);
}
);
width = 622;
},
{
associatedMasterId = "C0254B35-3FF0-4514-8990-BC8C3A6FFAB6";
layerId = "B5272F17-9DAE-4272-91E8-5B8E16965A5B";
name = "Bold Universal Display Aug 3 16, 18:27";
paths = (
{
closed = 1;
nodes = (
"356 -13 OFFCURVE",
"412 48 OFFCURVE",
"426 133 CURVE",
"407 223 LINE",
"407 153 OFFCURVE",
"369 113 OFFCURVE",
"297 113 CURVE SMOOTH",
"232 113 OFFCURVE",
"188 158 OFFCURVE",
"188 260 CURVE SMOOTH",
"188 356 OFFCURVE",
"234 411 OFFCURVE",
"306 411 CURVE SMOOTH",
"372 411 OFFCURVE",
"407 369 OFFCURVE",
"407 289 CURVE",
"426 379 LINE",
"414 476 OFFCURVE",
"367 537 OFFCURVE",
"268 537 CURVE SMOOTH",
"127 537 OFFCURVE",
"40 418 OFFCURVE",
"40 261 CURVE SMOOTH",
"40 91 OFFCURVE",
"125 -13 OFFCURVE",
"253 -13 CURVE SMOOTH"
);
},
{
closed = 1;
nodes = (
"547 0 LINE",
"547 720 LINE",
"407 720 LINE",
"407 0 LINE"
);
}
);
width = 612;
},
{
associatedMasterId = "C0254B35-3FF0-4514-8990-BC8C3A6FFAB6";
background = {
paths = (
{
closed = 1;
nodes = (
"559 0 LINE",
"559 720 LINE",
"419 720 LINE",
"419 0 LINE"
);
},
{
closed = 0;
nodes = (
"421 224 LINE",
"421 151 OFFCURVE",
"376 112 OFFCURVE",
"301 113 CURVE SMOOTH",
"227 114 OFFCURVE",
"186 167 OFFCURVE",
"186 264 CURVE SMOOTH"
);
},
{
closed = 0;
nodes = (
"38 264 LINE",
"38 110 OFFCURVE",
"121 -13 OFFCURVE",
"266 -13 CURVE SMOOTH",
"352 -13 OFFCURVE",
"425 36 OFFCURVE",
"431 119 CURVE"
);
}
);
};
layerId = "3B9642CD-4934-46DB-8D3D-E81EA434E5A0";
name = "Bold Universal Display Aug 3 16, 18:44";
paths = (
{
closed = 1;
nodes = (
"351 -13 OFFCURVE",
"423 47 OFFCURVE",
"429 131 CURVE",
"429 235 LINE",
"417 235 LINE",
"417 168 OFFCURVE",
"374 118 OFFCURVE",
"308 118 CURVE SMOOTH",
"231 118 OFFCURVE",
"188 168 OFFCURVE",
"188 264 CURVE SMOOTH",
"188 360 OFFCURVE",
"231 410 OFFCURVE",
"308 410 CURVE SMOOTH",
"374 410 OFFCURVE",
"417 360 OFFCURVE",
"417 293 CURVE",
"429 293 LINE",
"429 397 LINE",
"423 480 OFFCURVE",
"351 541 OFFCURVE",
"267 541 CURVE SMOOTH",
"132 541 OFFCURVE",
"40 430 OFFCURVE",
"40 264 CURVE SMOOTH",
"40 98 OFFCURVE",
"132 -13 OFFCURVE",
"268 -13 CURVE SMOOTH"
);
},
{
closed = 1;
nodes = (
"557 0 LINE",
"557 720 LINE",
"417 720 LINE",
"417 0 LINE"
);
}
);
width = 622;
},
{
anchors = (
{
name = topright;
position = "{759, 535}";
}
);
background = {
paths = (
{
closed = 1;
nodes = (
"358 -15 OFFCURVE",
"414 41 OFFCURVE",
"425 118 CURVE",
"410 126 LINE",
"430 0 LINE",
"625 0 LINE",
"625 740 LINE",
"410 740 LINE",
"410 407 LINE",
"418 420 LINE",
"404 505 OFFCURVE",
"347 550 OFFCURVE",
"255 550 CURVE SMOOTH",
"120 550 OFFCURVE",
"35 441 OFFCURVE",
"35 269 CURVE SMOOTH",
"35 99 OFFCURVE",
"120 -15 OFFCURVE",
"255 -15 CURVE SMOOTH"
);
},
{
closed = 1;
nodes = (
"286 164 OFFCURVE",
"259 198 OFFCURVE",
"259 269 CURVE SMOOTH",
"259 340 OFFCURVE",
"286 372 OFFCURVE",
"336 372 CURVE SMOOTH",
"386 372 OFFCURVE",
"413 339 OFFCURVE",
"413 271 CURVE SMOOTH",
"413 267 LINE SMOOTH",
"413 199 OFFCURVE",
"386 164 OFFCURVE",
"336 164 CURVE SMOOTH"
);
}
);
};
layerId = "4208D53D-8B52-43BA-A51E-290EEDFDCE51";
paths = (
{
closed = 1;
nodes = (
"313 -15 OFFCURVE",
"357 39 OFFCURVE",
"392 126 CURVE",
"380 126 LINE",
"389 0 LINE",
"563 0 LINE",
"694 740 LINE",
"479 740 LINE",
"420 407 LINE",
"430 407 LINE",
"421 492 OFFCURVE",
"372 550 OFFCURVE",
"275 550 CURVE SMOOTH",
"107 550 OFFCURVE",
"27 388 OFFCURVE",
"27 210 CURVE SMOOTH",
"27 75 OFFCURVE",
"87 -15 OFFCURVE",
"205 -15 CURVE SMOOTH"
);
},
{
closed = 1;
nodes = (
"275 166 OFFCURVE",
"251 190 OFFCURVE",
"251 236 CURVE SMOOTH",
"251 305 OFFCURVE",
"271 372 OFFCURVE",
"337 372 CURVE SMOOTH",
"392 372 OFFCURVE",
"408 330 OFFCURVE",
"399 271 CURVE SMOOTH",
"397 258 LINE SMOOTH",
"388 201 OFFCURVE",
"367 166 OFFCURVE",
"312 166 CURVE SMOOTH"
);
}
);
width = 655;
},
{
associatedMasterId = "4208D53D-8B52-43BA-A51E-290EEDFDCE51";
background = {
paths = (
{
closed = 1;
nodes = (
"353 -13 OFFCURVE",
"424 44 OFFCURVE",
"430 127 CURVE",
"409 249 LINE",
"409 196 OFFCURVE",
"373 165 OFFCURVE",
"336 165 CURVE SMOOTH",
"280 165 OFFCURVE",
"254 201 OFFCURVE",
"254 264 CURVE SMOOTH",
"254 325 OFFCURVE",
"280 362 OFFCURVE",
"336 362 CURVE SMOOTH",
"373 362 OFFCURVE",
"409 331 OFFCURVE",
"409 279 CURVE",
"430 401 LINE",
"424 485 OFFCURVE",
"353 543 OFFCURVE",
"258 543 CURVE SMOOTH",
"122 543 OFFCURVE",
"30 432 OFFCURVE",
"30 264 CURVE SMOOTH",
"30 97 OFFCURVE",
"122 -13 OFFCURVE",
"258 -13 CURVE SMOOTH"
);
},
{
closed = 1;
nodes = (
"624 0 LINE",
"624 720 LINE",
"409 720 LINE",
"409 126 LINE",
"429 0 LINE"
);
}
);
};
layerId = "1B61C6FC-C27B-40AE-8A63-AF0FA6ED4613";
name = "Bold Universal Display Sep 26 16, 16:51";
paths = (
{
closed = 1;
nodes = (
"353 -13 OFFCURVE",
"424 44 OFFCURVE",
"430 127 CURVE",
"409 249 LINE",
"409 196 OFFCURVE",
"373 165 OFFCURVE",
"336 165 CURVE SMOOTH",
"280 165 OFFCURVE",
"254 201 OFFCURVE",
"254 264 CURVE SMOOTH",
"254 325 OFFCURVE",
"280 362 OFFCURVE",
"336 362 CURVE SMOOTH",
"373 362 OFFCURVE",
"409 331 OFFCURVE",
"409 279 CURVE",
"430 401 LINE",
"424 485 OFFCURVE",
"353 543 OFFCURVE",
"258 543 CURVE SMOOTH",
"122 543 OFFCURVE",
"30 432 OFFCURVE",
"30 264 CURVE SMOOTH",
"30 97 OFFCURVE",
"122 -13 OFFCURVE",
"258 -13 CURVE SMOOTH"
);
},
{
closed = 1;
nodes = (
"624 0 LINE",
"624 720 LINE",
"409 720 LINE",
"409 126 LINE",
"429 0 LINE"
);
}
);
width = 668;
},
{
associatedMasterId = "4208D53D-8B52-43BA-A51E-290EEDFDCE51";
background = {
paths = (
{
closed = 1;
nodes = (
"620 0 LINE",
"620 720 LINE",
"405 720 LINE",
"405 115 LINE",
"428 0 LINE"
);
},
{
closed = 1;
nodes = (
"401 189 OFFCURVE",
"375 159 OFFCURVE",
"328 159 CURVE SMOOTH",
"281 159 OFFCURVE",
"255 194 OFFCURVE",
"255 264 CURVE SMOOTH",
"255 334 OFFCURVE",
"281 369 OFFCURVE",
"328 369 CURVE SMOOTH",
"375 369 OFFCURVE",
"401 339 OFFCURVE",
"405 279 CURVE",
"423 369 LINE",
"397 490 OFFCURVE",
"355 543 OFFCURVE",
"259 543 CURVE SMOOTH",
"121 543 OFFCURVE",
"30 432 OFFCURVE",
"30 264 CURVE SMOOTH",
"30 96 OFFCURVE",
"121 -13 OFFCURVE",
"259 -13 CURVE SMOOTH",
"355 -13 OFFCURVE",
"423 44 OFFCURVE",
"429 127 CURVE",
"405 249 LINE"
);
}
);
};
layerId = "5D0F2744-AC12-45FC-A133-888E95E7750C";
name = "Bold Apr 20 17, 11:00";
paths = (
{
closed = 1;
nodes = (
"620 0 LINE",
"620 720 LINE",
"405 720 LINE",
"405 126 LINE",
"425 0 LINE"
);
},
{
closed = 1;
nodes = (
"401 189 OFFCURVE",
"375 159 OFFCURVE",
"328 159 CURVE SMOOTH",
"281 159 OFFCURVE",
"255 194 OFFCURVE",
"255 264 CURVE SMOOTH",
"255 334 OFFCURVE",
"281 369 OFFCURVE",
"328 369 CURVE SMOOTH",
"375 369 OFFCURVE",
"401 339 OFFCURVE",
"405 279 CURVE",
"429 401 LINE",
"423 485 OFFCURVE",
"355 543 OFFCURVE",
"259 543 CURVE SMOOTH",
"121 543 OFFCURVE",
"30 432 OFFCURVE",
"30 264 CURVE SMOOTH",
"30 96 OFFCURVE",
"121 -13 OFFCURVE",
"259 -13 CURVE SMOOTH",
"355 -13 OFFCURVE",
"423 44 OFFCURVE",
"429 127 CURVE",
"405 249 LINE"
);
}
);
width = 664;
},
{
associatedMasterId = "C0254B35-3FF0-4514-8990-BC8C3A6FFAB6";
background = {
paths = (
{
closed = 1;
nodes = (
"356 -14 OFFCURVE",
"422 44 OFFCURVE",
"431 130 CURVE",
"414 239 LINE",
"414 161 OFFCURVE",
"368 115 OFFCURVE",
"305 115 CURVE SMOOTH",
"231 115 OFFCURVE",
"185 166 OFFCURVE",
"185 263 CURVE SMOOTH",
"185 360 OFFCURVE",
"231 411 OFFCURVE",
"305 411 CURVE SMOOTH",
"368 411 OFFCURVE",
"414 365 OFFCURVE",
"414 287 CURVE",
"431 396 LINE",
"422 482 OFFCURVE",
"356 540 OFFCURVE",
"263 540 CURVE SMOOTH",
"130 540 OFFCURVE",
"39 427 OFFCURVE",
"39 263 CURVE SMOOTH",
"39 99 OFFCURVE",
"130 -14 OFFCURVE",
"263 -14 CURVE SMOOTH"
);
},
{
closed = 1;
nodes = (
"554 0 LINE",
"554 720 LINE",
"414 720 LINE",
"414 135 LINE",
"424 0 LINE"
);
}
);
};
layerId = "7F722C52-7B95-4EA1-B321-EC1FDB2138E4";
name = "May 19 17, 18:00";
paths = (
{
closed = 1;
nodes = (
"356 -14 OFFCURVE",
"422 44 OFFCURVE",
"431 130 CURVE",
"414 239 LINE",
"414 161 OFFCURVE",
"368 115 OFFCURVE",
"305 115 CURVE SMOOTH",
"231 115 OFFCURVE",
"185 166 OFFCURVE",
"185 263 CURVE SMOOTH",
"185 360 OFFCURVE",
"231 411 OFFCURVE",
"305 411 CURVE SMOOTH",
"368 411 OFFCURVE",
"414 365 OFFCURVE",
"414 287 CURVE",
"431 396 LINE",
"422 482 OFFCURVE",
"356 540 OFFCURVE",
"263 540 CURVE SMOOTH",
"130 540 OFFCURVE",
"39 427 OFFCURVE",
"39 263 CURVE SMOOTH",
"39 99 OFFCURVE",
"130 -14 OFFCURVE",
"263 -14 CURVE SMOOTH"
);
},
{
closed = 1;
nodes = (
"554 0 LINE",
"554 720 LINE",
"414 720 LINE",
"414 135 LINE",
"424 0 LINE"
);
}
);
width = 619;
},
{
associatedMasterId = "C0254B35-3FF0-4514-8990-BC8C3A6FFAB6";
background = {
paths = (
{
closed = 1;
nodes = (
"356 -14 OFFCURVE",
"422 44 OFFCURVE",
"431 130 CURVE",
"414 239 LINE",
"414 161 OFFCURVE",
"368 115 OFFCURVE",
"305 115 CURVE SMOOTH",
"229 115 OFFCURVE",
"185 166 OFFCURVE",
"185 263 CURVE SMOOTH",
"185 360 OFFCURVE",
"229 411 OFFCURVE",
"305 411 CURVE SMOOTH",
"368 411 OFFCURVE",
"414 365 OFFCURVE",
"414 287 CURVE",
"431 396 LINE",
"422 482 OFFCURVE",
"356 540 OFFCURVE",
"261 540 CURVE SMOOTH",
"130 540 OFFCURVE",
"39 427 OFFCURVE",
"39 263 CURVE SMOOTH",
"39 99 OFFCURVE",
"130 -14 OFFCURVE",
"261 -14 CURVE SMOOTH"
);
},
{
closed = 1;
nodes = (
"554 0 LINE",
"554 720 LINE",
"414 720 LINE",
"414 135 LINE",
"424 0 LINE"
);
}
);
};
layerId = "C0033FA9-A2EB-4337-87D0-F727C38F1883";
name = "May 19 17, 18:03";
paths = (
{
closed = 1;
nodes = (
"356 -14 OFFCURVE",
"422 44 OFFCURVE",
"431 130 CURVE",
"414 239 LINE",
"414 161 OFFCURVE",
"368 115 OFFCURVE",
"305 115 CURVE SMOOTH",
"229 115 OFFCURVE",
"185 166 OFFCURVE",
"185 263 CURVE SMOOTH",
"185 360 OFFCURVE",
"229 411 OFFCURVE",
"305 411 CURVE SMOOTH",
"368 411 OFFCURVE",
"414 365 OFFCURVE",
"414 287 CURVE",
"431 396 LINE",
"422 482 OFFCURVE",
"356 540 OFFCURVE",
"261 540 CURVE SMOOTH",
"130 540 OFFCURVE",
"39 427 OFFCURVE",
"39 263 CURVE SMOOTH",
"39 99 OFFCURVE",
"130 -14 OFFCURVE",
"261 -14 CURVE SMOOTH"
);
},
{
closed = 1;
nodes = (
"554 0 LINE",
"554 720 LINE",
"414 720 LINE",
"414 135 LINE",
"424 0 LINE"
);
}
);
width = 619;
},
{
associatedMasterId = "C0254B35-3FF0-4514-8990-BC8C3A6FFAB6";
layerId = "0C8FA35F-B20B-4EA8-A8AE-A9A0A18AD2C9";
name = "Bold Universal Display Aug 3 16, 18:27";
paths = (
{
closed = 1;
nodes = (
"356 -13 OFFCURVE",
"412 48 OFFCURVE",
"426 133 CURVE",
"407 223 LINE",
"407 153 OFFCURVE",
"369 113 OFFCURVE",
"297 113 CURVE SMOOTH",
"232 113 OFFCURVE",
"188 158 OFFCURVE",
"188 260 CURVE SMOOTH",
"188 356 OFFCURVE",
"234 411 OFFCURVE",
"306 411 CURVE SMOOTH",
"372 411 OFFCURVE",
"407 369 OFFCURVE",
"407 289 CURVE",
"426 379 LINE",
"414 476 OFFCURVE",
"367 537 OFFCURVE",
"268 537 CURVE SMOOTH",
"127 537 OFFCURVE",
"40 418 OFFCURVE",
"40 261 CURVE SMOOTH",
"40 91 OFFCURVE",
"125 -13 OFFCURVE",
"253 -13 CURVE SMOOTH"
);
},
{
closed = 1;
nodes = (
"547 0 LINE",
"547 720 LINE",
"407 720 LINE",
"407 0 LINE"
);
}
);
width = 612;
},
{
associatedMasterId = "C0254B35-3FF0-4514-8990-BC8C3A6FFAB6";
background = {
paths = (
{
closed = 1;
nodes = (
"559 0 LINE",
"559 720 LINE",
"419 720 LINE",
"419 0 LINE"
);
},
{
closed = 0;
nodes = (
"421 224 LINE",
"421 151 OFFCURVE",
"376 112 OFFCURVE",
"301 113 CURVE SMOOTH",
"227 114 OFFCURVE",
"186 167 OFFCURVE",
"186 264 CURVE SMOOTH"
);
},
{
closed = 0;
nodes = (
"38 264 LINE",
"38 110 OFFCURVE",
"121 -13 OFFCURVE",
"266 -13 CURVE SMOOTH",
"352 -13 OFFCURVE",
"425 36 OFFCURVE",
"431 119 CURVE"
);
}
);
};
layerId = "8D9E9DB4-7AD1-4239-8E45-CAEDA9B1C0BE";
name = "Bold Universal Display Aug 3 16, 18:44";
paths = (
{
closed = 1;
nodes = (
"351 -13 OFFCURVE",
"423 47 OFFCURVE",
"429 131 CURVE",
"429 235 LINE",
"417 235 LINE",
"417 168 OFFCURVE",
"374 118 OFFCURVE",
"308 118 CURVE SMOOTH",
"231 118 OFFCURVE",
"188 168 OFFCURVE",
"188 264 CURVE SMOOTH",
"188 360 OFFCURVE",
"231 410 OFFCURVE",
"308 410 CURVE SMOOTH",
"374 410 OFFCURVE",
"417 360 OFFCURVE",
"417 293 CURVE",
"429 293 LINE",
"429 397 LINE",
"423 480 OFFCURVE",
"351 541 OFFCURVE",
"267 541 CURVE SMOOTH",
"132 541 OFFCURVE",
"40 430 OFFCURVE",
"40 264 CURVE SMOOTH",
"40 98 OFFCURVE",
"132 -13 OFFCURVE",
"268 -13 CURVE SMOOTH"
);
},
{
closed = 1;
nodes = (
"557 0 LINE",
"557 720 LINE",
"417 720 LINE",
"417 0 LINE"
);
}
);
width = 622;
},
{
associatedMasterId = "C0254B35-3FF0-4514-8990-BC8C3A6FFAB6";
layerId = "4E9FF8F6-C22C-4F79-91CE-EBC91CCD09B6";
name = "Bold Universal Display Aug 3 16, 18:27";
paths = (
{
closed = 1;
nodes = (
"356 -13 OFFCURVE",
"412 48 OFFCURVE",
"426 133 CURVE",
"407 223 LINE",
"407 153 OFFCURVE",
"369 113 OFFCURVE",
"297 113 CURVE SMOOTH",
"232 113 OFFCURVE",
"188 158 OFFCURVE",
"188 260 CURVE SMOOTH",
"188 356 OFFCURVE",
"234 411 OFFCURVE",
"306 411 CURVE SMOOTH",
"372 411 OFFCURVE",
"407 369 OFFCURVE",
"407 289 CURVE",
"426 379 LINE",
"414 476 OFFCURVE",
"367 537 OFFCURVE",
"268 537 CURVE SMOOTH",
"127 537 OFFCURVE",
"40 418 OFFCURVE",
"40 261 CURVE SMOOTH",
"40 91 OFFCURVE",
"125 -13 OFFCURVE",
"253 -13 CURVE SMOOTH"
);
},
{
closed = 1;
nodes = (
"547 0 LINE",
"547 720 LINE",
"407 720 LINE",
"407 0 LINE"
);
}
);
width = 612;
},
{
associatedMasterId = "C0254B35-3FF0-4514-8990-BC8C3A6FFAB6";
background = {
paths = (
{
closed = 1;
nodes = (
"559 0 LINE",
"559 720 LINE",
"419 720 LINE",
"419 0 LINE"
);
},
{
closed = 0;
nodes = (
"421 224 LINE",
"421 151 OFFCURVE",
"376 112 OFFCURVE",
"301 113 CURVE SMOOTH",
"227 114 OFFCURVE",
"186 167 OFFCURVE",
"186 264 CURVE SMOOTH"
);
},
{
closed = 0;
nodes = (
"38 264 LINE",
"38 110 OFFCURVE",
"121 -13 OFFCURVE",
"266 -13 CURVE SMOOTH",
"352 -13 OFFCURVE",
"425 36 OFFCURVE",
"431 119 CURVE"
);
}
);
};
layerId = "2A7B8F15-F221-46F4-B322-8F8D3141D3A1";
name = "Bold Universal Display Aug 3 16, 18:44";
paths = (
{
closed = 1;
nodes = (
"351 -13 OFFCURVE",
"423 47 OFFCURVE",
"429 131 CURVE",
"429 235 LINE",
"417 235 LINE",
"417 168 OFFCURVE",
"374 118 OFFCURVE",
"308 118 CURVE SMOOTH",
"231 118 OFFCURVE",
"188 168 OFFCURVE",
"188 264 CURVE SMOOTH",
"188 360 OFFCURVE",
"231 410 OFFCURVE",
"308 410 CURVE SMOOTH",
"374 410 OFFCURVE",
"417 360 OFFCURVE",
"417 293 CURVE",
"429 293 LINE",
"429 397 LINE",
"423 480 OFFCURVE",
"351 541 OFFCURVE",
"267 541 CURVE SMOOTH",
"132 541 OFFCURVE",
"40 430 OFFCURVE",
"40 264 CURVE SMOOTH",
"40 98 OFFCURVE",
"132 -13 OFFCURVE",
"268 -13 CURVE SMOOTH"
);
},
{
closed = 1;
nodes = (
"557 0 LINE",
"557 720 LINE",
"417 720 LINE",
"417 0 LINE"
);
}
);
width = 622;
},
{
associatedMasterId = "C0254B35-3FF0-4514-8990-BC8C3A6FFAB6";
background = {
paths = (
{
closed = 1;
nodes = (
"356 -14 OFFCURVE",
"422 44 OFFCURVE",
"431 130 CURVE",
"414 239 LINE",
"414 161 OFFCURVE",
"368 115 OFFCURVE",
"305 115 CURVE SMOOTH",
"231 115 OFFCURVE",
"185 166 OFFCURVE",
"185 263 CURVE SMOOTH",
"185 360 OFFCURVE",
"231 411 OFFCURVE",
"305 411 CURVE SMOOTH",
"368 411 OFFCURVE",
"414 365 OFFCURVE",
"414 287 CURVE",
"431 396 LINE",
"422 482 OFFCURVE",
"356 540 OFFCURVE",
"263 540 CURVE SMOOTH",
"130 540 OFFCURVE",
"39 427 OFFCURVE",
"39 263 CURVE SMOOTH",
"39 99 OFFCURVE",
"130 -14 OFFCURVE",
"263 -14 CURVE SMOOTH"
);
},
{
closed = 1;
nodes = (
"554 0 LINE",
"554 720 LINE",
"414 720 LINE",
"414 135 LINE",
"424 0 LINE"
);
}
);
};
layerId = "9E09B6F6-0302-4F6C-B37F-672F775F4E19";
name = "May 19 17, 18:00";
paths = (
{
closed = 1;
nodes = (
"356 -14 OFFCURVE",
"422 44 OFFCURVE",
"431 130 CURVE",
"414 239 LINE",
"414 161 OFFCURVE",
"368 115 OFFCURVE",
"305 115 CURVE SMOOTH",
"231 115 OFFCURVE",
"185 166 OFFCURVE",
"185 263 CURVE SMOOTH",
"185 360 OFFCURVE",
"231 411 OFFCURVE",
"305 411 CURVE SMOOTH",
"368 411 OFFCURVE",
"414 365 OFFCURVE",
"414 287 CURVE",
"431 396 LINE",
"422 482 OFFCURVE",
"356 540 OFFCURVE",
"263 540 CURVE SMOOTH",
"130 540 OFFCURVE",
"39 427 OFFCURVE",
"39 263 CURVE SMOOTH",
"39 99 OFFCURVE",
"130 -14 OFFCURVE",
"263 -14 CURVE SMOOTH"
);
},
{
closed = 1;
nodes = (
"554 0 LINE",
"554 720 LINE",
"414 720 LINE",
"414 135 LINE",
"424 0 LINE"
);
}
);
width = 619;
},
{
associatedMasterId = "C0254B35-3FF0-4514-8990-BC8C3A6FFAB6";
background = {
paths = (
{
closed = 1;
nodes = (
"356 -14 OFFCURVE",
"422 44 OFFCURVE",
"431 130 CURVE",
"414 239 LINE",
"414 161 OFFCURVE",
"368 115 OFFCURVE",
"305 115 CURVE SMOOTH",
"229 115 OFFCURVE",
"185 166 OFFCURVE",
"185 263 CURVE SMOOTH",
"185 360 OFFCURVE",
"229 411 OFFCURVE",
"305 411 CURVE SMOOTH",
"368 411 OFFCURVE",
"414 365 OFFCURVE",
"414 287 CURVE",
"431 396 LINE",
"422 482 OFFCURVE",
"356 540 OFFCURVE",
"261 540 CURVE SMOOTH",
"130 540 OFFCURVE",
"39 427 OFFCURVE",
"39 263 CURVE SMOOTH",
"39 99 OFFCURVE",
"130 -14 OFFCURVE",
"261 -14 CURVE SMOOTH"
);
},
{
closed = 1;
nodes = (
"554 0 LINE",
"554 720 LINE",
"414 720 LINE",
"414 135 LINE",
"424 0 LINE"
);
}
);
};
layerId = "0780C488-E6CA-45EE-9063-62F0132F18B5";
name = "May 19 17, 18:03";
paths = (
{
closed = 1;
nodes = (
"356 -14 OFFCURVE",
"422 44 OFFCURVE",
"431 130 CURVE",
"414 239 LINE",
"414 161 OFFCURVE",
"368 115 OFFCURVE",
"305 115 CURVE SMOOTH",
"229 115 OFFCURVE",
"185 166 OFFCURVE",
"185 263 CURVE SMOOTH",
"185 360 OFFCURVE",
"229 411 OFFCURVE",
"305 411 CURVE SMOOTH",
"368 411 OFFCURVE",
"414 365 OFFCURVE",
"414 287 CURVE",
"431 396 LINE",
"422 482 OFFCURVE",
"356 540 OFFCURVE",
"261 540 CURVE SMOOTH",
"130 540 OFFCURVE",
"39 427 OFFCURVE",
"39 263 CURVE SMOOTH",
"39 99 OFFCURVE",
"130 -14 OFFCURVE",
"261 -14 CURVE SMOOTH"
);
},
{
closed = 1;
nodes = (
"554 0 LINE",
"554 720 LINE",
"414 720 LINE",
"414 135 LINE",
"424 0 LINE"
);
}
);
width = 619;
},
{
associatedMasterId = "C0254B35-3FF0-4514-8990-BC8C3A6FFAB6";
layerId = "79FCFB83-8997-46FE-8D46-61E76CD15475";
name = "Bold Universal Display Aug 3 16, 18:27";
paths = (
{
closed = 1;
nodes = (
"356 -13 OFFCURVE",
"412 48 OFFCURVE",
"426 133 CURVE",
"407 223 LINE",
"407 153 OFFCURVE",
"369 113 OFFCURVE",
"297 113 CURVE SMOOTH",
"232 113 OFFCURVE",
"188 158 OFFCURVE",
"188 260 CURVE SMOOTH",
"188 356 OFFCURVE",
"234 411 OFFCURVE",
"306 411 CURVE SMOOTH",
"372 411 OFFCURVE",
"407 369 OFFCURVE",
"407 289 CURVE",
"426 379 LINE",
"414 476 OFFCURVE",
"367 537 OFFCURVE",
"268 537 CURVE SMOOTH",
"127 537 OFFCURVE",
"40 418 OFFCURVE",
"40 261 CURVE SMOOTH",
"40 91 OFFCURVE",
"125 -13 OFFCURVE",
"253 -13 CURVE SMOOTH"
);
},
{
closed = 1;
nodes = (
"547 0 LINE",
"547 720 LINE",
"407 720 LINE",
"407 0 LINE"
);
}
);
width = 612;
},
{
associatedMasterId = "C0254B35-3FF0-4514-8990-BC8C3A6FFAB6";
background = {
paths = (
{
closed = 1;
nodes = (
"559 0 LINE",
"559 720 LINE",
"419 720 LINE",
"419 0 LINE"
);
},
{
closed = 0;
nodes = (
"421 224 LINE",
"421 151 OFFCURVE",
"376 112 OFFCURVE",
"301 113 CURVE SMOOTH",
"227 114 OFFCURVE",
"186 167 OFFCURVE",
"186 264 CURVE SMOOTH"
);
},
{
closed = 0;
nodes = (
"38 264 LINE",
"38 110 OFFCURVE",
"121 -13 OFFCURVE",
"266 -13 CURVE SMOOTH",
"352 -13 OFFCURVE",
"425 36 OFFCURVE",
"431 119 CURVE"
);
}
);
};
layerId = "B7F97787-5BBC-409C-BBE9-E2F9548B9A2E";
name = "Bold Universal Display Aug 3 16, 18:44";
paths = (
{
closed = 1;
nodes = (
"351 -13 OFFCURVE",
"423 47 OFFCURVE",
"429 131 CURVE",
"429 235 LINE",
"417 235 LINE",
"417 168 OFFCURVE",
"374 118 OFFCURVE",
"308 118 CURVE SMOOTH",
"231 118 OFFCURVE",
"188 168 OFFCURVE",
"188 264 CURVE SMOOTH",
"188 360 OFFCURVE",
"231 410 OFFCURVE",
"308 410 CURVE SMOOTH",
"374 410 OFFCURVE",
"417 360 OFFCURVE",
"417 293 CURVE",
"429 293 LINE",
"429 397 LINE",
"423 480 OFFCURVE",
"351 541 OFFCURVE",
"267 541 CURVE SMOOTH",
"132 541 OFFCURVE",
"40 430 OFFCURVE",
"40 264 CURVE SMOOTH",
"40 98 OFFCURVE",
"132 -13 OFFCURVE",
"268 -13 CURVE SMOOTH"
);
},
{
closed = 1;
nodes = (
"557 0 LINE",
"557 720 LINE",
"417 720 LINE",
"417 0 LINE"
);
}
);
width = 622;
},
{
associatedMasterId = "C0254B35-3FF0-4514-8990-BC8C3A6FFAB6";
layerId = "B60E4C31-A663-4595-BEA6-FE3A81220D86";
name = "Bold Universal Display Aug 3 16, 18:27";
paths = (
{
closed = 1;
nodes = (
"356 -13 OFFCURVE",
"412 48 OFFCURVE",
"426 133 CURVE",
"407 223 LINE",
"407 153 OFFCURVE",
"369 113 OFFCURVE",
"297 113 CURVE SMOOTH",
"232 113 OFFCURVE",
"188 158 OFFCURVE",
"188 260 CURVE SMOOTH",
"188 356 OFFCURVE",
"234 411 OFFCURVE",
"306 411 CURVE SMOOTH",
"372 411 OFFCURVE",
"407 369 OFFCURVE",
"407 289 CURVE",
"426 379 LINE",
"414 476 OFFCURVE",
"367 537 OFFCURVE",
"268 537 CURVE SMOOTH",
"127 537 OFFCURVE",
"40 418 OFFCURVE",
"40 261 CURVE SMOOTH",
"40 91 OFFCURVE",
"125 -13 OFFCURVE",
"253 -13 CURVE SMOOTH"
);
},
{
closed = 1;
nodes = (
"547 0 LINE",
"547 720 LINE",
"407 720 LINE",
"407 0 LINE"
);
}
);
width = 612;
},
{
associatedMasterId = "C0254B35-3FF0-4514-8990-BC8C3A6FFAB6";
background = {
paths = (
{
closed = 1;
nodes = (
"559 0 LINE",
"559 720 LINE",
"419 720 LINE",
"419 0 LINE"
);
},
{
closed = 0;
nodes = (
"421 224 LINE",
"421 151 OFFCURVE",
"376 112 OFFCURVE",
"301 113 CURVE SMOOTH",
"227 114 OFFCURVE",
"186 167 OFFCURVE",
"186 264 CURVE SMOOTH"
);
},
{
closed = 0;
nodes = (
"38 264 LINE",
"38 110 OFFCURVE",
"121 -13 OFFCURVE",
"266 -13 CURVE SMOOTH",
"352 -13 OFFCURVE",
"425 36 OFFCURVE",
"431 119 CURVE"
);
}
);
};
layerId = "0D79B5C1-FE1F-4533-A3A7-185A08193407";
name = "Bold Universal Display Aug 3 16, 18:44";
paths = (
{
closed = 1;
nodes = (
"351 -13 OFFCURVE",
"423 47 OFFCURVE",
"429 131 CURVE",
"429 235 LINE",
"417 235 LINE",
"417 168 OFFCURVE",
"374 118 OFFCURVE",
"308 118 CURVE SMOOTH",
"231 118 OFFCURVE",
"188 168 OFFCURVE",
"188 264 CURVE SMOOTH",
"188 360 OFFCURVE",
"231 410 OFFCURVE",
"308 410 CURVE SMOOTH",
"374 410 OFFCURVE",
"417 360 OFFCURVE",
"417 293 CURVE",
"429 293 LINE",
"429 397 LINE",
"423 480 OFFCURVE",
"351 541 OFFCURVE",
"267 541 CURVE SMOOTH",
"132 541 OFFCURVE",
"40 430 OFFCURVE",
"40 264 CURVE SMOOTH",
"40 98 OFFCURVE",
"132 -13 OFFCURVE",
"268 -13 CURVE SMOOTH"
);
},
{
closed = 1;
nodes = (
"557 0 LINE",
"557 720 LINE",
"417 720 LINE",
"417 0 LINE"
);
}
);
width = 622;
},
{
associatedMasterId = "C0254B35-3FF0-4514-8990-BC8C3A6FFAB6";
background = {
paths = (
{
closed = 1;
nodes = (
"356 -14 OFFCURVE",
"422 44 OFFCURVE",
"431 130 CURVE",
"414 239 LINE",
"414 161 OFFCURVE",
"368 115 OFFCURVE",
"305 115 CURVE SMOOTH",
"231 115 OFFCURVE",
"185 166 OFFCURVE",
"185 263 CURVE SMOOTH",
"185 360 OFFCURVE",
"231 411 OFFCURVE",
"305 411 CURVE SMOOTH",
"368 411 OFFCURVE",
"414 365 OFFCURVE",
"414 287 CURVE",
"431 396 LINE",
"422 482 OFFCURVE",
"356 540 OFFCURVE",
"263 540 CURVE SMOOTH",
"130 540 OFFCURVE",
"39 427 OFFCURVE",
"39 263 CURVE SMOOTH",
"39 99 OFFCURVE",
"130 -14 OFFCURVE",
"263 -14 CURVE SMOOTH"
);
},
{
closed = 1;
nodes = (
"554 0 LINE",
"554 720 LINE",
"414 720 LINE",
"414 135 LINE",
"424 0 LINE"
);
}
);
};
layerId = "AACD4785-021B-4857-8095-440E95B07336";
name = "May 19 17, 18:00";
paths = (
{
closed = 1;
nodes = (
"356 -14 OFFCURVE",
"422 44 OFFCURVE",
"431 130 CURVE",
"414 239 LINE",
"414 161 OFFCURVE",
"368 115 OFFCURVE",
"305 115 CURVE SMOOTH",
"231 115 OFFCURVE",
"185 166 OFFCURVE",
"185 263 CURVE SMOOTH",
"185 360 OFFCURVE",
"231 411 OFFCURVE",
"305 411 CURVE SMOOTH",
"368 411 OFFCURVE",
"414 365 OFFCURVE",
"414 287 CURVE",
"431 396 LINE",
"422 482 OFFCURVE",
"356 540 OFFCURVE",
"263 540 CURVE SMOOTH",
"130 540 OFFCURVE",
"39 427 OFFCURVE",
"39 263 CURVE SMOOTH",
"39 99 OFFCURVE",
"130 -14 OFFCURVE",
"263 -14 CURVE SMOOTH"
);
},
{
closed = 1;
nodes = (
"554 0 LINE",
"554 720 LINE",
"414 720 LINE",
"414 135 LINE",
"424 0 LINE"
);
}
);
width = 619;
},
{
associatedMasterId = "C0254B35-3FF0-4514-8990-BC8C3A6FFAB6";
background = {
paths = (
{
closed = 1;
nodes = (
"356 -14 OFFCURVE",
"422 44 OFFCURVE",
"431 130 CURVE",
"414 239 LINE",
"414 161 OFFCURVE",
"368 115 OFFCURVE",
"305 115 CURVE SMOOTH",
"229 115 OFFCURVE",
"185 166 OFFCURVE",
"185 263 CURVE SMOOTH",
"185 360 OFFCURVE",
"229 411 OFFCURVE",
"305 411 CURVE SMOOTH",
"368 411 OFFCURVE",
"414 365 OFFCURVE",
"414 287 CURVE",
"431 396 LINE",
"422 482 OFFCURVE",
"356 540 OFFCURVE",
"261 540 CURVE SMOOTH",
"130 540 OFFCURVE",
"39 427 OFFCURVE",
"39 263 CURVE SMOOTH",
"39 99 OFFCURVE",
"130 -14 OFFCURVE",
"261 -14 CURVE SMOOTH"
);
},
{
closed = 1;
nodes = (
"554 0 LINE",
"554 720 LINE",
"414 720 LINE",
"414 135 LINE",
"424 0 LINE"
);
}
);
};
layerId = "282292B7-CCEC-4E37-8B9E-A5E6746CAC75";
name = "May 19 17, 18:03";
paths = (
{
closed = 1;
nodes = (
"356 -14 OFFCURVE",
"422 44 OFFCURVE",
"431 130 CURVE",
"414 239 LINE",
"414 161 OFFCURVE",
"368 115 OFFCURVE",
"305 115 CURVE SMOOTH",
"229 115 OFFCURVE",
"185 166 OFFCURVE",
"185 263 CURVE SMOOTH",
"185 360 OFFCURVE",
"229 411 OFFCURVE",
"305 411 CURVE SMOOTH",
"368 411 OFFCURVE",
"414 365 OFFCURVE",
"414 287 CURVE",
"431 396 LINE",
"422 482 OFFCURVE",
"356 540 OFFCURVE",
"261 540 CURVE SMOOTH",
"130 540 OFFCURVE",
"39 427 OFFCURVE",
"39 263 CURVE SMOOTH",
"39 99 OFFCURVE",
"130 -14 OFFCURVE",
"261 -14 CURVE SMOOTH"
);
},
{
closed = 1;
nodes = (
"554 0 LINE",
"554 720 LINE",
"414 720 LINE",
"414 135 LINE",
"424 0 LINE"
);
}
);
width = 619;
},
{
associatedMasterId = "C0254B35-3FF0-4514-8990-BC8C3A6FFAB6";
layerId = "DFA58954-237A-44F5-9713-21680717C4D6";
name = "Bold Universal Display Aug 3 16, 18:27";
paths = (
{
closed = 1;
nodes = (
"356 -13 OFFCURVE",
"412 48 OFFCURVE",
"426 133 CURVE",
"407 223 LINE",
"407 153 OFFCURVE",
"369 113 OFFCURVE",
"297 113 CURVE SMOOTH",
"232 113 OFFCURVE",
"188 158 OFFCURVE",
"188 260 CURVE SMOOTH",
"188 356 OFFCURVE",
"234 411 OFFCURVE",
"306 411 CURVE SMOOTH",
"372 411 OFFCURVE",
"407 369 OFFCURVE",
"407 289 CURVE",
"426 379 LINE",
"414 476 OFFCURVE",
"367 537 OFFCURVE",
"268 537 CURVE SMOOTH",
"127 537 OFFCURVE",
"40 418 OFFCURVE",
"40 261 CURVE SMOOTH",
"40 91 OFFCURVE",
"125 -13 OFFCURVE",
"253 -13 CURVE SMOOTH"
);
},
{
closed = 1;
nodes = (
"547 0 LINE",
"547 720 LINE",
"407 720 LINE",
"407 0 LINE"
);
}
);
width = 612;
},
{
associatedMasterId = "C0254B35-3FF0-4514-8990-BC8C3A6FFAB6";
background = {
paths = (
{
closed = 1;
nodes = (
"559 0 LINE",
"559 720 LINE",
"419 720 LINE",
"419 0 LINE"
);
},
{
closed = 0;
nodes = (
"421 224 LINE",
"421 151 OFFCURVE",
"376 112 OFFCURVE",
"301 113 CURVE SMOOTH",
"227 114 OFFCURVE",
"186 167 OFFCURVE",
"186 264 CURVE SMOOTH"
);
},
{
closed = 0;
nodes = (
"38 264 LINE",
"38 110 OFFCURVE",
"121 -13 OFFCURVE",
"266 -13 CURVE SMOOTH",
"352 -13 OFFCURVE",
"425 36 OFFCURVE",
"431 119 CURVE"
);
}
);
};
layerId = "B6B95F72-33B3-46E2-A069-40E48DEFB76B";
name = "Bold Universal Display Aug 3 16, 18:44";
paths = (
{
closed = 1;
nodes = (
"351 -13 OFFCURVE",
"423 47 OFFCURVE",
"429 131 CURVE",
"429 235 LINE",
"417 235 LINE",
"417 168 OFFCURVE",
"374 118 OFFCURVE",
"308 118 CURVE SMOOTH",
"231 118 OFFCURVE",
"188 168 OFFCURVE",
"188 264 CURVE SMOOTH",
"188 360 OFFCURVE",
"231 410 OFFCURVE",
"308 410 CURVE SMOOTH",
"374 410 OFFCURVE",
"417 360 OFFCURVE",
"417 293 CURVE",
"429 293 LINE",
"429 397 LINE",
"423 480 OFFCURVE",
"351 541 OFFCURVE",
"267 541 CURVE SMOOTH",
"132 541 OFFCURVE",
"40 430 OFFCURVE",
"40 264 CURVE SMOOTH",
"40 98 OFFCURVE",
"132 -13 OFFCURVE",
"268 -13 CURVE SMOOTH"
);
},
{
closed = 1;
nodes = (
"557 0 LINE",
"557 720 LINE",
"417 720 LINE",
"417 0 LINE"
);
}
);
width = 622;
},
{
associatedMasterId = "C0254B35-3FF0-4514-8990-BC8C3A6FFAB6";
layerId = "F063A055-1647-4736-9911-B100AF8EC3A1";
name = "Bold Universal Display Aug 3 16, 18:27";
paths = (
{
closed = 1;
nodes = (
"356 -13 OFFCURVE",
"412 48 OFFCURVE",
"426 133 CURVE",
"407 223 LINE",
"407 153 OFFCURVE",
"369 113 OFFCURVE",
"297 113 CURVE SMOOTH",
"232 113 OFFCURVE",
"188 158 OFFCURVE",
"188 260 CURVE SMOOTH",
"188 356 OFFCURVE",
"234 411 OFFCURVE",
"306 411 CURVE SMOOTH",
"372 411 OFFCURVE",
"407 369 OFFCURVE",
"407 289 CURVE",
"426 379 LINE",
"414 476 OFFCURVE",
"367 537 OFFCURVE",
"268 537 CURVE SMOOTH",
"127 537 OFFCURVE",
"40 418 OFFCURVE",
"40 261 CURVE SMOOTH",
"40 91 OFFCURVE",
"125 -13 OFFCURVE",
"253 -13 CURVE SMOOTH"
);
},
{
closed = 1;
nodes = (
"547 0 LINE",
"547 720 LINE",
"407 720 LINE",
"407 0 LINE"
);
}
);
width = 612;
},
{
associatedMasterId = "C0254B35-3FF0-4514-8990-BC8C3A6FFAB6";
background = {
paths = (
{
closed = 1;
nodes = (
"559 0 LINE",
"559 720 LINE",
"419 720 LINE",
"419 0 LINE"
);
},
{
closed = 0;
nodes = (
"421 224 LINE",
"421 151 OFFCURVE",
"376 112 OFFCURVE",
"301 113 CURVE SMOOTH",
"227 114 OFFCURVE",
"186 167 OFFCURVE",
"186 264 CURVE SMOOTH"
);
},
{
closed = 0;
nodes = (
"38 264 LINE",
"38 110 OFFCURVE",
"121 -13 OFFCURVE",
"266 -13 CURVE SMOOTH",
"352 -13 OFFCURVE",
"425 36 OFFCURVE",
"431 119 CURVE"
);
}
);
};
layerId = "ACAF8F23-4684-431C-AA5F-F87F585AC7D8";
name = "Bold Universal Display Aug 3 16, 18:44";
paths = (
{
closed = 1;
nodes = (
"351 -13 OFFCURVE",
"423 47 OFFCURVE",
"429 131 CURVE",
"429 235 LINE",
"417 235 LINE",
"417 168 OFFCURVE",
"374 118 OFFCURVE",
"308 118 CURVE SMOOTH",
"231 118 OFFCURVE",
"188 168 OFFCURVE",
"188 264 CURVE SMOOTH",
"188 360 OFFCURVE",
"231 410 OFFCURVE",
"308 410 CURVE SMOOTH",
"374 410 OFFCURVE",
"417 360 OFFCURVE",
"417 293 CURVE",
"429 293 LINE",
"429 397 LINE",
"423 480 OFFCURVE",
"351 541 OFFCURVE",
"267 541 CURVE SMOOTH",
"132 541 OFFCURVE",
"40 430 OFFCURVE",
"40 264 CURVE SMOOTH",
"40 98 OFFCURVE",
"132 -13 OFFCURVE",
"268 -13 CURVE SMOOTH"
);
},
{
closed = 1;
nodes = (
"557 0 LINE",
"557 720 LINE",
"417 720 LINE",
"417 0 LINE"
);
}
);
width = 622;
},
{
associatedMasterId = "C0254B35-3FF0-4514-8990-BC8C3A6FFAB6";
background = {
paths = (
{
closed = 1;
nodes = (
"356 -14 OFFCURVE",
"422 44 OFFCURVE",
"431 130 CURVE",
"414 239 LINE",
"414 161 OFFCURVE",
"368 115 OFFCURVE",
"305 115 CURVE SMOOTH",
"231 115 OFFCURVE",
"185 166 OFFCURVE",
"185 263 CURVE SMOOTH",
"185 360 OFFCURVE",
"231 411 OFFCURVE",
"305 411 CURVE SMOOTH",
"368 411 OFFCURVE",
"414 365 OFFCURVE",
"414 287 CURVE",
"431 396 LINE",
"422 482 OFFCURVE",
"356 540 OFFCURVE",
"263 540 CURVE SMOOTH",
"130 540 OFFCURVE",
"39 427 OFFCURVE",
"39 263 CURVE SMOOTH",
"39 99 OFFCURVE",
"130 -14 OFFCURVE",
"263 -14 CURVE SMOOTH"
);
},
{
closed = 1;
nodes = (
"554 0 LINE",
"554 720 LINE",
"414 720 LINE",
"414 135 LINE",
"424 0 LINE"
);
}
);
};
layerId = "C442DC0C-567F-4E19-A7F7-5A1851BC2DBC";
name = "May 19 17, 18:00";
paths = (
{
closed = 1;
nodes = (
"356 -14 OFFCURVE",
"422 44 OFFCURVE",
"431 130 CURVE",
"414 239 LINE",
"414 161 OFFCURVE",
"368 115 OFFCURVE",
"305 115 CURVE SMOOTH",
"231 115 OFFCURVE",
"185 166 OFFCURVE",
"185 263 CURVE SMOOTH",
"185 360 OFFCURVE",
"231 411 OFFCURVE",
"305 411 CURVE SMOOTH",
"368 411 OFFCURVE",
"414 365 OFFCURVE",
"414 287 CURVE",
"431 396 LINE",
"422 482 OFFCURVE",
"356 540 OFFCURVE",
"263 540 CURVE SMOOTH",
"130 540 OFFCURVE",
"39 427 OFFCURVE",
"39 263 CURVE SMOOTH",
"39 99 OFFCURVE",
"130 -14 OFFCURVE",
"263 -14 CURVE SMOOTH"
);
},
{
closed = 1;
nodes = (
"554 0 LINE",
"554 720 LINE",
"414 720 LINE",
"414 135 LINE",
"424 0 LINE"
);
}
);
width = 619;
},
{
associatedMasterId = "C0254B35-3FF0-4514-8990-BC8C3A6FFAB6";
background = {
paths = (
{
closed = 1;
nodes = (
"356 -14 OFFCURVE",
"422 44 OFFCURVE",
"431 130 CURVE",
"414 239 LINE",
"414 161 OFFCURVE",
"368 115 OFFCURVE",
"305 115 CURVE SMOOTH",
"229 115 OFFCURVE",
"185 166 OFFCURVE",
"185 263 CURVE SMOOTH",
"185 360 OFFCURVE",
"229 411 OFFCURVE",
"305 411 CURVE SMOOTH",
"368 411 OFFCURVE",
"414 365 OFFCURVE",
"414 287 CURVE",
"431 396 LINE",
"422 482 OFFCURVE",
"356 540 OFFCURVE",
"261 540 CURVE SMOOTH",
"130 540 OFFCURVE",
"39 427 OFFCURVE",
"39 263 CURVE SMOOTH",
"39 99 OFFCURVE",
"130 -14 OFFCURVE",
"261 -14 CURVE SMOOTH"
);
},
{
closed = 1;
nodes = (
"554 0 LINE",
"554 720 LINE",
"414 720 LINE",
"414 135 LINE",
"424 0 LINE"
);
}
);
};
layerId = "CC69C35B-7342-4790-8E73-96FBBA3D6AE6";
name = "May 19 17, 18:03";
paths = (
{
closed = 1;
nodes = (
"356 -14 OFFCURVE",
"422 44 OFFCURVE",
"431 130 CURVE",
"414 239 LINE",
"414 161 OFFCURVE",
"368 115 OFFCURVE",
"305 115 CURVE SMOOTH",
"229 115 OFFCURVE",
"185 166 OFFCURVE",
"185 263 CURVE SMOOTH",
"185 360 OFFCURVE",
"229 411 OFFCURVE",
"305 411 CURVE SMOOTH",
"368 411 OFFCURVE",
"414 365 OFFCURVE",
"414 287 CURVE",
"431 396 LINE",
"422 482 OFFCURVE",
"356 540 OFFCURVE",
"261 540 CURVE SMOOTH",
"130 540 OFFCURVE",
"39 427 OFFCURVE",
"39 263 CURVE SMOOTH",
"39 99 OFFCURVE",
"130 -14 OFFCURVE",
"261 -14 CURVE SMOOTH"
);
},
{
closed = 1;
nodes = (
"554 0 LINE",
"554 720 LINE",
"414 720 LINE",
"414 135 LINE",
"424 0 LINE"
);
}
);
width = 619;
},
{
associatedMasterId = "C0254B35-3FF0-4514-8990-BC8C3A6FFAB6";
layerId = "8880724A-07A9-4E66-8966-7E07436274B1";
name = "Bold Universal Display Aug 3 16, 18:27";
paths = (
{
closed = 1;
nodes = (
"356 -13 OFFCURVE",
"412 48 OFFCURVE",
"426 133 CURVE",
"407 223 LINE",
"407 153 OFFCURVE",
"369 113 OFFCURVE",
"297 113 CURVE SMOOTH",
"232 113 OFFCURVE",
"188 158 OFFCURVE",
"188 260 CURVE SMOOTH",
"188 356 OFFCURVE",
"234 411 OFFCURVE",
"306 411 CURVE SMOOTH",
"372 411 OFFCURVE",
"407 369 OFFCURVE",
"407 289 CURVE",
"426 379 LINE",
"414 476 OFFCURVE",
"367 537 OFFCURVE",
"268 537 CURVE SMOOTH",
"127 537 OFFCURVE",
"40 418 OFFCURVE",
"40 261 CURVE SMOOTH",
"40 91 OFFCURVE",
"125 -13 OFFCURVE",
"253 -13 CURVE SMOOTH"
);
},
{
closed = 1;
nodes = (
"547 0 LINE",
"547 720 LINE",
"407 720 LINE",
"407 0 LINE"
);
}
);
width = 612;
},
{
associatedMasterId = "C0254B35-3FF0-4514-8990-BC8C3A6FFAB6";
background = {
paths = (
{
closed = 1;
nodes = (
"559 0 LINE",
"559 720 LINE",
"419 720 LINE",
"419 0 LINE"
);
},
{
closed = 0;
nodes = (
"421 224 LINE",
"421 151 OFFCURVE",
"376 112 OFFCURVE",
"301 113 CURVE SMOOTH",
"227 114 OFFCURVE",
"186 167 OFFCURVE",
"186 264 CURVE SMOOTH"
);
},
{
closed = 0;
nodes = (
"38 264 LINE",
"38 110 OFFCURVE",
"121 -13 OFFCURVE",
"266 -13 CURVE SMOOTH",
"352 -13 OFFCURVE",
"425 36 OFFCURVE",
"431 119 CURVE"
);
}
);
};
layerId = "9C57D6A0-CAEB-42BE-9973-6ACA6DDCEA6B";
name = "Bold Universal Display Aug 3 16, 18:44";
paths = (
{
closed = 1;
nodes = (
"351 -13 OFFCURVE",
"423 47 OFFCURVE",
"429 131 CURVE",
"429 235 LINE",
"417 235 LINE",
"417 168 OFFCURVE",
"374 118 OFFCURVE",
"308 118 CURVE SMOOTH",
"231 118 OFFCURVE",
"188 168 OFFCURVE",
"188 264 CURVE SMOOTH",
"188 360 OFFCURVE",
"231 410 OFFCURVE",
"308 410 CURVE SMOOTH",
"374 410 OFFCURVE",
"417 360 OFFCURVE",
"417 293 CURVE",
"429 293 LINE",
"429 397 LINE",
"423 480 OFFCURVE",
"351 541 OFFCURVE",
"267 541 CURVE SMOOTH",
"132 541 OFFCURVE",
"40 430 OFFCURVE",
"40 264 CURVE SMOOTH",
"40 98 OFFCURVE",
"132 -13 OFFCURVE",
"268 -13 CURVE SMOOTH"
);
},
{
closed = 1;
nodes = (
"557 0 LINE",
"557 720 LINE",
"417 720 LINE",
"417 0 LINE"
);
}
);
width = 622;
},
{
associatedMasterId = "C0254B35-3FF0-4514-8990-BC8C3A6FFAB6";
layerId = "1849F2E2-2AB7-4061-9B68-62E8FD899390";
name = "Bold Universal Display Aug 3 16, 18:27";
paths = (
{
closed = 1;
nodes = (
"356 -13 OFFCURVE",
"412 48 OFFCURVE",
"426 133 CURVE",
"407 223 LINE",
"407 153 OFFCURVE",
"369 113 OFFCURVE",
"297 113 CURVE SMOOTH",
"232 113 OFFCURVE",
"188 158 OFFCURVE",
"188 260 CURVE SMOOTH",
"188 356 OFFCURVE",
"234 411 OFFCURVE",
"306 411 CURVE SMOOTH",
"372 411 OFFCURVE",
"407 369 OFFCURVE",
"407 289 CURVE",
"426 379 LINE",
"414 476 OFFCURVE",
"367 537 OFFCURVE",
"268 537 CURVE SMOOTH",
"127 537 OFFCURVE",
"40 418 OFFCURVE",
"40 261 CURVE SMOOTH",
"40 91 OFFCURVE",
"125 -13 OFFCURVE",
"253 -13 CURVE SMOOTH"
);
},
{
closed = 1;
nodes = (
"547 0 LINE",
"547 720 LINE",
"407 720 LINE",
"407 0 LINE"
);
}
);
width = 612;
},
{
associatedMasterId = "C0254B35-3FF0-4514-8990-BC8C3A6FFAB6";
background = {
paths = (
{
closed = 1;
nodes = (
"559 0 LINE",
"559 720 LINE",
"419 720 LINE",
"419 0 LINE"
);
},
{
closed = 0;
nodes = (
"421 224 LINE",
"421 151 OFFCURVE",
"376 112 OFFCURVE",
"301 113 CURVE SMOOTH",
"227 114 OFFCURVE",
"186 167 OFFCURVE",
"186 264 CURVE SMOOTH"
);
},
{
closed = 0;
nodes = (
"38 264 LINE",
"38 110 OFFCURVE",
"121 -13 OFFCURVE",
"266 -13 CURVE SMOOTH",
"352 -13 OFFCURVE",
"425 36 OFFCURVE",
"431 119 CURVE"
);
}
);
};
layerId = "A2028877-1A33-45E3-A324-E3BAEFC12CE9";
name = "Bold Universal Display Aug 3 16, 18:44";
paths = (
{
closed = 1;
nodes = (
"351 -13 OFFCURVE",
"423 47 OFFCURVE",
"429 131 CURVE",
"429 235 LINE",
"417 235 LINE",
"417 168 OFFCURVE",
"374 118 OFFCURVE",
"308 118 CURVE SMOOTH",
"231 118 OFFCURVE",
"188 168 OFFCURVE",
"188 264 CURVE SMOOTH",
"188 360 OFFCURVE",
"231 410 OFFCURVE",
"308 410 CURVE SMOOTH",
"374 410 OFFCURVE",
"417 360 OFFCURVE",
"417 293 CURVE",
"429 293 LINE",
"429 397 LINE",
"423 480 OFFCURVE",
"351 541 OFFCURVE",
"267 541 CURVE SMOOTH",
"132 541 OFFCURVE",
"40 430 OFFCURVE",
"40 264 CURVE SMOOTH",
"40 98 OFFCURVE",
"132 -13 OFFCURVE",
"268 -13 CURVE SMOOTH"
);
},
{
closed = 1;
nodes = (
"557 0 LINE",
"557 720 LINE",
"417 720 LINE",
"417 0 LINE"
);
}
);
width = 622;
},
{
associatedMasterId = "C0254B35-3FF0-4514-8990-BC8C3A6FFAB6";
background = {
paths = (
{
closed = 1;
nodes = (
"356 -14 OFFCURVE",
"422 44 OFFCURVE",
"431 130 CURVE",
"414 239 LINE",
"414 161 OFFCURVE",
"368 115 OFFCURVE",
"305 115 CURVE SMOOTH",
"231 115 OFFCURVE",
"185 166 OFFCURVE",
"185 263 CURVE SMOOTH",
"185 360 OFFCURVE",
"231 411 OFFCURVE",
"305 411 CURVE SMOOTH",
"368 411 OFFCURVE",
"414 365 OFFCURVE",
"414 287 CURVE",
"431 396 LINE",
"422 482 OFFCURVE",
"356 540 OFFCURVE",
"263 540 CURVE SMOOTH",
"130 540 OFFCURVE",
"39 427 OFFCURVE",
"39 263 CURVE SMOOTH",
"39 99 OFFCURVE",
"130 -14 OFFCURVE",
"263 -14 CURVE SMOOTH"
);
},
{
closed = 1;
nodes = (
"554 0 LINE",
"554 720 LINE",
"414 720 LINE",
"414 135 LINE",
"424 0 LINE"
);
}
);
};
layerId = "459501BF-C8EE-4E47-A982-CA40E32AD863";
name = "May 19 17, 18:00";
paths = (
{
closed = 1;
nodes = (
"356 -14 OFFCURVE",
"422 44 OFFCURVE",
"431 130 CURVE",
"414 239 LINE",
"414 161 OFFCURVE",
"368 115 OFFCURVE",
"305 115 CURVE SMOOTH",
"231 115 OFFCURVE",
"185 166 OFFCURVE",
"185 263 CURVE SMOOTH",
"185 360 OFFCURVE",
"231 411 OFFCURVE",
"305 411 CURVE SMOOTH",
"368 411 OFFCURVE",
"414 365 OFFCURVE",
"414 287 CURVE",
"431 396 LINE",
"422 482 OFFCURVE",
"356 540 OFFCURVE",
"263 540 CURVE SMOOTH",
"130 540 OFFCURVE",
"39 427 OFFCURVE",
"39 263 CURVE SMOOTH",
"39 99 OFFCURVE",
"130 -14 OFFCURVE",
"263 -14 CURVE SMOOTH"
);
},
{
closed = 1;
nodes = (
"554 0 LINE",
"554 720 LINE",
"414 720 LINE",
"414 135 LINE",
"424 0 LINE"
);
}
);
width = 619;
},
{
associatedMasterId = "C0254B35-3FF0-4514-8990-BC8C3A6FFAB6";
background = {
paths = (
{
closed = 1;
nodes = (
"356 -14 OFFCURVE",
"422 44 OFFCURVE",
"431 130 CURVE",
"414 239 LINE",
"414 161 OFFCURVE",
"368 115 OFFCURVE",
"305 115 CURVE SMOOTH",
"229 115 OFFCURVE",
"185 166 OFFCURVE",
"185 263 CURVE SMOOTH",
"185 360 OFFCURVE",
"229 411 OFFCURVE",
"305 411 CURVE SMOOTH",
"368 411 OFFCURVE",
"414 365 OFFCURVE",
"414 287 CURVE",
"431 396 LINE",
"422 482 OFFCURVE",
"356 540 OFFCURVE",
"261 540 CURVE SMOOTH",
"130 540 OFFCURVE",
"39 427 OFFCURVE",
"39 263 CURVE SMOOTH",
"39 99 OFFCURVE",
"130 -14 OFFCURVE",
"261 -14 CURVE SMOOTH"
);
},
{
closed = 1;
nodes = (
"554 0 LINE",
"554 720 LINE",
"414 720 LINE",
"414 135 LINE",
"424 0 LINE"
);
}
);
};
layerId = "ED654576-6CC6-42AA-8F96-875809A34440";
name = "May 19 17, 18:03";
paths = (
{
closed = 1;
nodes = (
"356 -14 OFFCURVE",
"422 44 OFFCURVE",
"431 130 CURVE",
"414 239 LINE",
"414 161 OFFCURVE",
"368 115 OFFCURVE",
"305 115 CURVE SMOOTH",
"229 115 OFFCURVE",
"185 166 OFFCURVE",
"185 263 CURVE SMOOTH",
"185 360 OFFCURVE",
"229 411 OFFCURVE",
"305 411 CURVE SMOOTH",
"368 411 OFFCURVE",
"414 365 OFFCURVE",
"414 287 CURVE",
"431 396 LINE",
"422 482 OFFCURVE",
"356 540 OFFCURVE",
"261 540 CURVE SMOOTH",
"130 540 OFFCURVE",
"39 427 OFFCURVE",
"39 263 CURVE SMOOTH",
"39 99 OFFCURVE",
"130 -14 OFFCURVE",
"261 -14 CURVE SMOOTH"
);
},
{
closed = 1;
nodes = (
"554 0 LINE",
"554 720 LINE",
"414 720 LINE",
"414 135 LINE",
"424 0 LINE"
);
}
);
width = 619;
},
{
anchors = (
{
name = topright;
position = "{612, 515}";
}
);
background = {
anchors = (
{
name = topright;
position = "{579, 515}";
}
);
paths = (
{
closed = 1;
nodes = (
"373 -15 OFFCURVE",
"451 40 OFFCURVE",
"477 152 CURVE",
"471 152 LINE",
"473 0 LINE",
"489 0 LINE",
"489 730 LINE",
"471 730 LINE",
"471 364 LINE",
"477 364 LINE",
"451 475 OFFCURVE",
"373 530 OFFCURVE",
"277 530 CURVE SMOOTH",
"135 530 OFFCURVE",
"55 428 OFFCURVE",
"55 258 CURVE SMOOTH",
"55 87 OFFCURVE",
"135 -15 OFFCURVE",
"277 -15 CURVE SMOOTH"
);
},
{
closed = 1;
nodes = (
"146 3 OFFCURVE",
"75 97 OFFCURVE",
"75 258 CURVE SMOOTH",
"75 418 OFFCURVE",
"146 512 OFFCURVE",
"277 512 CURVE SMOOTH",
"388 512 OFFCURVE",
"471 436 OFFCURVE",
"471 278 CURVE SMOOTH",
"471 238 LINE SMOOTH",
"471 79 OFFCURVE",
"388 3 OFFCURVE",
"277 3 CURVE SMOOTH"
);
}
);
};
layerId = "C0254B35-3FF0-4514-8990-BC8C3A6FFAB6";
paths = (
{
closed = 1;
nodes = (
"325 -15 OFFCURVE",
"404 50 OFFCURVE",
"444 152 CURVE",
"438 152 LINE",
"413 0 LINE",
"429 0 LINE",
"557 730 LINE",
"539 730 LINE",
"475 364 LINE",
"479 359 LINE",
"472 467 OFFCURVE",
"399 530 OFFCURVE",
"303 530 CURVE SMOOTH",
"132 530 OFFCURVE",
"44 372 OFFCURVE",
"44 189 CURVE SMOOTH",
"44 68 OFFCURVE",
"107 -15 OFFCURVE",
"225 -15 CURVE SMOOTH"
);
},
{
closed = 1;
nodes = (
"117 3 OFFCURVE",
"64 78 OFFCURVE",
"64 191 CURVE SMOOTH",
"64 362 OFFCURVE",
"142 512 OFFCURVE",
"302 512 CURVE SMOOTH",
"418 512 OFFCURVE",
"483 418 OFFCURVE",
"460 278 CURVE SMOOTH",
"453 238 LINE SMOOTH",
"425 79 OFFCURVE",
"323 3 OFFCURVE",
"228 3 CURVE SMOOTH"
);
}
);
width = 565;
},
{
associatedMasterId = "C0254B35-3FF0-4514-8990-BC8C3A6FFAB6";
layerId = "2409BC62-779F-4CCA-95EA-8CE273494521";
name = "Bold Universal Display Aug 3 16, 18:27";
paths = (
{
closed = 1;
nodes = (
"356 -13 OFFCURVE",
"412 48 OFFCURVE",
"426 133 CURVE",
"407 223 LINE",
"407 153 OFFCURVE",
"369 113 OFFCURVE",
"297 113 CURVE SMOOTH",
"232 113 OFFCURVE",
"188 158 OFFCURVE",
"188 260 CURVE SMOOTH",
"188 356 OFFCURVE",
"234 411 OFFCURVE",
"306 411 CURVE SMOOTH",
"372 411 OFFCURVE",
"407 369 OFFCURVE",
"407 289 CURVE",
"426 379 LINE",
"414 476 OFFCURVE",
"367 537 OFFCURVE",
"268 537 CURVE SMOOTH",
"127 537 OFFCURVE",
"40 418 OFFCURVE",
"40 261 CURVE SMOOTH",
"40 91 OFFCURVE",
"125 -13 OFFCURVE",
"253 -13 CURVE SMOOTH"
);
},
{
closed = 1;
nodes = (
"547 0 LINE",
"547 720 LINE",
"407 720 LINE",
"407 0 LINE"
);
}
);
width = 612;
},
{
associatedMasterId = "C0254B35-3FF0-4514-8990-BC8C3A6FFAB6";
background = {
paths = (
{
closed = 1;
nodes = (
"559 0 LINE",
"559 720 LINE",
"419 720 LINE",
"419 0 LINE"
);
},
{
closed = 0;
nodes = (
"421 224 LINE",
"421 151 OFFCURVE",
"376 112 OFFCURVE",
"301 113 CURVE SMOOTH",
"227 114 OFFCURVE",
"186 167 OFFCURVE",
"186 264 CURVE SMOOTH"
);
},
{
closed = 0;
nodes = (
"38 264 LINE",
"38 110 OFFCURVE",
"121 -13 OFFCURVE",
"266 -13 CURVE SMOOTH",
"352 -13 OFFCURVE",
"425 36 OFFCURVE",
"431 119 CURVE"
);
}
);
};
layerId = "40F18156-8B46-4E0B-8FE1-402479D801D5";
name = "Bold Universal Display Aug 3 16, 18:44";
paths = (
{
closed = 1;
nodes = (
"351 -13 OFFCURVE",
"423 47 OFFCURVE",
"429 131 CURVE",
"429 235 LINE",
"417 235 LINE",
"417 168 OFFCURVE",
"374 118 OFFCURVE",
"308 118 CURVE SMOOTH",
"231 118 OFFCURVE",
"188 168 OFFCURVE",
"188 264 CURVE SMOOTH",
"188 360 OFFCURVE",
"231 410 OFFCURVE",
"308 410 CURVE SMOOTH",
"374 410 OFFCURVE",
"417 360 OFFCURVE",
"417 293 CURVE",
"429 293 LINE",
"429 397 LINE",
"423 480 OFFCURVE",
"351 541 OFFCURVE",
"267 541 CURVE SMOOTH",
"132 541 OFFCURVE",
"40 430 OFFCURVE",
"40 264 CURVE SMOOTH",
"40 98 OFFCURVE",
"132 -13 OFFCURVE",
"268 -13 CURVE SMOOTH"
);
},
{
closed = 1;
nodes = (
"557 0 LINE",
"557 720 LINE",
"417 720 LINE",
"417 0 LINE"
);
}
);
width = 622;
},
{
associatedMasterId = "C0254B35-3FF0-4514-8990-BC8C3A6FFAB6";
layerId = "2FD31A79-081F-44D9-991F-DD65F3CEF541";
name = "Bold Universal Display Aug 3 16, 18:27";
paths = (
{
closed = 1;
nodes = (
"356 -13 OFFCURVE",
"412 48 OFFCURVE",
"426 133 CURVE",
"407 223 LINE",
"407 153 OFFCURVE",
"369 113 OFFCURVE",
"297 113 CURVE SMOOTH",
"232 113 OFFCURVE",
"188 158 OFFCURVE",
"188 260 CURVE SMOOTH",
"188 356 OFFCURVE",
"234 411 OFFCURVE",
"306 411 CURVE SMOOTH",
"372 411 OFFCURVE",
"407 369 OFFCURVE",
"407 289 CURVE",
"426 379 LINE",
"414 476 OFFCURVE",
"367 537 OFFCURVE",
"268 537 CURVE SMOOTH",
"127 537 OFFCURVE",
"40 418 OFFCURVE",
"40 261 CURVE SMOOTH",
"40 91 OFFCURVE",
"125 -13 OFFCURVE",
"253 -13 CURVE SMOOTH"
);
},
{
closed = 1;
nodes = (
"547 0 LINE",
"547 720 LINE",
"407 720 LINE",
"407 0 LINE"
);
}
);
width = 612;
},
{
associatedMasterId = "C0254B35-3FF0-4514-8990-BC8C3A6FFAB6";
background = {
paths = (
{
closed = 1;
nodes = (
"559 0 LINE",
"559 720 LINE",
"419 720 LINE",
"419 0 LINE"
);
},
{
closed = 0;
nodes = (
"421 224 LINE",
"421 151 OFFCURVE",
"376 112 OFFCURVE",
"301 113 CURVE SMOOTH",
"227 114 OFFCURVE",
"186 167 OFFCURVE",
"186 264 CURVE SMOOTH"
);
},
{
closed = 0;
nodes = (
"38 264 LINE",
"38 110 OFFCURVE",
"121 -13 OFFCURVE",
"266 -13 CURVE SMOOTH",
"352 -13 OFFCURVE",
"425 36 OFFCURVE",
"431 119 CURVE"
);
}
);
};
layerId = "9F210E80-A619-4C97-BE68-17C12B8F9AF2";
name = "Bold Universal Display Aug 3 16, 18:44";
paths = (
{
closed = 1;
nodes = (
"351 -13 OFFCURVE",
"423 47 OFFCURVE",
"429 131 CURVE",
"429 235 LINE",
"417 235 LINE",
"417 168 OFFCURVE",
"374 118 OFFCURVE",
"308 118 CURVE SMOOTH",
"231 118 OFFCURVE",
"188 168 OFFCURVE",
"188 264 CURVE SMOOTH",
"188 360 OFFCURVE",
"231 410 OFFCURVE",
"308 410 CURVE SMOOTH",
"374 410 OFFCURVE",
"417 360 OFFCURVE",
"417 293 CURVE",
"429 293 LINE",
"429 397 LINE",
"423 480 OFFCURVE",
"351 541 OFFCURVE",
"267 541 CURVE SMOOTH",
"132 541 OFFCURVE",
"40 430 OFFCURVE",
"40 264 CURVE SMOOTH",
"40 98 OFFCURVE",
"132 -13 OFFCURVE",
"268 -13 CURVE SMOOTH"
);
},
{
closed = 1;
nodes = (
"557 0 LINE",
"557 720 LINE",
"417 720 LINE",
"417 0 LINE"
);
}
);
width = 622;
},
{
associatedMasterId = "C0254B35-3FF0-4514-8990-BC8C3A6FFAB6";
background = {
paths = (
{
closed = 1;
nodes = (
"356 -14 OFFCURVE",
"422 44 OFFCURVE",
"431 130 CURVE",
"414 239 LINE",
"414 161 OFFCURVE",
"368 115 OFFCURVE",
"305 115 CURVE SMOOTH",
"231 115 OFFCURVE",
"185 166 OFFCURVE",
"185 263 CURVE SMOOTH",
"185 360 OFFCURVE",
"231 411 OFFCURVE",
"305 411 CURVE SMOOTH",
"368 411 OFFCURVE",
"414 365 OFFCURVE",
"414 287 CURVE",
"431 396 LINE",
"422 482 OFFCURVE",
"356 540 OFFCURVE",
"263 540 CURVE SMOOTH",
"130 540 OFFCURVE",
"39 427 OFFCURVE",
"39 263 CURVE SMOOTH",
"39 99 OFFCURVE",
"130 -14 OFFCURVE",
"263 -14 CURVE SMOOTH"
);
},
{
closed = 1;
nodes = (
"554 0 LINE",
"554 720 LINE",
"414 720 LINE",
"414 135 LINE",
"424 0 LINE"
);
}
);
};
layerId = "03FC6424-6CC5-48C0-8D97-B5E03C96AD27";
name = "May 19 17, 18:00";
paths = (
{
closed = 1;
nodes = (
"356 -14 OFFCURVE",
"422 44 OFFCURVE",
"431 130 CURVE",
"414 239 LINE",
"414 161 OFFCURVE",
"368 115 OFFCURVE",
"305 115 CURVE SMOOTH",
"231 115 OFFCURVE",
"185 166 OFFCURVE",
"185 263 CURVE SMOOTH",
"185 360 OFFCURVE",
"231 411 OFFCURVE",
"305 411 CURVE SMOOTH",
"368 411 OFFCURVE",
"414 365 OFFCURVE",
"414 287 CURVE",
"431 396 LINE",
"422 482 OFFCURVE",
"356 540 OFFCURVE",
"263 540 CURVE SMOOTH",
"130 540 OFFCURVE",
"39 427 OFFCURVE",
"39 263 CURVE SMOOTH",
"39 99 OFFCURVE",
"130 -14 OFFCURVE",
"263 -14 CURVE SMOOTH"
);
},
{
closed = 1;
nodes = (
"554 0 LINE",
"554 720 LINE",
"414 720 LINE",
"414 135 LINE",
"424 0 LINE"
);
}
);
width = 619;
},
{
associatedMasterId = "C0254B35-3FF0-4514-8990-BC8C3A6FFAB6";
background = {
paths = (
{
closed = 1;
nodes = (
"356 -14 OFFCURVE",
"422 44 OFFCURVE",
"431 130 CURVE",
"414 239 LINE",
"414 161 OFFCURVE",
"368 115 OFFCURVE",
"305 115 CURVE SMOOTH",
"229 115 OFFCURVE",
"185 166 OFFCURVE",
"185 263 CURVE SMOOTH",
"185 360 OFFCURVE",
"229 411 OFFCURVE",
"305 411 CURVE SMOOTH",
"368 411 OFFCURVE",
"414 365 OFFCURVE",
"414 287 CURVE",
"431 396 LINE",
"422 482 OFFCURVE",
"356 540 OFFCURVE",
"261 540 CURVE SMOOTH",
"130 540 OFFCURVE",
"39 427 OFFCURVE",
"39 263 CURVE SMOOTH",
"39 99 OFFCURVE",
"130 -14 OFFCURVE",
"261 -14 CURVE SMOOTH"
);
},
{
closed = 1;
nodes = (
"554 0 LINE",
"554 720 LINE",
"414 720 LINE",
"414 135 LINE",
"424 0 LINE"
);
}
);
};
layerId = "DB2F03C4-1363-4E61-8CB6-3F93BAB8EDC9";
name = "May 19 17, 18:03";
paths = (
{
closed = 1;
nodes = (
"356 -14 OFFCURVE",
"422 44 OFFCURVE",
"431 130 CURVE",
"414 239 LINE",
"414 161 OFFCURVE",
"368 115 OFFCURVE",
"305 115 CURVE SMOOTH",
"229 115 OFFCURVE",
"185 166 OFFCURVE",
"185 263 CURVE SMOOTH",
"185 360 OFFCURVE",
"229 411 OFFCURVE",
"305 411 CURVE SMOOTH",
"368 411 OFFCURVE",
"414 365 OFFCURVE",
"414 287 CURVE",
"431 396 LINE",
"422 482 OFFCURVE",
"356 540 OFFCURVE",
"261 540 CURVE SMOOTH",
"130 540 OFFCURVE",
"39 427 OFFCURVE",
"39 263 CURVE SMOOTH",
"39 99 OFFCURVE",
"130 -14 OFFCURVE",
"261 -14 CURVE SMOOTH"
);
},
{
closed = 1;
nodes = (
"554 0 LINE",
"554 720 LINE",
"414 720 LINE",
"414 135 LINE",
"424 0 LINE"
);
}
);
width = 619;
},
{
anchors = (
{
name = topright;
position = "{668, 525}";
}
);
background = {
paths = (
{
closed = 1;
nodes = (
"321 -20 OFFCURVE",
"406 43 OFFCURVE",
"440 138 CURVE",
"410 142 LINE",
"394 0 LINE",
"485 0 LINE",
"615 735 LINE",
"515 735 LINE",
"453 383 LINE",
"477 387 LINE",
"474 482 OFFCURVE",
"418 535 OFFCURVE",
"324 540 CURVE SMOOTH",
"153 549 OFFCURVE",
"38 399 OFFCURVE",
"38 211 CURVE SMOOTH",
"38 64 OFFCURVE",
"106 -9 OFFCURVE",
"221 -15 CURVE SMOOTH"
);
},
{
closed = 1;
nodes = (
"182 74 OFFCURVE",
"142 118 OFFCURVE",
"143 208 CURVE SMOOTH",
"145 355 OFFCURVE",
"207 462 OFFCURVE",
"328 455 CURVE SMOOTH",
"410 450 OFFCURVE",
"455 392 OFFCURVE",
"433 267 CURVE SMOOTH",
"428 239 LINE SMOOTH",
"408 126 OFFCURVE",
"341 66 OFFCURVE",
"259 70 CURVE SMOOTH"
);
}
);
};
layerId = "161FAF72-C4C5-4DCB-BDD5-17E2433CDCDE";
paths = (
{
closed = 1;
nodes = (
"321 -15 OFFCURVE",
"406 43 OFFCURVE",
"440 138 CURVE",
"410 142 LINE",
"394 0 LINE",
"485 0 LINE",
"615 735 LINE",
"515 735 LINE",
"453 383 LINE",
"475 386 LINE",
"473 485 OFFCURVE",
"413 540 OFFCURVE",
"309 540 CURVE SMOOTH",
"142 540 OFFCURVE",
"38 389 OFFCURVE",
"38 211 CURVE SMOOTH",
"38 64 OFFCURVE",
"106 -15 OFFCURVE",
"237 -15 CURVE SMOOTH"
);
},
{
closed = 1;
nodes = (
"185 70 OFFCURVE",
"143 115 OFFCURVE",
"143 207 CURVE SMOOTH",
"143 350 OFFCURVE",
"204 457 OFFCURVE",
"321 456 CURVE SMOOTH",
"425 455 OFFCURVE",
"450 379 OFFCURVE",
"433 267 CURVE SMOOTH",
"428 239 LINE SMOOTH",
"410 136 OFFCURVE",
"351 70 OFFCURVE",
"270 70 CURVE SMOOTH"
);
}
);
width = 604;
}
);
leftMetricsKey = "=o";
rightMetricsKey = "=|n";
unicode = 0064;
},
{
color = 4;
glyphname = e;
lastChange = "2017-11-08 16:06:31 +0000";
layers = (
{
anchors = (
{
name = bottom;
position = "{254, 0}";
},
{
name = ogonek;
position = "{282, 0}";
},
{
name = top;
position = "{331, 535}";
}
);
background = {
anchors = (
{
name = bottom;
position = "{301, 0}";
},
{
name = ogonek;
position = "{329, 0}";
},
{
name = top;
position = "{303, 535}";
}
);
paths = (
{
closed = 1;
nodes = (
"571 283 LINE SMOOTH",
"571 450 OFFCURVE",
"476 550 OFFCURVE",
"304 550 CURVE SMOOTH",
"133 550 OFFCURVE",
"28 448 OFFCURVE",
"28 265 CURVE SMOOTH",
"28 94 OFFCURVE",
"120 -15 OFFCURVE",
"306 -15 CURVE SMOOTH",
"472 -15 OFFCURVE",
"538 61 OFFCURVE",
"563 164 CURVE SMOOTH",
"568 185 LINE",
"368 185 LINE",
"365 174 LINE SMOOTH",
"358 150 OFFCURVE",
"341 143 OFFCURVE",
"307 143 CURVE SMOOTH",
"261 143 OFFCURVE",
"235 168 OFFCURVE",
"235 216 CURVE SMOOTH",
"235 316 LINE SMOOTH",
"235 372 OFFCURVE",
"260 398 OFFCURVE",
"306 398 CURVE SMOOTH",
"348 398 OFFCURVE",
"368 371 OFFCURVE",
"368 316 CURVE SMOOTH",
"368 292 LINE",
"416 319 LINE",
"199 319 LINE",
"199 222 LINE",
"571 222 LINE"
);
}
);
};
layerId = "4208D53D-8B52-43BA-A51E-290EEDFDCE51";
paths = (
{
closed = 1;
nodes = (
"565 258 OFFCURVE",
"569 308 OFFCURVE",
"569 338 CURVE SMOOTH",
"569 466 OFFCURVE",
"479 550 OFFCURVE",
"331 550 CURVE SMOOTH",
"132 550 OFFCURVE",
"26 407 OFFCURVE",
"26 213 CURVE SMOOTH",
"26 74 OFFCURVE",
"118 -15 OFFCURVE",
"276 -15 CURVE SMOOTH",
"428 -15 OFFCURVE",
"515 46 OFFCURVE",
"548 185 CURVE",
"351 185 LINE",
"340 156 OFFCURVE",
"326 143 OFFCURVE",
"291 143 CURVE SMOOTH",
"249 143 OFFCURVE",
"229 171 OFFCURVE",
"229 226 CURVE SMOOTH",
"229 264 OFFCURVE",
"242 398 OFFCURVE",
"321 398 CURVE SMOOTH",
"355 398 OFFCURVE",
"375 380 OFFCURVE",
"375 344 CURVE SMOOTH",
"375 334 OFFCURVE",
"373 313 OFFCURVE",
"370 292 CURVE",
"420 319 LINE",
"213 319 LINE",
"196 222 LINE",
"558 222 LINE"
);
}
);
width = 605;
},
{
anchors = (
{
name = bottom;
position = "{224, 0}";
},
{
name = ogonek;
position = "{305, 0}";
},
{
name = top;
position = "{297, 515}";
}
);
background = {
anchors = (
{
name = bottom;
position = "{269, 0}";
},
{
name = ogonek;
position = "{350, 0}";
},
{
name = top;
position = "{268, 515}";
}
);
paths = (
{
closed = 1;
nodes = (
"468 267 LINE SMOOTH",
"468 440 OFFCURVE",
"399 530 OFFCURVE",
"268 530 CURVE SMOOTH",
"128 530 OFFCURVE",
"46 434 OFFCURVE",
"46 255 CURVE SMOOTH",
"46 84 OFFCURVE",
"127 -15 OFFCURVE",
"269 -15 CURVE SMOOTH",
"374 -15 OFFCURVE",
"427 33 OFFCURVE",
"457 106 CURVE SMOOTH",
"464 123 LINE",
"444 123 LINE",
"438 109 LINE SMOOTH",
"411 46 OFFCURVE",
"362 3 OFFCURVE",
"269 3 CURVE SMOOTH",
"138 3 OFFCURVE",
"66 98 OFFCURVE",
"66 249 CURVE SMOOTH",
"66 262 LINE SMOOTH",
"66 419 OFFCURVE",
"138 512 OFFCURVE",
"268 512 CURVE SMOOTH",
"388 512 OFFCURVE",
"448 429 OFFCURVE",
"448 271 CURVE SMOOTH",
"448 265 LINE",
"455 277 LINE",
"61 277 LINE",
"61 260 LINE",
"468 260 LINE"
);
}
);
};
layerId = "C0254B35-3FF0-4514-8990-BC8C3A6FFAB6";
paths = (
{
closed = 1;
nodes = (
"468 294 OFFCURVE",
"471 323 OFFCURVE",
"471 353 CURVE SMOOTH",
"471 467 OFFCURVE",
"402 530 OFFCURVE",
"299 530 CURVE SMOOTH",
"126 530 OFFCURVE",
"45 375 OFFCURVE",
"45 191 CURVE SMOOTH",
"45 68 OFFCURVE",
"120 -15 OFFCURVE",
"239 -15 CURVE SMOOTH",
"342 -15 OFFCURVE",
"401 34 OFFCURVE",
"439 123 CURVE",
"420 123 LINE",
"387 46 OFFCURVE",
"334 3 OFFCURVE",
"239 3 CURVE SMOOTH",
"128 3 OFFCURVE",
"64 77 OFFCURVE",
"64 193 CURVE SMOOTH",
"64 365 OFFCURVE",
"135 512 OFFCURVE",
"298 512 CURVE SMOOTH",
"396 512 OFFCURVE",
"453 457 OFFCURVE",
"453 351 CURVE SMOOTH",
"453 324 OFFCURVE",
"451 289 OFFCURVE",
"446 268 CURVE",
"453 277 LINE",
"63 277 LINE",
"60 260 LINE",
"463 260 LINE"
);
}
);
width = 502;
},
{
anchors = (
{
name = bottom;
position = "{256, 0}";
},
{
name = ogonek;
position = "{316, 0}";
},
{
name = top;
position = "{318, 525}";
}
);
background = {
paths = (
{
closed = 1;
nodes = (
"511 273 OFFCURVE",
"517 315 OFFCURVE",
"517 348 CURVE SMOOTH",
"517 472 OFFCURVE",
"449 540 OFFCURVE",
"320 540 CURVE SMOOTH",
"151 540 OFFCURVE",
"38 407 OFFCURVE",
"38 206 CURVE SMOOTH",
"38 63 OFFCURVE",
"115 -16 OFFCURVE",
"257 -16 CURVE SMOOTH",
"377 -16 OFFCURVE",
"448 38 OFFCURVE",
"489 150 CURVE",
"391 150 LINE",
"365 90 OFFCURVE",
"330 65 OFFCURVE",
"265 65 CURVE SMOOTH",
"177 65 OFFCURVE",
"136 108 OFFCURVE",
"136 206 CURVE SMOOTH",
"136 230 OFFCURVE",
"141 261 OFFCURVE",
"150 304 CURVE SMOOTH",
"169 395 OFFCURVE",
"224 461 OFFCURVE",
"316 461 CURVE SMOOTH",
"386 461 OFFCURVE",
"421 423 OFFCURVE",
"420 351 CURVE SMOOTH",
"420 334 OFFCURVE",
"417 307 OFFCURVE",
"408 277 CURVE",
"441 307 LINE",
"133 307 LINE",
"120 234 LINE",
"247 234 OFFCURVE",
"375 234 OFFCURVE",
"502 234 CURVE"
);
}
);
};
layerId = "161FAF72-C4C5-4DCB-BDD5-17E2433CDCDE";
paths = (
{
closed = 1;
nodes = (
"511 273 OFFCURVE",
"517 315 OFFCURVE",
"517 348 CURVE SMOOTH",
"517 472 OFFCURVE",
"449 540 OFFCURVE",
"320 540 CURVE SMOOTH",
"151 540 OFFCURVE",
"38 407 OFFCURVE",
"38 206 CURVE SMOOTH",
"38 63 OFFCURVE",
"115 -16 OFFCURVE",
"257 -16 CURVE SMOOTH",
"377 -16 OFFCURVE",
"448 38 OFFCURVE",
"489 150 CURVE",
"391 150 LINE",
"365 90 OFFCURVE",
"330 65 OFFCURVE",
"265 65 CURVE SMOOTH",
"177 65 OFFCURVE",
"136 108 OFFCURVE",
"136 206 CURVE SMOOTH",
"136 336 OFFCURVE",
"193 461 OFFCURVE",
"316 461 CURVE SMOOTH",
"386 461 OFFCURVE",
"421 423 OFFCURVE",
"420 351 CURVE SMOOTH",
"420 334 OFFCURVE",
"417 307 OFFCURVE",
"408 277 CURVE",
"441 307 LINE",
"133 307 LINE",
"120 234 LINE",
"502 234 LINE"
);
}
);
width = 541;
}
);
leftMetricsKey = "=o";
unicode = 0065;
},
{
color = 4;
glyphname = f;
lastChange = "2017-11-06 22:48:47 +0000";
layers = (
{
background = {
paths = (
{
closed = 1;
nodes = (
"302 0 LINE",
"302 544 LINE SMOOTH",
"302 577 OFFCURVE",
"323 593 OFFCURVE",
"362 593 CURVE SMOOTH",
"373 593 OFFCURVE",
"385 592 OFFCURVE",
"398 590 CURVE",
"398 742 LINE",
"377 749 OFFCURVE",
"334 755 OFFCURVE",
"290 755 CURVE SMOOTH",
"156 755 OFFCURVE",
"87 698 OFFCURVE",
"87 576 CURVE SMOOTH",
"87 0 LINE"
);
},
{
closed = 1;
nodes = (
"394 368 LINE",
"394 535 LINE",
"10 535 LINE",
"10 368 LINE"
);
}
);
};
layerId = "4208D53D-8B52-43BA-A51E-290EEDFDCE51";
paths = (
{
closed = 1;
nodes = (
"255 0 LINE",
"351 544 LINE SMOOTH",
"357 577 OFFCURVE",
"373 593 OFFCURVE",
"407 593 CURVE SMOOTH",
"423 593 OFFCURVE",
"442 591 OFFCURVE",
"454 588 CURVE",
"481 738 LINE",
"459 745 OFFCURVE",
"408 755 OFFCURVE",
"357 755 CURVE SMOOTH",
"223 755 OFFCURVE",
"165 708 OFFCURVE",
"142 576 CURVE SMOOTH",
"40 0 LINE"
);
},
{
closed = 1;
nodes = (
"412 368 LINE",
"442 535 LINE",
"58 535 LINE",
"28 368 LINE"
);
}
);
width = 408;
},
{
background = {
paths = (
{
closed = 1;
nodes = (
"137 0 LINE",
"137 585 LINE SMOOTH",
"137 681 OFFCURVE",
"165 722 OFFCURVE",
"246 722 CURVE SMOOTH",
"265 722 OFFCURVE",
"281 720 OFFCURVE",
"298 716 CURVE",
"298 733 LINE",
"281 738 OFFCURVE",
"263 740 OFFCURVE",
"246 740 CURVE SMOOTH",
"153 740 OFFCURVE",
"119 693 OFFCURVE",
"119 586 CURVE SMOOTH",
"119 0 LINE"
);
},
{
closed = 1;
nodes = (
"289 498 LINE",
"289 515 LINE",
"24 515 LINE",
"24 498 LINE"
);
}
);
};
layerId = "C0254B35-3FF0-4514-8990-BC8C3A6FFAB6";
paths = (
{
closed = 1;
nodes = (
"92 0 LINE",
"197 595 LINE SMOOTH",
"213 683 OFFCURVE",
"244 722 OFFCURVE",
"315 722 CURVE SMOOTH",
"338 722 OFFCURVE",
"361 718 OFFCURVE",
"377 713 CURVE",
"381 730 LINE",
"365 735 OFFCURVE",
"341 740 OFFCURVE",
"316 740 CURVE SMOOTH",
"233 740 OFFCURVE",
"196 695 OFFCURVE",
"179 596 CURVE SMOOTH",
"74 0 LINE"
);
},
{
closed = 1;
nodes = (
"332 498 LINE",
"335 515 LINE",
"70 515 LINE",
"67 498 LINE"
);
}
);
width = 318;
},
{
background = {
paths = (
{
closed = 1;
nodes = (
"206 0 LINE",
"206 579 LINE SMOOTH",
"206 636 OFFCURVE",
"237 668 OFFCURVE",
"294 668 CURVE SMOOTH",
"310 668 OFFCURVE",
"325 666 OFFCURVE",
"340 663 CURVE",
"340 736 LINE",
"321 742 OFFCURVE",
"293 745 OFFCURVE",
"265 745 CURVE SMOOTH",
"161 745 OFFCURVE",
"106 694 OFFCURVE",
"106 593 CURVE SMOOTH",
"106 0 LINE"
);
},
{
closed = 1;
nodes = (
"333 444 LINE",
"333 525 LINE",
"19 525 LINE",
"19 444 LINE"
);
}
);
};
layerId = "161FAF72-C4C5-4DCB-BDD5-17E2433CDCDE";
paths = (
{
closed = 1;
nodes = (
"157 0 LINE",
"259 579 LINE SMOOTH",
"271 646 OFFCURVE",
"299 668 OFFCURVE",
"343 668 CURVE SMOOTH",
"363 668 OFFCURVE",
"386 664 OFFCURVE",
"400 661 CURVE",
"415 731 LINE",
"397 737 OFFCURVE",
"361 745 OFFCURVE",
"323 745 CURVE SMOOTH",
"232 745 OFFCURVE",
"182 704 OFFCURVE",
"162 593 CURVE SMOOTH",
"57 0 LINE"
);
},
{
closed = 1;
nodes = (
"354 444 LINE",
"369 525 LINE",
"66 525 LINE",
"51 444 LINE"
);
}
);
width = 348;
}
);
unicode = 0066;
},
